<mxfile host="65bd71144e">
    <diagram id="NPzsXHJLkDhDteUwwLQ5" name="Page-1">
        <mxGraphModel dx="3611" dy="947" grid="1" gridSize="10" guides="1" tooltips="1" connect="1" arrows="1" fold="1" page="1" pageScale="1" pageWidth="827" pageHeight="1169" math="0" shadow="0">
            <root>
                <mxCell id="0"/>
                <mxCell id="1" parent="0"/>
                <mxCell id="10" style="edgeStyle=none;html=1;exitX=1;exitY=0.25;exitDx=0;exitDy=0;fontSize=16;" edge="1" parent="1" source="6">
                    <mxGeometry relative="1" as="geometry">
                        <mxPoint x="-300" y="385" as="targetPoint"/>
                    </mxGeometry>
                </mxCell>
                <mxCell id="13" style="edgeStyle=none;html=1;exitX=0.5;exitY=1;exitDx=0;exitDy=0;fontSize=16;" edge="1" parent="1" source="6">
                    <mxGeometry relative="1" as="geometry">
                        <mxPoint x="-610" y="510" as="targetPoint"/>
                    </mxGeometry>
                </mxCell>
                <mxCell id="6" value="" style="rounded=0;whiteSpace=wrap;html=1;fillColor=#bac8d3;strokeColor=#23445d;" vertex="1" parent="1">
                    <mxGeometry x="-730" y="340" width="240" height="90" as="geometry"/>
                </mxCell>
                <mxCell id="9" style="edgeStyle=none;html=1;fontSize=16;" edge="1" parent="1">
                    <mxGeometry relative="1" as="geometry">
                        <mxPoint x="-490" y="405" as="targetPoint"/>
                        <mxPoint x="-290" y="404.9999999999998" as="sourcePoint"/>
                    </mxGeometry>
                </mxCell>
                <mxCell id="8" value="&lt;font style=&quot;font-size: 16px;&quot;&gt;Some API&lt;/font&gt;" style="ellipse;shape=cloud;whiteSpace=wrap;html=1;" vertex="1" parent="1">
                    <mxGeometry x="-320" y="340" width="270" height="110" as="geometry"/>
                </mxCell>
                <mxCell id="14" value="" style="shape=curlyBracket;whiteSpace=wrap;html=1;rounded=1;flipH=1;labelPosition=right;verticalLabelPosition=middle;align=left;verticalAlign=middle;fontSize=16;rotation=-180;" vertex="1" parent="1">
                    <mxGeometry x="-910" y="290" width="80" height="400" as="geometry"/>
                </mxCell>
                <mxCell id="18" value="" style="edgeStyle=none;html=1;fontSize=16;fontColor=#000000;exitX=1;exitY=0.25;exitDx=0;exitDy=0;" edge="1" parent="1" source="15" target="17">
                    <mxGeometry relative="1" as="geometry">
                        <Array as="points">
                            <mxPoint x="-1140" y="470"/>
                        </Array>
                    </mxGeometry>
                </mxCell>
                <mxCell id="17" value="Docker File" style="whiteSpace=wrap;html=1;fontSize=16;fillColor=#ffcccc;strokeColor=#36393d;fontColor=#000000;rounded=0;" vertex="1" parent="1">
                    <mxGeometry x="-1080" y="440" width="120" height="60" as="geometry"/>
                </mxCell>
                <mxCell id="21" value="&lt;font color=&quot;#ffffff&quot;&gt;&quot;Services&quot; = Built and running Containers&lt;br&gt;&lt;/font&gt;" style="swimlane;whiteSpace=wrap;html=1;fontSize=16;fontColor=#000000;" vertex="1" parent="1">
                    <mxGeometry x="-790" y="240" width="450" height="520" as="geometry"/>
                </mxCell>
                <mxCell id="4" value="" style="shape=image;verticalLabelPosition=bottom;labelBackgroundColor=default;verticalAlign=top;aspect=fixed;imageAspect=0;image=data:image/png,iVBORw0KGgoAAAANSUhEUgAABxQAAAK8CAYAAADGYookAAAACXBIWXMAACxLAAAsSwGlPZapAAAAAXNSR0IArs4c6QAAAARnQU1BAACxjwv8YQUAAOZCSURBVHgB7P17mFx3fef7fn5V3WpZbUstfJFvoBIDsYUvapHElmCwSpAhmXmMVDIj58KzrRbnbM88JwySmZPkkJ2gVuY5mZnwPLG8j/c5CX9ELc8wmT1O3CWHwJ4bKmfnBAMJajk4MSSDyoBtMAaVJCR1d11++/errrJbstSXVVXrVu/X85RWd6u6u3rVWqtW/T7r+/1JAAAAAAAAAAAAAAAAAAAAAAAAAAAAAAAAAAAAAAAAAAAAAAAAAAAAAAAAAAAAAAAAAAAAABAhs5w7f/enc6PKatR/bKXyQvcdWOD/b3q2XBYAAAAAAAAAAACA2FtSoPjy1rfva8iOuw9H1EOXCymNUcX9R+Wir8l9bsxFX2s0Gi/O/zxrdKphdfpKP9vUVclm537u9EpVNpTKFQEAACBejh8f0bnBgozNNT/PmJNS9Rlt3VwWAAAAAAAAQrFooPjSe95+wNpmmNg35oeP5uKPXw8ym2GlbVTm36fhwk/TCj/nB5ZUZAIAAATw7F/vU0Pj7vzrMhe1mXFtveOgAAAAAAAA0HMLBor9GCb2WMVKF4WQ7ZDy0oByfjjZbh9LMAkAAPrGl54/LNmxRe41pa13bhYAAAAAAAB66oqB4sl8bmRgxhx3d8gJihP7Rhg5tzSm3A4k261eX79PXZXqsMq0dAUAAImxtDBxTsMe1HvvGhcAAAAAAAB65oqB4re35goZmUkhTZoVkpcLIudXRfqKSOaVBAAAkfjy8wdcSDi+jO+oaGV1gzZv5rwFAAAAAACgRwau9B8uWBpdfIZFJMyIe0r9HEQ5/4m1du4pNnNPdKb5sVR3i8EZ6btbNzSrIS8KIBuNF+dXQVIBCQAAumb5YaI3onPZgltOCAAAAAAAAD0xIGABrZa3/jYXQLrwsdH6j2YMObBw+Og/J3gEAACLChYmzjEmJwAAAAAAAPTMQhWKFSoUsRyXCx9bX79s8OhulYbMi1k1TtakF9vtVm96tlwWAADoH52EiQAAAAAAAOi5KwaK1as04QKgRwV0WTt4tM2PrVyoeFG71TeFjtae8G1W61YnfKXjrV8tTwkAAKQDYSIAAAAAAEDsLViD+J2tuUNGZp+A+PGtU6cIHAEASLBuhYkNe1DvvWtcAAAAAAAA6IkF51CsDWl8cFbbZDUqIF5G3C3frHI0ptBoLtXcon2Fo4vKp9x2W7EyJ9otVTM1lQkbAQCICSoTAQAAAAAAEmPRWRJP5nMjg7PmGKEi0qLdTrUdNlLZCABAyLodJtYbe/UP754QAAAAAAAAemLRQNEjVETfMJoyVuWGzItWjZL7uFJbqakNpXJFAACgc72oTCRQBAAAAAAA6KklBYoeoSL6XHPOxvlVjQSNAAAsU6/anBIoAgAAAAAA9NSSA8W2b2/JTWSM2SMA3utBY7ui8a3PlksCAAAX+/LX96ihCfUCgSIAAAAAAEBPLTtQ9AgVgUW0W6dae8J9VqKaEQDQ13oZJnoEigAAAAAAAD0VKFD0CBWBZbuomjFTU/nWr5anBABAmvU6TPQIFAEAAAAAAHoqcKDoESoCHSNkBACkVxhhokegCAAAAAAA0FMdBYoeoSLQdXMho7XPWKOp+pBKtEsFACROWGGiZ0xBW+44KgAAAAAAAPREx4Gi950tuXFjzAEB6AkrlTMuZDSypbrVibc+Wy4JAIC4+vPjo8oOHldYana73ndXSQAAAAAAAOiJrgSKHqEiELpSu1UqVYwAgNjwYWJm4JiMGVFYCBQBAAAAAAB6qmuBokeoCETI+ApGM5UxjZLqeuamZ8tlAQAQpijCRI9AEQAAAAAAoKe6Gih6hIpAPLTbpGYytlif1Ylbv1qeEgAAvRJVmOgRKAIAAAAAAPRU1wNFj1ARiJ9mwGhMiQpGAEDXRRkmegSKAAAAAAAAPdWTQNEjVATirR0w1m3jKHMwAgAC+9LxnOzA8cjCRI9AEQAAAAAAoKd6Fih6hIpAghhNWWuekW0U3/psuSQAABbjw0QNHnMf5RSlrDbrnjtp7Q0AAAAAANAjPQ0UPUJFIJEq7uBQ8vMv0h4VAHBZcQkTm6obtHVzWQAAAAAAAOiJngeKHqEikHBULwIA5otVmOgRKAIAAAAAAPRSKIGiR6gIpEbF7cvFjGmUpgd1lLkXAaDPxC5M9AgUAQAAAAAAeim0QNH77tbcfvcrHxWANCllM3aC1qgA0AdiGSZ6BIoAAAAAAAC9FGqg6H17S24sY8xhAUgfo6mMtRPG6ijhIgCkTGzDRI9AEQAAAAAAoJdCDxQ9QkWgDxAuAkB6xDpMdLbeGck5LQAAAAAAQL+IbPCFUBHoI4SLAJBccQ8TPQJFAAAAAACAnop08IVQEehDLlzMGnuIORcBIAGSECZ6BIoAAAAAAAA9Ffngy3d/OjeqAeMHqkYEoN+Ushk7MT2ooxtK5YoAAPFx/PiIpgePK+5hokegCAAAAAAA0FOxGHwhVARgjJloNBpH3vpsuSQAQLTmwkR/bjaqJCBQBAAAAAAA6KnYDL4QKgLwrFTOGFPKNBoHaYkKABFIWpgoVVyguFYAAAAAAADomVhdzU2oCOASzZaoN/3/y0cEAOi95IWJXtkFihsEAAAAAACAnoldeyhCRQCXomoRAEKQzDDRI1AEAAAAAADosYxi5tavlqey1m72AYIAQM0rH3LW2rG6MSe/u3XDsVfem9sjAEB3JTNMBAAAAAAAQAhiV6HY9sqWXK5mzDEfJAgALkHVIgB00ZeeP+yOrGNKJioUAQAAAAAAeix2FYptPiAYsHY7lYoALmd+1eJL73n74e9syeUFAFi+ZIeJXlkAAAAAAADoqdgGih6hIoCl8MGiMebYd7ZuOEk7VABYhuSHiQAAAAAAAAhBbFuezkf7UwDL4S9CGMjYcdX1DO1QAeAK0hMmlrT1zu0CAAAAAABAz8S6QrGNSkUAy+EvPqg3zIS/EMG3Q/UXJQgA8IZnv/4olYkAAAAAAABYqkQEih6hIoDlunSeRYJFAHC+/PwBWe0XAAAAAAAAsESJCRQ9QkUAQREsAoDmwsSGHVe6lAUAAAAAAICeSlSg6BEqAugEwSKAvpXOMBEAAAAAAAAhSFyg6BEqAugUwSKAvkKYCAAAAAAAgA4kMlD02qGijKYEAAERLAJIvbSHiVanBQAAAAAAgJ5KbKDo+VCxuoJQEUDnCBYBpFI/VCZaWxEAAAAAAAB6KtGBorehVK4QKgLolnnB4gGCRQCJRptTAAAAAAAAdEniA0WPUBFAt7lgcbxmzLFX3pvbIwBIGsJEAAAAAAAAdFEqAkWPUBFAtxkpV2+Yie9s3XCSYBFAYvRbmGgMLU8BAAAAAAB6LDWBoudDxVv/4uTmhrVHBABd0g4WmV8RQOz1Y2Vio0GgCAAAAAAA0GOpChTb3vZseYxQEUC3zZ9f8WQ+NyIAiJMvf30PbU4BAAAAAADQC6kMFD1CRQC94udXHJgxx2mDCiA2mmGiJgQAAAAAAAD0QGoDRY9QEUCv0AYVQGz0e5hoTVkAAAAAAADoqVQHih6hIoBearVBPe7boAoAwkZlIgAAAAAAAEKQ+kDR86GiG/Q/KADojRHfBvU7WzecpFoRQGgIEwEAAAAAABCSvggUvbc+Wx4nVATQS802qMacpFoRQM/9+fFRwkQAAAAAAACExajPfGdLbtwYw2A/gJ6yUnnA2u03PVsuCwC6yYeJmYFjMmZEcKobtHVzWQAAAAAAAOiZvqlQbKNSEUAYqFYE0BOEiQAAAAAAAIhA31UotlGpCCAsVCsC6ArCxCugQhEAAAAAAKDX+q5CsY1KRQBhaVUrHn/lvbk9AoAgCBOvjDARAAAAAACg5/q2QrGNSkUAYXLHm4nZFY1HNpTKFQHAUnzpeE4aPOY+yglvtvXOvj+fBQAAAAAA6LW+rVBso1IRQJjc8WZsYMYcf2VLLicAWAxhIgAAAAAAAGKg7wNFj1ARQJhaLVBPfndrbr8A4EoIE5eCam8AAAAAAIAQECi2ECoCCJ959Ltb3/6oAOBShIlLRaAIAAAAAAAQAuacucS3t+TGMsYcFgCExErlAWu33/RsuSwAIExcjrK23rlBAAAAAAAA6CkqFC/xtmfLEw1r9woAQuJboNaMOfbdn86NCkB/I0xcrrIAAAAAAADQcwSKl0GoCCBsPlTUgDn+0nvefkAA+hNhIgAAAAAAAGKKQPEKCBUBRMFaO06oCPQhwkQAAAAAAADEGIHiAggVAUShGSpu3TB5Mp8bEYD0I0wMztrTAgAAAAAAQM8RKC7Ch4qq2c3uw4oAICRWKgzMmOOvbMnlBCC9CBM7Y8wpAQAAAAAAoOcIFJfg1q+Wp1youF2EigBC5OdVrBlzjFARSKnjx0cIEwEAAAAAAJAEBIpLRKgIIArtUPG7P50bFYD08GHiNGFixxr2RQEAAAAAAKDnCBSXgVARQBR8qKgBQkUgNd4IE9mnAQAAAAAAkAgEistEqAggIiMuVDz+ynv/wR4BSC7CRAAAAAAAACQQgWIAPlTMWrvZSmUBQIjqjcYEoSKQUISJ3WdtWQAAAAAAAOg5AsWAbnq2XB6wdjuhIoCwESoCCUWYCAAAAAAAgIQiUOwAoSKAqBAqAgnzpecPizCx+6wpCwAAAAAAAD1HoNghQkUAUfGh4g//yd0HBCDemmGiHRMAAAAAAACQUASKXUCoCCAqM2fPj58bez+hIhBXhIkAAAAAAABIAQLFLiFUBBCFRq2u0//j2+MzD/8TQkUgbggTe2+gVhYAAAAAAAB6jkCxiwgVAUTBh4o/+ua3CBWBOHn2648SJgIAAAAAACAtCBS7jFARQBTqMzPNULH68QKhIhC1Lz9/QFb7hd5bqYoAAAAAAADQcwSKPUCoCCAKPlQ8861vj9tffZBQEYiKDxMbdlwIx+bNBIoAAAAAAAAhIFDsEUJFAFG48MNTOvviy4SKQBQIEwEAAAAAAJBSBIo95EPF2pDdLKMpAUBIznz7JZ3//muEikCYCBOjUBYAAAAAAABCQaDYYxtK5Up1hd1OqAggTKe/9W3VL8wSKgJhIEwEAAAAAABAyhEohoBQEUDYGrW6fvDXL8hW64SKQC8RJkapLAAAAAAAAISCQDEkhIoAwlafmdGZb78sWeNCxZ9/VAC6izARAAAAAAAAfYJAMUSEigDC9uOXv6fzr/7AhYrab3/l5w8LQHcQJkbP2tMCAAAAAABAKAgUQ+ZDxVv/4uTmhrVHBAAhaM6nOD3jPxwjVAS6gDAxHow5JQAAAAAAAISCQDEib3u2PEaoCCAMfj7FU393sv0poSLQCcLE+LCiQhEAAAAAACAkBIoRIlQEEJaZ02d07uXvtT8lVASC+PLX9xAmxoi1FQEAAAAAACAUBIoRI1QEEJYz336p3frUc6Hig8ft/sKIACyuGSZqQogPYwgUAQAAAAAAQkKgGAM+VLSyjwkAeuiS1qeOGdXgimOEisAiCBPjqdEgUAQAAAAAAAgJgWJMvPVL5f3W2oMCgB7yrU9nTp+d9xVCRWBBhInxNZA9JQAAAAAAAISCQDFG3vpseZxQEUCvnfrmt2RrtXlfIVQELoswMd6qjdMCAAAAAABAKAgUY4ZQEUCv1WdmdPbl71/yVUJF4CJ/fnxUdXtIAAAAAAAAAAgU44hQEUCvnXv5e6pPz1zyVR8qDh23v/YLOQH9zIeJmYFjMoaAPc4GamUBAAAAAAAgFASKMUWoCKCXGrW6znznpcv9V04Ne4xQEX2LMDE5VqoiAAAAAAAAhIJAMcYIFQH00vnvv6aZ02cv91+EiuhPhInJsnkzgSIAAAAAAEBICBRjjlARQC+d/fZLV/ovQkX0F8LEpCFMBAAAAAAACBGBYgIQKgLolZnTZ65UpegRKqI/fOl4TtnBScLERCFQBAAAAAAACBGBYkIQKgLolQWqFD1CRaSbDxM1eEx+W0dyWAJFAAAAAACAMBEoJgihIoBeWKRK0SNURDoRJiaXIVAEAAAAAAAIE4FiwvhQsWHtXgFAFy1SpegRKiJdCBOTzdrTAgAAAAAAQGgIFBPobc+WJwgVAXTTEqoUPUJFpANhYvIZc0oAAAAAAAAIDYFiQhEqAui286/+YCl3I1REshEmpkPDvigAAAAAAACEhkAxwQgVAXTT+e+/JlurLeWuPlQ8bn9l96iAJCFMBAAAAAAAAAIhUEw4QkUA3XT25e8v9a4j7iXkGKEiEoMwMV2sLQsAAAAAAAChIVBMAR8qqmY3uw8rAoAOnHv5e8u5O6EikoEwMX0GssyhCAAAAAAAECICxZS49avlKRcqbhehIoAONGp1zZw+u5xvIVREvBEmplO1cVoAAAAAAAAIDYFiihAqAuiGs99+SctEqIh4On58hDAxpYYM5zoAAAAAAAAhIlBMGUJFAJ2aOX1GtlbTMvlQ8bj91Qf3CIgDHyZOEyamVr3KeQ4AAAAAAECICBRTqB0qWqksAAjg7MvfVyDWTBAqInJvhIlUzabV1s1lAQAAAAAAIDQEiinlQ8UBS6gIIJjz339NgREqIkqEiQAAAAAAAEDXESim2E3PlsuEigCCqM/MaOb0WQVGqIgoECb2i7IAAAAAAAAQKgLFlCNUBBCUn0uxI4SKCNv04KQIE/tBWQAAAAAAAAgVgWIfIFQEEERHbU/b5kLFAwJ67UvPH3b/5gUAAAAAAACg6wgU+wShIoDl6rjtaZs144SK6KlmmGjHhH5RFgAAAAAAAEJFoNhHCBUBLFfHbU/bCBXRK4SJ/cfqtAAAAAAAABAqAsU+Q6gIYDlmu1Gh2EaoiG4jTOxP1lYEAAAAAACAUBEo9iFCRQBL5SsUba2mriFURLc8+/VHCRP7lLVlAQAAAAAAIFQEin2KUBHAUp179TV1FaEiOvXl5w/Iar/QnwaypwQAAAAAAIBQESj2MUJFAEtRPXdeXUeoiKB8mNiw40L/qjaYQxEAAAAAACBkBIp9zoeKtSG7WUZTAoDLmP5hj4qBCBWxXISJ8AZqZQEAAAAAACBURoBzMp8bGZw1x2Q1KgC4xA2b79Dg8LB6wthx8zv/6aCAhRAmom1lda02b64IAIAuGx8f19TU1IjU2JORWfC9cUP2RSkzUSwWywIAAAD6AIEiXkeoCOBK1rz9bbr65hvVM4SKWAhhIubbeifnr32uUCjkpHp+afe2LnweKLsBf7pxAFhQK0zcYGS/6D7NLfHbTlqZ9xMqAgAAoB8wIIOLECoCuJyrrl2rt2x8p3pswnz6f98rYD7CRFys7ALFDUJfckHiqBvof9R9mNfyld2g/3YG/QFcye7du02tOuvDxLyW5+Rk8ejbBQAAAKQccyjiIhtK5Up1hd3OnIoA5ps5fUYhGLO/8vOHBbQRJuLNykJf8lWJLkw8pmBhoue///hcdSMAXMxXJ1ar1REFO8bkCoX78wIAAABSjkARb+JDxVv/4uTmhrVHBABOo1ZXbXpGISBUxBzCRADzuDDQvzaMqDMjrZ8DAJfTwTHG5AQAAACkHIEiruhtz5bHCBUBtM2cPquQECr2O8JEXFlZ6DutqsK8uiNPlSIAAAAAAMtHoIgFESoCaKudO6cQESr2K8JELKRhXxT6jlFjXF3VGBMAAAAAAFgWAkUsilARgFc9d0Ehc6Hig8ft/kKnLe6QFF/++h7CRCzImIrQh8w2dZGR2ScAAAAAALAsBIpYEh8qWtnHBKBvVcOtUGwxoxpccYxQsQ80w0RNCFhIxpwU+kqhcH/BLXLqrhH3c/MCAAAAAABLRqCIJXvrl8r7rbUHBaAvNWp11aZnFD5CxdQjTMRSVRunhb6SUXaPesAoe0AAAAAAAGDJCBSxLG99tjxOqAj0r9q584oGoWJqESZiOYZoedpPCoVCzrqFemPU/XxeUwAAAAAAWCICRSwboSLQv2YjCxS9Vqj4a7+QE9LhL54rECZiWQarZaGP1PPqHRcm1scEAAAAAACWhEARgRAqAv2pPhNFy9P5XKjYsISKafDnx0fd83lYwHJs3kyFYh8xyvS0Lan7+TsFAAAAAACWhEARgREqAv2n+uMLioEcoWLC+TAxM3BMxtBuEMtRFvpGoVDIyx/veytfKNyfFwAAAAAAWBSBIjpCqAj0l/rMtGKCUDGpCBMRXFnoG0aNMYUi06s5GgEAAAAASBUCRXSMUBHoH41aXbXpqNuevo5QMWkIE9EJa08LfaFQKLhjhAmlHamR2TP3+wAAAAAAwEIIFNEVhIpA/7D1mmKEUDEpCBPRMVMW+kTdVw2GdawYMaa+TQAAAAAAYEEEiugaQkWgP8zGYx7F+QgV4+5Lx3PKDk4SJqIj1laEvmCU2aMw2cx+AQAAAACABREooqsIFYH0q8/EpuXpfISKceXDRA0ek3+OgE5YWxZSr1Ao5Nwir2DKCiZP21MAAAAAABZGoIiu86Fiw9q9ApBKMQ0UPULFuCFMRDdZWp72A6PGuAKyMrsUWIMqRQAAAAAAFkCgiJ5427PlCUJFIJ1sra4YI1SMC8JEdNuQoeVpXzCB5jO0UqlYLE65D0sKwMjsEwAAAAAAuCICRfQMoSKQTrXpWcUcoWLUCBPRC4PVspBqhcL9BQU+bpgJ/69V44iCGXG/Py8AAAAAAHBZBIroKUJFIH0atZoSwIeKx+2v7B4VwkWYiN6oaPNmKhRTzihTUDDlYrHYChKzRfntJZDAvx8AAAAAgNQbENBjPlT89pacMsY86j4dEYBEi/Ecipdyx5vMMRcqbjeffnJK6D3CRPSKVVlItUKhkHNP9B4FYOa1OXXBYqVQ2HEkSAtT9z173OMY9z9DfWx8fFxTU1P+nL11q807fx/w66bi1lFZfaa1XnJzn9VyF//v3HrR3Lrp2+3n4nV0+W1Hfb6OrmSR7asstq3F1o/68bgEAAAQNiMgJN/96dyoBowfaCZUBBLu5i3vlhlIzDUpbvClQajYa4SJ6K2Stt65XUitQuFDY0aZwwrAymxuzZ/Y+lmFvJE9pgCsGo8Ui39ySH1kLsxt7MzIjFrJV/a7z5d0vu7XuXuNtSesbEnKltIQeLwRXNTzGWW2tdaJXx+5ZfyYS9fNVJrCjjdC53rBBfGj7rZ+3razFH47KbvBiHLDrSO3/ZVcKDQV5fbT+ps2uGPHt7R81h07PuqOHROL3XFeYO/WW6OwzHXn18/U3Hal41LmmbSFaB2uHy+VxyUAAIC4IFBEqAgVgXRY91ObNLBySAlCqNhLhInovQkXKNJCPcV2FXaeVLBjSHmyeHTDZX6ePybltXwl9/NiFV63AtIDWnj9VNx9Sg1lDi5l8Nz9zNGMCxFdGDum7h67S24Qf8IFHUeTNIg/NjamSqWS9wGGe4vsK2V78V7FB0HPuODJrZrPlZQw7XXktpttPdhu2vz2U2xtP2WFqNeB4hvbWHNfbofU3XDcrbPHkhwuvhEiNva4ANHtg11dP177uJS6ABYAACBsBIoIHaEikHzX3bVRQ2uuUcIQKvYCYSLC0LAH9d67xoVU8uGWG2Q/rgB8sPHG/IkX/czx1sB9kJ95UcVjlAqF+wtG2cllfMuUe/zbrxTmzQsn8+otX33mAk5zMM4D+Lt371a1Ou2rY32ImFd4TsrYg5OTTx9RzEW4jlwIVH/Mha9FhaBXgeK89bfYRQEdc/vcRNz3ufna1cAuyN/fwyD/InPrqH4kiaE+BAAAYiAjIGS3frU8pZr1V37TegRAmPycisftrz4YaI4uXMbx4yOEiQiFtWUhteYGkwN75gpfP6TAfJVaPLgw8dFlfsuoLrM+fVtTX7XZagWbV+/lrDTmf98DhR2Bgt1e8tVibp1sr1VnT7Za7eYVrg2yZsI9J9/atWtHLM9LfBDmWxFHuI7yPkz368gF63klzGW2sZx6rLXPfSuO+9x8Pkh062bkuamvPeoe70nNzXkbysXGc+soe8xtV1+ca/cMAACA5SBQRCTaoaI7oS8LQOLUpmeUWG4Aj1CxC3yYOE2YiJBYUxZSzGxTAL7S5EqVOK0KvZIC/dzm4HbkWoPdOS3f6PxPPlwo7GtVgOYVPhcsmvG5UCj6wftWkLHhdOWUD1e/qOhfw5rB4gOFnYfjEm6015ELwo6FFYQtYoMPgOK0jhbSDsvOVH70aETbmInTPnepj3zkI/rrqSl/TDrpHmcnF5N0ansSwlcAAIC4IVBEZHyoOGAJFQFEgFCxM2+EiaMCwjBk6GqQUr4CSgEH3K3JLNgK0Q1WH1QwI0msiHqDWdP+yA2WP9qQ9dWaUU814FtJfjHK9TovyPiaoglXr6hVWRZ5xVQS1lFcKzq9eW1Tj0cclnn+cXzNt01WDLSC1rUXzv34cEyOSV6sw1cAAIA4IlBEpG56tlwmVASSx9ZrSjxCxWAIExGFwWpZSKXWvGxBlCcnJ48udIdisVhSwBb7RtlEV634Cinf4jQGocZ8vtLsix/etSvU196YBhmX0wqACpG8vv7iL/6iScI6mqvo3PG7iiEXJm5uhbE5xcNat889FXUV3ryg9Ws+GFb8xCp8BQAAiDMCRUSOUBFInkatrlSYCxXjNNgab4SJiEZFmzdToZhCrYqQvAIwS2xn6gK1xxRM3odySiC3bkZCnCtxuUzDNg6HFSq2goy1vrItpkHGpdaGXanYDlynL5xPyjry+/UjLjD/WoyqykxGZlOrxWncjhu+Cu9A2EF+27wwMQ4thhfSDF+jWk8AAABJQaCIWCBUBBAZax51oSLzpyzFhQE/lxJhIsJlOTdIr0bgCzoaS29nWlJgjaRecDKqeB+rfaj4aBiVeC+88DXTCjKS9NrVDhVDCabmraO8kmVzmOtpMa1q4LhehNAM8sNuOZygMLEt1AseAAAAkohAEbFBqAggMtaMEyou4kvPH5YxtIJCBOyLQioZmZ0KwJ0rlorFYnkp9221PS0pAPf4tgm94kOzp3oZBu3evdvMTsu3xkzihTA+hHlKPebbnM5Omz9Qci8W2hCnUDHmjK/AC6uqM4FhYltoFzwAAAAkEYEiYoVQEUiG+syMUodQ8cp8mCg7JiASpiykjhuszSvwILOZWM69rcxRBZMPu6Knz2zIyPZkLjwXJqpanR6L2RySy+W2vw/17PGPFQqauXDhQFLanC5gc0aNTwlL4YP8P1AInnvuOZPAMLGtfcFDTgAAALgIgSJih1ARQGQIFd+MMBHRKwupY9QYU3DLDQgn5OfiDCRDZXYP2Wau1d3Q1ldGVavVDUaZboZMFSMVrexBq8ZeF1Tucrftb9z81+xBfx9175hl/N/Qi+o7H7i6HWKze8ypOOfxwbHbjthXl6anQbXnq4PVqPmLBXLqEl+Z7rbXxy6z//mP9/v/U0ctrt9kQ1jhKwAAQJIYATH1ypZcrmbMMZPMqxqBVFu17jqtfefblVrGjpvf+U9LnZ8rvQgTEQe+1e6WO4JWmCGGfNWHG6g9qQDceeHEU8Wje7VMDxR2TroB6SCBQ8UNVm8oFosBA8ngOllPy+Uv5Mu4wfhGs8WwLc99NeuXLsyqu5vJZWQ22bnWmDl110m3jt/drXXsK+/OuFyxG2GZbQYU5mCrde6StFo95vxDcc+fn4stpw74oLJYfHpcXfTAAw8Y26h/S919Lt2+Yo+4Rzzltp0pzYX4ldHR0YpbHz4UHWn9vk1SY3OrpXBO3XPKbUdvD7odzWvR+S2F4I19zrh1VT/t1llzfSmcfe5Ua58rq8vGxsZUqVS2t6oTO9La/3xIf2Qpz+u8fS9v5vb/nDpjXYD5iWLxTw4JAAAATQMCYspXKrpQcTuhIoDQzVUqqq9DxWe//qgbRhkTELVq47SQMvV80EYpDdWPKAA3aP+YG2AOEij6wX3/fRNKHx+W+qqeiaUGC3OtRKsu4Gjs72IgtMH/PLccV4fmhUL71Bkfcn50OUHi/MeguSrFcRcK+0/GTQfhplvPH3c/51BXA9dGoxthS9Nioav7ul+0w7KyWlVkreCpHfzk1bm1rdann1B8ld125Y9hS34+e7TPuXVl/br6qLrszJkzpguVfadkMo8UJyeXdbyft+9NfOQjH5k4d+7c/tb2FbTKt10lXOxF+AoAAJBEtDxFrNH+FEBk+rn96ZefP+BGCJM87xTS5OralJAqboA2aNhTLhY/V1IArbAjUCDjHu8epYsPEg+2Ki/HlzNQ/uSTT/p1OTU6+u6xuXaDNlDAe6lWaNZxa8/nn39ec4F14ADBVwQealVvldQhH6bdcMMN4+7nPaDAbXebofaYusQ9iA2288DV86Hr9mLx6PYg62piYqK5Xw4MrvBtK33VcVkdmmt9Gst573xANjZZPNre55a8Lbx5nzNdudhtrt1wd9eVD6vVeVh93O9/k8sMEy/12c9+VqOjo819WZ1tW2tpfQoAAPAGAkXEng8Va0N2sxtpYEARQLj6MVT0YWLDjguIh4o2bw691SR6xw1g+/Z9owqg0/CqVY0XRL4X89hFxFdIbV5uqHEpXwnkg8iRkbf4kOP96jwMWtuqUuyUryh6SAG12os+0s0Wt5/5zGc0ODg46dZT0Mo5/zftUJcYNTqp2GrqZujqAzMX/Ey0tqNO3+8Ztx11IyztGhfcHfOtWDsNyNr7nNuWxrsQknl+XY2pS/zja4XVgS/AcN/b3A66VQ3oH5Pbtk52YdvKd3uuVwAAgKQiUEQibCiVK9UVdjuhIoDQ9VOoSJiIuLF0KEgb01FolJlQZzqYB6srYVfU2mFiWV3iq8zcgP2xboSKvkpR3RE0sO76XIVtPjS76qqrJjoIxfOdVpP5cGUuGG+2zQysF6FrF4Mfvx3ticsFAD54LRaPvr+b66oVwB7v1j7XrXVVnpryg0udzBl63B3ju7pdefO2LV8lXFYwLtTPfkoAAAAgUERyECoCiEw/hIqEiYgjo64OLCIOgoUZfp62ToOw1kB1SQG4gfdYVT0FUJ5rT1ns+j7lB+wHBwdPdtjW0xvppArIP45qterDkWUHJEY63Kswse22226zPjBRYPUgc4C+rtUO1v+MnAKaC8h6s55awc+pLgRlI52uq25orasOnu8r6+Y+J9UCBfCXOpPJmA6qE5t/Sy+OT94lgXXQ35GmSnUAAIDACBSRKISKACLjQ8Vf+fnDSiPCRMSV1QkhNQqFD40pcJhhJtQFbkD5qIIZSXLLu1aYWFaP+Kqp4eFhXzX1WwquoyqgVsjiw4LlBganGp097iWZ9/hKWj6TUeZudcZ0OB/oSTd80JX5+67Er6ORkREfKn5Uwfl1dZ+idbJXYWJbt/a5jLKBWwS37d69W41GdUzBju/uT8gc7OXxyfPblltfJztYXyYlleoAAAAdIVBE4rRDRXdGXxSASGSHhtSnxlIXKhImIt7KQmp0EGaU3WBzR/OPzTOhgBUqbuA9kVWKcy0qeztY7332s5/1gZlvK1tScKOdVAHVajU/6l9azveYZvFq79ePt2LFCusCjacVgJXyCqhVvZlT8J/hHnf9E72qIJvPt9F121FJHWxHbl1FWaFoW5VwPdeNfa5L6yrw3KW++rzT+SWXqtP11cW2zAAAAIlFoIhE8qHiLV86uathbShvPgBgnvSEioSJiLu6pSNBSrTmf8srANNZQHURH4gEncfOJrPlXbkLc08u2fDwsO2wYqqjFoybNm2yDZlPaOkXIxxv3T8Us7OzflFSMDkF1Gp3mldAcy2HPxfmxZx+O+rkeRnpdM7JoNzx5bfCCqi9buxzbl0F3uc6DKvdplXveXXwfB2ur0RXqgMAAHQDgSIS7W3PlscIFQFEIPmhImEikmDIMIdieowpoIbqXT7XywQNRvzcbGNKEDdwPh5muNGF6jKXH2d2KiAfbri/9+T1N6zb4P72Xb4688q3xl5fSRZG1V3bHXfc4RdlBRQ0JKvVar4N6A4FY43JhPp+y7fzdNuRv6CkpOCiCP9tmAG+142Kzk7C5g7D6ikXVJcUog7XV0fHJwAAgDQYEJBwPlT89pacMsZ0MicIACyXDxWl6swj5lAxWaEHYSKS4p47qVBMCSPbQbvT7g44uwCptKuw029by67KMXODyYeUDGV3CzpnZGC+rWe1Wn3aPed5BWBktqlDn/nMZ/yiqJhNkeADz18oFCozCixQSGaM8SV/QavQymG1pJzPV5JVKtXfCroduRg19EDRpU0TkyEG+G0d7nMdzc/ZDqutls3PnfiYItDJ+urG8QkAACDJqFBEKlCpCISrj+dQvNSYBlccs/sT1ALv2b/eR5iIhKA6MSUKhUJeAds1+go79YD7uUGDtnxSWt6ZZpvK8C94eec73+kXEwpuNIGtZUOy/JDMh5iNRiOngPtgN1sOL8e8SrKkvBZYazKhB/hea58LHJ5bBQ6bNTAwEHh+T2vtM4pAh8cojk8AAKCvESgiNXyoaGUjucoRQD8zo4kJFb/89T2yJimVNQDViSlh1BhTcL0acO7gWJgpKAG63yp2aXyA5YIgHwKVFFxO6IpyuewXOQUTWUj2+u8PNpdi6K00vagCMr/PZTKZsg3eTjfQOezu3bv9/ImjAb+/XIygmtPr/BgVfJ5XAACApCNQRKq89Uvl/e6N3EEB6KmBlVQoXiwBoaIPExsdVYwAYSsLiTc351uwtvRW9mivBpxblXslBWCUiDb7lSgClTbfUtAFQU8rsDoD9l3iAh+/CLw+3XurFxURP5eic9htS0t+f2ekST83psI3FUVFcJt7nvzgTtALcXIKYO3aC+7fek4BuOP7CUUs+GMwHJ8AAEDfIlBE6rz12fI4oSKA8MU4VCRMRBI1ohvERjfV8wrImOxh9dByQopLjMS97akbKI+kUqptcHDQL4KGGy4TMpuUEr4ayrdIdLfRQuFDY9NqHFCIZmdn3fpsrFcwLpguRlot7n6/RkdHx93+utbdti9w2+zv81Tx6ANRBHtun4v0Ncu3Hm108BjmLv5YnlOnrvL7atA5BaMOFK2CBYodzTkJAACQdAMCUsiHit/ZknMDUSbUN+xAv8gMcD3K5bVCxV/7hV3m3/7HsuKAMBFJlc0cFxLPKLNPwZQnJyd73WrRByU+eFj2hSBGWX+OWVJ8RRoC5XI5TTkKKCOzRgniQ0P35/rtKDdXXWly7m9Y7+emOzF1PGde38bCP3+q1WpqPZZlszFpPe3Xr+b21ZLiKyYBmVGYTLDw3z/WsiLkqytffdUECp47mXMSAAAg6QgUkVqEikDvmCwvH1fmQsWG9aHi9shDxb94rkCYiMSqNk4LiTZX8WIDDbyaEIIDX8VUKOw44gbEg4SeeV91FmWLw4UYk400kPcB0AMPPFBpNOplE6CdYiOGcyi2QsOcmuFgfdRtN/625kqhYZAArxd85VqtOhuwe4LlOLw0PiCL5bFg6Wo5LbPVeDY747YtE2jbMmbglCJ0880/5QJFf9FDoD01/vOmAwAA9Agjwkg1QkWgN7IDWWFBuchDxT8/7isketouEOipq2uxqIxBcEaN8aDVMo3g7UiXKVN0A8oBqygb+90/44qhKOe9a1uxoqaZ6WAVQCbCQHFetaF7HW1syrjgMO6h4ULq9bp/nLmAdWtlYakiDRSHh4dVqVTLYW6V9bqfU302pwCsrSY5rM4JAACgTxEoIvUIFYHuMwO8fCxBdKGiDxMzA8fcgY8rqJFUFW3enPBqD3Qwt9ZUsVgsKwTu95R2FXaW3Id5LZOR2amYBoqKONzwjBl20ca5E76STzE3NjbmwphK3oXgBRccbjOvtzQ0iQgNe4gKRVxRtlpVLVi1njHKHnPHXkXF7ecdNYf1FfhhvU4BAADECZNgoS/4UNFaG9KV7kC6ZYeGhCVrh4o5hYUwEelAdWLCFQofGlPAKg4rc0ghcr8v6FyNo4XC/XnFUBwGuv3cfQoebObUYz5EdKFAfldhx6HTlVOnXHR4THPtb5kfDViEr+SdplIPAACg7xAoom8QKgLdkaE6cbnCCxUJE5EeZSHRMsp0UnryjMI1ocDBV6YgXFa1WvXFfbGqNPYhiJ/78oHCjgOXhIipfd1c0WgEbSHr5wUsC8BlNOecBAAA6DsEiugrhIpA5wzzJwbR+1CRMBFp0oh+/jcE51vBuSQiUNDmgo+JsKvr3O/zoVegqlgjs8cHVMKb+Dnd3NvNwC0zu7le20Hic1NfO+BCxJNWZlwpDhGBXnv++ef9gn0IAACgzxAoou8QKgKdGVi5Qgikd6Hil47nlB2cJExEamQzx4UEq+cVUEP1I4qAC5iCnhu64259THiT2dlZ92+9kwrFrrym7d69W1NTf7WXIBHonrkLBtiXAAAA+g2BIvqSDxUb1u4VgGVjDsWOdD9U9GGiBo+JeWyQJhkqFJPMKHNAwZSLxc+VFIFisVhSwPacprP2rr0QqzajUWlVJW6oVWePuefoD0T4AQAAAAAdYSIs9K23PVue+PaWnDLGHBaAJcvQ8rRT7VBxu/m3/7GsThAmIq3uuTNQ+0lEzwU4ecnmFICRSr5dqiJi1JiwMvu1fHn/uMNu1bqAvg8Ux8bGNDU1td3IPiWCRAAAAADoCgJF9DVCRWD5BqhQ7IbOQ0XCRKSVFWFigrlQbqwZDQZgXQ7kAqAxRcQGfNxz/N+tccVDTn3sIx/5iM5WKvvdtvSo4qHitu1yRppqyJ52W9qJVsUkkFjnzp3zC6qhAQAA+gyBIvoeoSKwPGaAl44u8aHicfsru7ebTz+5vACFMBFpZhigTKpCoTDiwpK4tf8MhZHZp/gEirFQrVbdv2a9AgpS8TlWKOjMuXPjVjZo293A5oWGL7rP3Ot61h/Lpi79O36hUDAzsgSKSLQ77rjDVwH36+t1ZO25AQAAosaoMKBWqLg1V8moGSrSFglYQHZohdA17niTObasUJEwEWlndUJIqHrBHdP69TxqpFC4P88gc3SalYnnzu3vcZjoqw2nfJWh29ZPus/9fK9TMWp3+yb1wUGX7s764If3OEDnrEzmoAAAAPoUgSLQ8rYvlYvf/elcWQPGD9Tzhhu4goGVtDztsqWHioSJ6A9lIZGMMnvUx4yyPsgqCU2Dg4OmWp0J5Zx6fHzcV0tt6EGb04qRig0Z//p8NM7B4ZXU63VfPen/juU+F+5bTE5AD9hkvtaX3T5xsDg5WRIAAECfIlAE5rn1q+UpFypuJ1QELi/L/Im9snioSJiIflG3zKGYQIVCIeeGiPPqb6O+7asLnSJvAxiHx1Gr1ZSRWW8VSHk5d37uueeMCxO/qO7wVYglFxw85tZhSQDexIf4v1AolGcUiNvF6nup6AYAAEiejABcxIeKqtntYpJ54E2yVCf20lyo+C9/If+m/yFMRD+5ukagmEBGjXHBHcfrY4qHyC+MGxgY8KlB0Mex5PPw3bt3q9Gojqnz10gXJJqD7rahWDy6qxdhog9hphN00aILhN8m4Aqa7XQDv2c2OQEAACBxqFAELqMblYovjdyql9bc4m63XvT1W05/V9dMn9EtlZe0euaMgCQZWMn8iT02oow9Zn/1wTHzO//pSPMrhInoLxVt3swFPYlktgm+7etOtzik6EUeWrVabeaMls8uI6Rwv8e49f4pdcA9xsmGzEd7XdX5/PPP+0VOIcpms7KNejnI723IrhVwBR200/XoBgQAAJBABIrAFbRDRTtgJs0S3oCfGVqt4uiH9d9u+0f623Xv0tmVqxf7lmawuPH7f6N7yl/WPS8+q9u/97eEjIg1Wp6GxJoJFyrK/OInj2p6cFKEiegfVCcmUKFwf0Ecp9rybn3ko2/lVx9VhPtTa07DERNwu8gsseWpr06sVqfHXKCYUzDWynxislgMJQQeHh5WpVIJNUjxlaLV6syLRsuPdt33rBdwBdbtPW5fnbLL389NRpm7BQAAgMQhUAQW4EPFV7bktteMOXalAZGvrL9Xj2/b55ZbtFw+dPTfN/e9+5pf88HirhN/7ELGZ3XL6ZcExMmK4VVCSFyo+C++frz8/3nHPTkB/cLqhJA4GWX3BJwnL6UyPmAtKVJmVBEql8t+EfgxNGS/vcS7+urEhxSMDxN9VeKEQlKtVv0i1OfGz2Wp4FM55BQDY2NjPojNGzUKLuRcc7n7WNnT7jh03O1/R+Mwj2k/6CSstiHvBwAAAOgO5lAEFnHTs+XygLXb7SVXSvuKxN/+2d/UQw/9YaAw8Ur8z/rkjk/rAx//P93P/g+a3PTh5u8C4sAMcB1KmP7X5/5zrvDyNwT0kbKQKIVCIefOkQrC69zg+h63XiJt52cibkHbYXBmjckeX+xOvgrS/R6/nvMKwAVQvxVmmOidP3/eZGTvU4hWrFjhdtHMiwpmxO/jitDu3bvN6cqpY0b2mNuy97k/ZuxyN/9/brufcPf7WtSPuY+4VW+DXgg0GvVxEgAAAMtHoAgswaWhop8bcdfDn9MT9+xVL7XDxXt+dcotf6f5e4EorRi+SgjX4b96WrnzXGiPPlG3tDxNnHpeuNSIMfWo55SMdLB+dnbWuGBnhwKy1i4agHVYBXmyWHx6XCEzfq2EXJk1ODjoFx0cW6Pbx8cKBdWr1QNaXmi8wa3lLwohyXawbdWoUgQAAEgYAkVgidqh4nM3byoXHv5TvTRyq8I0uemfvl616NusAmHLDGSpUIzASHVah//yaQF94eoagWLCGGUOCG9mM/sVuUYkj6FVOZhTwMpBp1IsFhc9FnRSBWkiaEnr23Y2Go28Qm4jmsvl/CLosdXPdRdqRWWb344q0loru0fLl3OBOmFVjz355JM+sPbbVpAr39xumNkpAAAAJAqBIrAM7/jNkyMP/t8mR/zch1HxVYu+zeoH/sWfNduhAmEZGB4WopF/7UXteZGp5ZB6FW3eTDlugrgB+7xiMsdaDOVj0PZ0nyLw/PPPq5OqNrvE8MtXQbrQdL2WzzbUeE4hm5mZMUaNIOFYR3wwl8lkKjZgS2nb3NXD35Zb25Fvp5xTIDXaaYYnUGAdh/bQAAAAWB5KTYAlWvkFm3PvqCfdh7F40+MrJH071Mfv26df/y//Sh/4xn8V0Eu0O43W+N/+mY6s3yQgxahOTBgXjow1i0wCfa8mnioe7W3v+C7YVdh5TIEr7ZoVguOKzkihsGNPsfj0EYWoXq+74CzzKQVm/2wp9xoYGFC1OhP0vDzUixd8qDc1NZVzAUokFVlDQ0O6cOHcM27Py2n5Roxp+MedsO0IYfBzdFar1aeNbF7LtzbK42Rrv/THkNzCAfTAkqqmAQAA+gEVisAS+DAxa3XMxPAqfB8s/vKDv+9uv8cci+ip7MohITp+HsX8D8oCUsuKMtwEmasqCR6ONFQPNZwIysocVEBRVQhe8hjGw6wA2r17txqN6piCnzNbt3WUlDLlqSn/xttXJ0ZyYWKtVnPr1T6jYFxWZEKtrOxOe9gBAqAQvPOd7/SLogJyx6iHwq5S9EGi+51rn5s6ftht3Kfc7bhR9tiVb/b4rsLOb9FGFwAAgEARWFScw8T5/vttH2zOsfjJHb9DsIieGKTlaeRoe4pUy5hjQoI0WxEGHQQuF4ufKykBisViScGr2UYKhfvzilYuo0Zo81x2oaosjG3Dndab0Er+W3MBbrCykc03escdd7h/s4FDHzVb+N5fUEjOnDnjtiP7Bwpuyu27tNAOgd++BwcHywo+L+mGsOd7PXHihMm47cul7GPL+LYNbpv8Ii1aAQBAvyNQBBaQlDBxvslN/7Q5xyLzK6LbMgO8ZESt8Mo3BaRWxr4oJIYLjQJXLLlgJRHViW1W5jEFlgkthLkS9/j3hxFsjhXcn9pohpc5BWSWEUpcuHDB5QHB5gU0IQaKzz33nA/HvqgItUIfH7CVFIz7G7K/G0aY0oUqV78dUZ0YIt/21B1nnlZAbn/8uNu2cgqBP04Zaw/4uUG1fCOti2kAAAD6FqPDwBUkMUxsa8+v+IF/8WdUK6IrMgNZKhRjYKQ63Wx9CqTSPXcyAJwQrYHfvALLTChZDikgN1C+Jw4VLS4MmuzlgP3DD9+viuq7OqzCsw2Z/3Wpd3YBmf+WoBci5MMIWV04ZtSo/a5i8H5ieHjYdtLCV3MVWk+ph3zwWa1W3e/J/K6Cc9tR/QkhNK22pxMKXs29tsOK1CXxYfVZY8airBYGAABIOgJF4DKSHCbO54NF3wb18W2RT+GDhBsgTIyNTZXvC0gdSzVJkriEZFwBWalULBbLSpBW68SSgvEVLWOK3ogbsD/Wi1DRD9K/+urAZhcCdRoI+DaVyzwWZIMeO3pececroerV6gFfIaoYmJiY6LSFr7f9gcLOngQ/Pkycmpra0Krm7OR5SUxL5bTwz51zqrNqbr9t7egkSF5Qs/K1Vhtr2MZhdcSWBQAA0McIFIFLpCVMnO/x+/ZRrYiOrBi+SoiHDVQoIpVod5osZpsCMxNKoE4Gyl3QtlPxkHNhzfFCYUfgdrWXag7SV6tjXQiB3CrOLGsdP/nkk75K0QeKQV8YN2dkux5g+HDFBZVrz8gejmMlVIehj78oYK8LFZ/qZjh9SZiYU3B+O+qkChMBjY6O+oXftgKfqPrw3YWKXd9nPvKRj/jj1P7Ow0T/tw1wARQAAOhrBIrAPGkME9uoVkQnsiuHhHjwbU+B9DElIREKhfv9/FE5BVMuFouJmj9xnpKCD5TnXfgyqngYMS7UdYHQ4U4CoVZotqFenZ1suOBMnYWJXnlycjLQttHJnJw+HNtV2PmtboVjY2NjPhjb7oKxr7mfPaZ46ij08dzftsuHf7t2dR5O+7Dnr6em9vl1ps7fg5Wttc8IoetSlaJx3z/ercC6He6fP/fjY+449ag6ZJoF60Wu7AMAAH2NQBFoSXOYOJ+vVnzoof9AtSKWhfkTAfRU3XLFf0IYZQoKyARvGxo5P4jcSXAlNQKvt17wYZcLcE66gftJX7G4lNafrcH5kULhQ2Mnpo67c2b7LfdzuvF3Ba4q8/MCure0R9WZDa11EThk9UGi+9786cqpY12osuspt8586PNb6twGWTMxF8g2t6HcUr+xvS35ajQX9px0YY+fp7TTULq5HSWtpXKazKtSLKsDnQbW7e3ruamvHfDHKXU05+/r3Hbalf0GAAAg0YwA9E2YON8tle/qk//lX+lnvvFfBSzm5i3vlhkYEKJ3cON9Gt/YQbdBII5WVtdq82au+o85Hxj44EUBudH+DUke7PeBkZ+HUMFUJotH1y7nGzpd3wE024e68+FyY14b4ozMercYcYP8Pi3Iqcvczz1eLB59twLavXu3qVVnfYiXV3eUZOyEtZkTV5rTsdWi0wdgoxk1trltO9/F338l1qr+/m7MD9iDddbm1pd9xj2nJ+daWdt5x3WTc7c1bnsabW1L3a7aPen2sbcroHltV7+l5XPPTeOjxeKfTCgiPtSuVCrbW4H2cnVt23r44Yf16quv+kDwKXVH2f2siYYyRxeaY3X+PmmaF3AYH0Z2a45UH1bvDVpFDQAAkCaMDqPvjUzakeqsPWYGTU59xLdA/diDv6+P/dlj+tgzHU2lgpTz1YmEiQB6qEyYmBT1fNAGJy5AKCW9csg9/tKuws6SgoUwI4XC/fluDNj3UDPgcc+VzLzrTq16yv1484A64KsUK5Xqb7nQIa/uyMsaHx7LPd/+87IurrgaOTF1fKR9IaJN4DW6d9xxh3Xhy0dbbUa7Fbp4bhsyo3Nr5PLrpUfbkwvEzPuFyH3mM5/xgXWxWp15zB1HujHXRs63QXXb6rjbH/25wpSZa9n7+nmD26Zybp/MvXFxcHf3SSv7WJEwEQAAoImWp+hrPkysrVDfhYnz+Raohf/5c7RAxRUNrFwhxEdlcKWAlCkLiWCUOaDAzIRSwA1sB26vaZTtYP2lkxuo/61Og+aJiQkNDg6W/KC/eiOnuRC5fetJpWaYfDWXC2JP2pS0cOzGdoTu8YG1G2rybYzL6i4ffud9q2Xftrl909x+mVNvHC8Wn35EAAAAaCJQRN9qh4ludKfb7XYS54Ub36WHHvpD/e26jQIutWLNNUJ8nFzVzUICIAYa9hkh9gqFQqchSqfz3MXFhOZVxixTfilzFfYLFwQccwP14+qCHgYYqfXZz37WB7GHehjEhsI9/kPd2o7QHT6wHh0dPdWqGi0ruU5S+QoAAHAxAkX0JcLEN/MtUHc9/Kd6fFs3OtMgTXzLU8TH6cEhAamSzRwXYs+osV8BGRfCFYvFVLS19X+HCzA6CEeDr8eUOem2jI+qSy4JMGihvERPPvmkveqq4UfcNp3Ido7ucU9QPRZPrX3yZIL3yeP+safltQsAAKBbCBTRdwgTF+ZboP72B39DQNuK4auE+JgauVFAqtjZE0ICmG0KqKF6yuaeykwoINPBelwONxB+UPF1sjVQX1YX+QBjcHAw9gGGn0/ULaYUE3/4h39oBweH9iatUrFVmbhXiK15oeK7laBKRR9U9+IYBQAAkAYEiug7tSEdJkxc2BP3fpR5FdHkqxPNwIAQD+VVa5hDEWlT0dbNZSHWCoX7Cwre7rRcLH6upBRxg8wlddb2tOfnoe4xjrsB8ThWbp3s5UD9k08+6QOM43ENMHxQMTi4InaBp69UdEMD+2MeRLf5StRHqExMhksqFcuKt/a2tZfKRAAAgMsjUERfGf6CPewWBWFR7XkVCRX728DKFUJ8nKA6EekTmyodLCQTOABzg7PjSiH3d3VQzVUP5cI2NyB+yD3O7YrPIP7xMKp+Lgkw4nKMse2gQjHlnhfdcMMNPoh+QPENftrb0CEhMebtk5vjWgnr53T1FyKwbQEAACyMQBF9w4eJxmpMWDI/r6IPFf923UahP61Yc40QH6Xr1gtIlYZ9RkiATCeVGml9jjsZdB5RSHw1pQ8Vo54jz7ennCwefXdYLQR9gOF+VyvAiLzq7vj8oGJgYMCvjxcVyEBPq6Y+85nP+OBnMg7bzCUq/nlsbUO9DIk7WL+2rAidO3fOLzp4/L3dtlr7ZGVwcMhXwvpgvax4OCmTGSsWj9LiFAAAYAkIFNEXCBOD86Hirof/VJObPiz0H9/yFPFRup5AESmTzRwXkiDQAL6RJtI6QOsHxt3fV1Qg2YDfF4x/DorFp8eiGMT38wX6cCqq9pS+6s4FZL7qbkMEAdllQ7BarebbiwYJ2ss9DtOaWsFPeXT03X6bebvm5nyMSnMd+ufPt/FVD7Xm4PShWknLF3lrZ9/u1z1+v30ECQZD2bY8/zjd75qY2yebYX9Z0WhvW++enJxM2Ty/AAAAvUOgiNQjTOyOT+74tB7ftk/oL0NUKMaGnz9xag0tT5EydvaEEHutKrflVnlNNeI5h1/XNAIEdC7UOhhVyOoH8V24tSGMYPGNIPHo9tack5G5JCALI1hcMATzgYoxZmKZgfSpVivS0LSrPDeNbt4+b72FNa/cReswxPnsfGvaT2h5+8ep1vdEbu3atf7xf1TLc6rVHjhU88L+zWFe7DB3bKrvcsfCtSFvWwAAAKlgBKTY1Z+3j7rFfqFrPvZnj+ljz8Ry6gt02Yo1q3X9XbcL8TDxtk3a+1M7BKRIWVvv3CAkRqFQGMvI7rQLtOx0by7KLmibcoO0fXGy4NaJXxeFJa6XI8sJ19zPzhnZkwrADZYv+j7P/fy8i0XHjMw292lOHbLNyi7jK+9iXZnqg7Kpqamc+zDv1u8ev1TnmhWry3mOd+/erWq1uuA+5X5mpdFsj5o5FId1+vDDD+vVV18tuO2m0K3tps02AyV71P2txShD6De2j8Z+9zduutL95j03E2FV9y3F8h6/8Rf1xGJ/be0Po/6Y5B7dNvf4ujXXrAunfZW98QH+EQJEAACAzhAoIrWu/oI94N6ZjgtdR6jYH66+eZ3WvJ0Wm3Gx/X3/k0rX5wSkhnUDx++5qyAAl9XrQLHtjYF8Hw418j6E8AGXmQuLLg26/OC8H5CvZOaqUH2Q4ucDLCVxoL4Vvvi/0QcZ+Yz72xutv9u8OSyb/7eX58Ik6/7+bKkf5167ZLsZzbS2G3dz221zu3lTSGpbVWiZuTbKlaRvP+iNy+2Xi2xbV9o3p+IU9gIAAKQBgSJSiTCx93ad+CP966d/VUivaze+UyuvXStEz7c73fBzHxeQKlaP6D13HhKAyworUAQAAAAAYCmYQxGpQ5gYjslN/1S//ODv6czQaiGdmD8xPkrX5QSkTt1SNQAAAAAAAJAQBIpIFcLEcP332z6ohx76D4SKKTQ4PCwzMCDEw8F33Scgda6uESgCAAAAAAAkBIEiUoMwMRov3PguQsUUGrz6KiEeStetV3nViIBUsZrS5s3MlwUAAAAAAJAQBIpIBcLEaBEqpg/tTuNjYv0mAaljRHUiAAAAAABAghAoIvEIE+OBUDFdhlbzPMZBedUaHSFQRBplVBIAAAAAAAASg0ARiUaYGC+EiumQHRpSduWQEL3xjdsEpJLRCQEAAAAAACAxCBSRWISJ8USomHxDI7Q7jQNfnXj05tsEpFBF99xJy1MAAAAAAIAEIVBEIq06WidMjDEfKn7s539PSCbmT4wH3+q0MrhSQAoRJgIAAAAAACQMgSISZ/jzdk9mMDMuxNpX1m/RJ3f8jpA8zJ8YPV+dOMHciUgrq6MCAAAAAABAohAoIlF8mGikCSERJjf9U0LFhBkcHmb+xBjwcyeWV40ISKW6pUIRAAAAAAAgYQgUkRiEicnkQ8XHt+0TkmHw6quEaPnqxCNUJyLN3ndXSQAAAAAAAEgUAkUkAmFisj1+3z5CxYS46i1rhWj56kQgxUoCAAAAAABA4hAoIvau+bwtECYmnw8Vj9y7V4i3oTXXCNGZWnMj1YlIN6sTAgAAAAAAQOIQKCLWhv/UjlrpsJAK//qDv6nJTR8W4mnFmtUyAwNCdHZt3S0g1TLmmAAAAAAAAJA4BIqILR8mGiM/8DgipMZvu1Dxb9dtFOJnxTDzJ0bpsXfcq/IqDndIuaHZZwQAAAAAAIDEIVBELBEmptfZlav1sQd/Xy+tuUWIl5XXvkWIRnnVGo1vvE9AqllNafPmigAAAAAAAJA4BIqIHcLE9Htp5FY99NAfEirGSGYgy/yJERrfuE2VwZUCUo7qRAAAAAAAgIQiUESsECb2Dx8q/vKDv68zQ6uF6A2t4XmIysTbNunI+k0CUo/5EwEAAAAAABKLQBGxsfILNiejSREm9o0XbnyX/vXP/oYQvZXXsttFwbc6PfguWp2iTzB/IgAAAAAAQGIRKCIWfJiYtTpmpJzQVyY3/VM9vm2fEK2h1VQoRsG3Oi2vIsxFH2D+RCCIoPtMWQAAAAAAdBmBIiJHmIjH79vngsUPC9EYHB5WduWQEC5anaLPUJ0ILFOxWKy48+OilsnKHhEAAAAAAF1GoIhIESai7bc/+Jv623UbhfANrblaCJdvdfrIpg8K6Bt1u+xQBIDUkNm7nIDQ37dYfHpcAAAAAAB0mREQEcJEXOqWynf1xBO/qFtOvySE57q7NrpQ8RohPBt+7l/Q6hT9ZWV1LS1PgeAKhULeJfO5he+VLReLxZIAAAAAAOgBAkVEgjARV3L79/7GhYq/pNUzZ4Teyw4N6cafpu1mmA5uvK85dyLQR0raeud2AQAAAAAAILFoeYrQESZiIS/c+C49vu3jQjiGRqhMDFPxptsIE9F/Gpb5EwEAAAAAABKOQBGhIkzEUjxx70d15N69Qu9d9Za1QjiYNxF9q6GSAAAAAAAAkGgEiggNYSKW419/8Df1lfX3Cr3F3Inh2X7fQ8ybiH5U0fvuKgkAAAAAAACJRqCIUBAmIohP7vi0Xlpzi9AbK9aslhkYEHrvkbt/ljAR/cnS7hQAAAAAACANCBTRcyOTdmSgoUnCRCzXSyO36pcf/H2hN4bXXSv03sGN9+nQO+4R0JeyZlIAAAAAAABIPAJF9JQPE2srdExGowICeOHGd+m3P/gbQvcNrV4t9NbUmnUa37hNQN9qVKlQBAAAAAAASAECRfQMYSK65Yl7P6rJTR8Wuse3O82uHBJ6p7xqjXZtfVBAHytr6+ayAAAAAAAAkHgEiugJwkR0229/8DeZT7GLrrqW+fx6qTI4pO33PcS8ieh3JQEAAAAAACAVCBTRdYSJ6IWzK1froYf+UGeGaNPZDVe9Za3QO7u2/DxhIlCzRwQAAAAAAIBUIFBE19WGdJgwEb3w0sitenzbx4XODA4P0+60hx65+2dVun69gL73vrtKAgAAAAAAQCoQKKKrhr9gD7tFQUCPMJ9i51atu1bojYMb79Ohd9wjALQ7BQAAAAAASBMCRXSNDxON1ZiAHmM+xc4MrblG6D4fJo5v3CYA8meYEwIAAAAAAEBqECiiKwgTESY/n+IvP/j7wvJlh4aaLU/RXUfWbyJMBOZrVJ8RAAAAAAAAUiMroEOEiYjCa1dfrzMrr9H7/sefCUs3vO46rVw7InTP1Jp1+sfv/SUBaLGa0ns2/VsBAAAAAAAgNahQREeGi/VHCRMRFT+f4lfW3yss3SoXKKJ7fJi4/b6HBOAiVCcCAAAAAACkDIEiArv6C/aAWZHZLyBCn9zxaZ0ZWi0sjnan3VVetUa7tj6oyuBKAZinbosCAAAAAABAqhAoIhAfJspqXEDEXhq5VR/7+d8TFkd1Yvf4MNFXJpZX0T4WuERZ77urJAAAAAAAAKQKgSKWjTARcfOV9Vt05N69wsKGbyBQ7AbCRGBBJQEAAAAAACB1CBSxLISJiKvH79unl9bcIlyeb3WaXTkkdIYwEVhEzR4RAAAAAAAAUodAEUtGmIg4O7tytT6589PC5a1ad63QGcJEYFEV2p0CAAAAAACkE4EiloQwEUngW58+vm2f8GZXvWWtEBxhIrAkRQEAAAAAACCVCBSxKMJEJIlvffq36zYKb1ixZjXtTjtAmAgskTEEigAAAAAAAClFoIgFESYiiT724O/rzNBqYc4w7U4DI0wElqyiLXccFQAAAAAAAFKJQBFXRJiIpHpp5FY9vu3jwpyh1YSrQUytWUeYCCwd1YkAAAAAAAApRqCIyxr+P+w+wkQk2RP3flRfWX+v+t1V166l3WkAhInAMtHuFAAAAAAAINUIFPEmw5+3e0xDhwQk3Cd3fLrvW5+uvJZAbLmOrN/UDBMrgysFYElodwoAAAAAAJByBIq4SDNMlCYEpEC/tz7NDGS16obrhaXzYeLYT+4gTASWh+pEAAAAAACAlCNQxOsIE5FG/dz6dOW1a4WlO7jxvmaYCGCZaHcKAAAAAACQegSKaCJMRJr99gd/U/2I6sSl82Hi+MZtArBstDsFAAAAAADoAwSK0Kr/vVYgTESavXDju/T4tn3qJ9mhIQ2tuUZY3N6f3EGYCARHdSIAAAAAAEAfIFDsc8N/akcz12QPC0i5I/fs1UtrblG/uOraEWFhlcEhbX7//6yJ9ZsEIKCaPSIAAAAAAACkHoFiH/NhojE65j4keUDqnV25Wp/c+Wn1i6tvvlG4svKqNdr8gYc1NcJ6AjpQ1vvuKgkAAAAAAACpR6DYpwgT0Y++sn6Ljty7V2m3Ys1qZVcOCZc3tWadtt/3kAsVOfwBHSoJAAAAAAAAfWFA6DuEiehnj9+3Tz/zwn/RLadfUloNr7tWuLwj6zdp/90fVGVwpQB0KKvHBAAAgJ4YHx/X1NSUH7dpjd3Ucm/8r8mp+yruBK9cLBanFKI3/s56Xh2PU9myG+qshP03AADQL4zQVwYPz44OrRskTERf+8A3/ov+t//0z5VWN295t8wA14tc6uDG+zS+cZsAdIHVlN5z52YBAAAgkHmBYc6FaaNGxt/WWGlUc2M2OUXjpIw9ODn5dE/nyh4bG1OlUskb2QPu07y6K5S/AQCAfkOg2EdWfsHmslbHTHQnpUBsPPHEL+qeF7+stFm17jqtfefbhTdUBof0yN0/q4n1mwSgSzIa0713MkADAACwBPPCQxcWNjZlZPKt4DCnmHJB36NPFZ/+hHpgrFDQGbda7FyY2CvW/Q0H3d9wUAAAoCsIFPsEYSJwsVsq39XkZ+7X6pkzSpPr7tqooTXXCHPKq9Zo15YHNTVyowB0U3WDtm4uCwAAAJfVChFzLkDcaWQKeqPyMDHcGNLhp4pHP6ouCilMbCNUBACgi7JC6hEmAm92duVqDdVnUlWlmB0a0sjb3ybMKV23Xru2PqgXrrlOALrI2qN6z6bfEwAAAC7iQ8SRkZHcu27/iX3f+973Jtw4zLgLE39Oc+MxSZzIffT223/i9AsvfPNZdYFfP+XvfW+DO6GcVDjcU2C2bdx4W/mFF75xQgAAoCMZIdUIE4Ere/y+fXppzS1Ki6tvWSfMeewd92r7fQ+pvIrpYoGuy2QOCwAAAK97+OGHVXBOTB134y/2pJUZVzrGYYxR5lPqkm984xvu5zXCqEyczz0lZp8AAEDHaHmaYoSJwOLuefFZPfHELykNbvypTcquHFI/8/MlHtyY16F33CMAPVHW1js3CAAAoM+150XMqLHPBYj7lbB2pstgrervLxY/V1KHHnjgAWMb9W8p/HEq9zeYtxeLxbIAAEBgA0IqESYCS/OV9Vv03277R/qZb/xXJdlV167t+zCR+RKBUJQEAOhIO4RQ98OHihssrwhAT7X34eemvrbPuCDRBVV90BbF5NQFKxoNzUQ0TmWM2SR/cRwAAAiMQDGFkhgm2ppt3pofzzRaX3PLun3TfRut//cyQ5fp2pt1p/QDc183fgvPzn2cWUmHX1zev/7gb+qe8pe1euaMkmrVDf09T2Dxptu096d2qDKYxGlJgCSpHhQAYFkuqWLKn5g6nu9Vq6BdhZ1+MZWRnagrc5RqHKC7xsbG/P683cj+gdufc0JiWFtbKwAA0BECxZSJW5jYDApn6mpMN2RnG82lml9rvB4M2nkBYRiMCyFNM3Q0zY81MPexDyfNULYZQs4t6QjcL14auVVPbNmrjz3zmJIoOzSkldf273ujR+7+WVqcAuEoaevmsgAAS7Z7924fPmx24cNTIYYPow2ZQ+537isU7v9Esfi5ogB0pHVhwIbTlVN/4EYK8gIAAOhDBIopEmWY6IPCxpmqbN2q8WMXIJ6rNwPEdtVhnPgAcymPqhk4rsjMLYezzQpH/3lzSeCYOo/ft0+7pv5It5x+SUkzNHKN+pFvcbr3J3eqdP16AQhBRhMCACxZO4Bwwd4XFc3cau53Z5/68K5de/94cvKIAATiLwz466mpMbcvP6r0zpMIAACwKALFlAgzTGycqzUDw7q7NU7XYhscdmquDWt97pMztTf9f7OqcVX29bAxs2qgWd2YGWa3SqpP7vy0nnjil5Q0q996i/pN6br1zRan5VW8nwdCUta9dzIYDQDL8Nxzz5kIw8Q207CNRwuFwjO0PwWWp92uuF6dOWBl9gsAAKDPkXykwMikHak1NCnT/TDRh2o+QKz9qCrrA8Tz9VSGh0H49VD3QeMlYePlgsbMMBWNSfCV9Vvc7V7d8+KXlRQr1qxWduWQ+gktToFIlAQAWDJf0VStTo+5dwY5RW+tn+/NLd8vAEsyr8LYtyseFQAAAAgUk64ZJq7QMRcmdu0Et366qoYLyeqna3OBGZblikHjUEbZ4bmgMbt6kJAxpj6549Oa/Mz9Wj1zRkkwvO5a9QtanAJRqh4U0GcKhUJOPUbFWHrVajWTUWZHjC7FzLttesRtcxUBWNAl7YpzAgAAQBOBYoJ1K0xsBmA/mp0LEE9VqUDsET93Y83d9KOqqppufq0dMmbWDFDJGBMvjdyqJ7bs1ceeeUxxlx0a0qobrlc/KN50W7PFaWVwpQCEzNqjes/msoCUc2FL3qhRcGdoO9UcQO79OfGugv9VmnJnf1MN1Y8Wi58rCqkwNFTXzLTJKUaMMdvc4qgAXBFhIgAAwJURKCZUp2FiO0SsvTpLG9MIzQ8Z23y7VB8sZtfMBYzMyRi+I/fs1UPPHo59leJV165V2lUGh3RwY54Wp0CU6jokIMVckDjqBo4fdWdmeRe5KAKj7kzcPYbsmAsYy+4sfa8LFktCos3ODrhIuj4Sp0sFra2l/+QR6ABhIgAAwMIyQuJ0Eib6dqbTXz+rC187rZm/P99szUmYGC8+4K39YLb5/Fw4cVbn/8o9Vy/8WNVXppvzWaL3zq5crce3fVxxd/XN65RmU2vWafMHHiZMBKJV1vvuKglIqQ8XCnvcwPEx92Fe8ZBzweKxBwo7DggAEBrCRAAAgMURKCbQrLGHlxMmNs7VVf3OBZ3/SkXTz/+YEDFhmlWMP6pq9uSFuYDRPY8EjL33xL0f1VfW36u48tWJ2ZVDSqvH3nFvM0wsrxoRgAhlNC4gpXxlYkN2wn0YuxcbKzPuw04BAHquFSauJUwEAABYGIFiwgx/wR7OrDCFpdz39WrEE2c0+51pQsSU8M/j5QLG2qszBIxd9vi2fYqr4ZtvVBqVV63R9vc9pP13f1AAIlfWvXceEZBCLkzMuYHjScWYCzsP+ccpAEBPfeMb3zBGjUdFmAgAALAgJmdLEB8mGquxhe7TDJtemVb1lRkCxD7RDhhrrXkYzVBG2dUDyr5lsDn/YmYl1w0E9ZX1W5pVive8+GXFSXZoSENrrlHa+KrE8Y33qTK4UgBioSQgpdzZ0R4b/4HjkUxzbkftEgCgJ8YKBZ25cOGAeydNVTgAAMAiSBoSYrEw0YdKvq2pnxuRasT+1myR6udg/Ma55vbgq1Rn3bZRP031YhCf3PFpxc3q9TcrTeZXJRImAnFSPSgghQqFwoiVHVMC2ObDLdD/GwB6wLc6rUgb3GsC89YCAAAsAYFiAiwUJhIkYjF+zsyq2zamnz+r8391WjN/d26uPep0Q1jcSyO36si9exUnQ6tXKy2KN93WnCuxdP16AYiVCW3dXBaQSnU/fUBOidHYLwBA1z333HOmNW8iFmXLAgAAfY9AMeau/oI9cLkwkSARQbxevfj351+vXqy+Ms3ci4t4/L59OjMUjxBv1brrlF05pKSrDA5p15YHtWvrg1QlArFEdSLSyyiTqLZ2Ria+kzoDQEL5VqdqNHxlYk5YTLlY/FxJAACg7xEoxpgPE2U1Pv9rBInoJl+9OHvSbU8nWtWLJ8/TGvUyzq5crSe2xKNKcfVbb1HS+arEDT/3cRVvvk0AYqlEdSLSqlAo5Nwir2QZKRTuzwsA0BXzWp1ywcbirEyGC80AAEATgWJMXS5MrP1w1gU/ZwgS0RPN6sVXZi5ujeq2Ocw5cs/eyKsUV6xZnejqxPZciVQlAjFXswwaIbWMGuNKoIyyDHoDQJd84xvfMO71wFcnMkftIlzo+tjk5OQRAQAAiEAxli4NExvn6s3WlDPfONcMfYBee701qtvmzn+l8nq42M9Btq9SfHzbxxWl4XXXKqkee8e9zJUIJIHVlN53V0lAapltSiB3BpYvFAoMfANAh3x14oULF3Lu9SBR7a+j4MLEiWLx6UcEAADQQqAYM/PDxNfbm54402xNCUTBb4cXhYsv/Fi1V2f6Mlx84t6P6qU10bQczQ4NadUN1ytp2lWJ++/+IFWJQBJkdUhAShUK9xeU3LmyXJhYHxMAoCPzqhNxeRX3Tr9kZba7MDEe834AAIDYGBBiY36YWD9d1czfn6ciEbFT+1G1eZPOa+Atg8pev0ID165Qv/jkzk/riSd+SWG75pZ1SpqDG7fp0DvuIUgEkqOse++kpRVSK6PsniRfDmWU2ekWhP4AEJCvTpyamsqZBFUnutetckaaasi+6D6bkrIV92V/K6sHisViWQAAAFdAoBgT7TCxXZVYfWVGQNy1w8XZgfPKrnXhogsY0x4ufmX9Fne7V/e8+GWFaeVb1iopStet1yN3f1BTIzcKQIJkLp67GUiTQqGQs7IFJVu+ULg/Xyx+riQAwLK9UZ1oFGO+QtAFh40jLjwsEfABAIA4IVCMgXaY2Jwr8YUfU5WIxGm3RfW32aELyq4e0MANQ8quSech5vFt+0KtUly17jplVw4p7iqDQzq4Md+sSgSQOFQnIuXq+XTM9pDxoWhJAIBlm5nxF27Hdi7dspXx52KHXIhYEQAAQAwRKEasHSbWXpnRzMnzApLOB+LtcNEMZZrh4uDNQ8oMp+dwE3aV4uq3RjNv43JMvG2THtnEPIlAYlGdiJQzyqRivqxWm779AgAsy+7du1WtTo+514Oc4uWUCxJ/y4WItLQGAACxl4bLdBPLh4m2asenv36WMBGp1A4XL5w4qwtTZ1R7dUaN6XRU4PoqxTCsWLM61tWJU2vWafv7HtLen9pBmAgkF9WJSLVCoZB3i5zSYcS3PRUAYFlqtZrJKLNDMWKlYy5MfDthIgAASAoqFCMy/H/YfY2z9XFanKJfNM7XNfP3c8H5XEvUFc22qEkVVpXi8LprFUe0NwVShOpEpJxRYyzm82Uti1HWV1uWBABYkvHxcU1NTY24D2Mzl66VPVgsPj0uAACABKFCMQLDn7d76i/NHJp+/ixhIvpS/UytGS6e/0pFM393TvXTNSVRr6sUs0NDWnXD9Yob3950w899nDARSAeqE9EHzE6lS75QKIwIALAkzz//vPu3TpgIAADQIQLFkPkwsfad6Qnf4tTWrIB+5vcB3xLVh+vn/+p04lqitqsUe2X1+psVJ6Xr1tPeFEgbqhORcoXCh8bcIoXhW4N5FAFgieLU7pQwEQAAJBmBYoiGn7J7Zl/48cTsdy4IwMV8ta6vWrzwtdOaeeHHzXAxCXpVpeirE4dWr1Yc+Pamj9z9s9p+30MqXb9eAFKjRHUi0s4os0cpZNJXdZk62WzWN9otK1ZsWUAfGhgY8PMV5hW9k4SJAAAgyQgUQ7Ly39f2TL9wZqL2o6oALMzvJ82WqH91utkSNc5Vi72qUhwauUbZldHPMfnYO+6lvSmQVlk9IiDFCoVCTvEYQO6F0ULh/rwQW9Vq1VqZZxQfZRerTAnoM2NjY35/zCv6anV/THi/AAAAEoxAMQTZ3z5TmD3544nG+boALJ2vWvQtUX3V4vTXz8a2avGTOz6tblv91lsUJd/edMPP/Qvtv/uDtDcF0mlC99zJwDJSLu1tQTOxmQ8MbzY6OuoXsakCt7JPFIvFioA+48JEvxhVxNw++FtuHywLAAAgwQgUe2zw0R+P2pn6YR+MAAiufqYW26rFl0Zu1eSmD6tbVq27LrLqxKk165rzJPr2puVVKZxyCkBL9aCAlEt7W1D39+0pFAq8WMfU+Pi4BgcHyy5EeEzRO06bRfSr8+fPm4zsfYrWSTf8NiEAAICEI1DspV8/NVr74ewxW7e80Qe6JK5Vi4/f1725FK++eZ3C1p4ncfMHHmaeRCD9JrR1c1lAirmgLe8WOaWbe49RHxNi64477rDuLfdBFypGVqnoHsAxK/OAgD5ljPH7QaQViq0K4bIAAAASbkDoDRcmmow9puj79AOp5asW/W32O9PKrh7Q4FuvUmZlNNdJ+CpFP5fiPS9+WZ1YsWa1BoeHFRYfJD72ji3NORJpbQr0hTLViegHRo0x/2/aGWV8FeYhIZZ8laJzavfu3WPVarXkYo09CmleTxeglIzJTBQnJ2PTdhUIm98Hp6amRky0F5hYqhMBAEBaECj2AmEiEKp21aK/DbxlUAM3rVR2TfiHt8e37dMTT/ySOjG87lqF5bF33KvxjfcRJAL9xOoxvYfqRKRboVDIaS646Qd5//dS+RJvTz75pF9MuHBjwocbmquW8hWmPXi/mC27f8psE4DbEcplv4i6OvFosXi0LAAAgBQgUOy28VM5UyNMBKJS+1G1eTNDGa1460plVg+GVrX4lfVbOqpSzA4NadUN16vXStet196f2sEciUD/Kes9d1LJhD5Qz/fXzA6+GlPjQuy1KhYr7lYSgJ6rVqt+EWWgaI3JFgUAAJASzKHYTT5MrBImAnHgqxZn/v58c67Fmb87p8Z0Q2HwVYpBrV5/s3rJB4nb3/eQtt/3EGEi0I8yBA7oD0aZ7k1snABGpq/+XgBYqtnZWSM1Ip0g3lp7VAAAAClBhWK3tMNEE2lvfgCX0W6H6udZHLhhhbsNqVcurVL8RvYqfTe7Uq9lBnTeZF+/33WNqn6idl631S80P+9ldaIPEg9u3KbS9ZG+lwYQrQndeyfzaCH1CoXCqBu+jbS9XQRGCoX788Xi50oCAFzEyGxSRPxcpsVisSIAAICUIFDsBsJEIBHqZ2rN2+x3pnvaDvX3tvzf9f3v/b3++9BbXIi4+M/fOntaH1nX/XkMy6vW6JG7f1bFm28TgH5XPSigDxg19vt/+41R9oBoowkAF6nX6z7Uy0X3qmD/TAAAAClCoNip8VMjLkycJEwEkqPdDtUbuH6FBt96VVeCxYGZc7plqihNTepPVl635O/70oo1+tIp6Wd0Qb90w5DWrejssfggcXzjNh1ZH9nFuADipGEP6r2bywL6gtmm/jRaKBRGqIQBgDesaLj3fYpsrMZlmY2SAAAAUoRAsUOm1jgsY/qtrRKQGvPbofpgMbsm2GFx5Znv6+4//jWtPPt9BfXfTs3qr8/V9PBNK7Vl9aCWqzI4pIMb8zr0jnsEAC1lvfeucQF9oFD40JiiGzh2I8f2iJHZo2iMSPUxtzwkAIDGx8c1NTU1Em3N+sCUAAAAUqT7vf76SOY3Th1wkWJBABLPt0Kdfv6szv/VadVenVnW93YjTGz7/mxD/+rF8/rs95f+GOaCxG3a8HMfJ0wEcAm7V0CfMMpEFeZ55WLx6TG3jGzw2P39OwUAaHr++ef9IqfoVKgaBwAAaUOgGJAPE63suACkSrsdqg8Wq9+5oMZ0Y8H7dzNMnO8/vDqt/3aquuB95geJ4xvvc593fx5GAIk2oa13lQT0gUKhkHOLvCJiWvMXWpmjik6+ULg/LwCAhoeH/WJEEbERXmACAADQK7Q8DeKTrxUIE4F088Hi7HemJXdbaJ7FXoSJbZ955YLuGs6+aU5FHyQ+9o4tzWpEQkQAV1CWqgcF9I8xRagh81jrQ99y9IAik/HdU0oCgD63YsVr7l8zEt119Pa0AAAAUoYKxeUaP5Uz2cxhAegbfo7FC187rZm/O6f66drrX1//5c/2LEz0ztWtHv3uhdc/L69ao/13f5CKRACLy2hcWzeXBfQJIxtxu9NisxKl1d6upIj4ORwLhUJkFTkAEBenTl3lF1EeD8sCAABIGSoUl8OHiVV7zL1T50060Id8sOhv2dUDuuaa07plalK99tfnavoTe7X++KferyPrNwkAlmBC9955RECfcAFaXrI5RcTKjF/y+UEXcOYVjRFj6tvcMsrWqwAQuRUrVqharY40m49GgwpFAACQOlQoLoOpNR51YWJOAPpa/UxNI1/7PzUwc05h+H//eCVhIoClKtPqFP3GqDGmaD0z/5NisVhyi4qiYjP7BQB97tw5/16tsUbRcCmmLQsAACBlCBSXKPMbpw644YqCAMDJff8LCsu15f+hgekLAoBF0eoUfaZQKOTcOXpk7U6t7FEXIJYv8/Uoq4TztD0FgGgZM3BKAAAAKUOguBSffK3gBgXGBQDOVTM/0FWzP1CYbp36SwHAImh1ij5UzytCxmSvMLd6pqhINahSBIAIWVul5SkAAEgdAsXF+HkTM5lHBQAtqy+8qLCt/t7LAoAFlGl1in5klNmn6JQnJycvO1dhq+1pSRExMlGuFwAAAABAChEoLsJU7STzJgKY75rz4QeKV53+kQDgyuxeWp2i38y1O9WoImIWCQytzFFFZ6RQuD8vAAAAAAC6hEBxAc15E010gxQA4mmwfl5hW1UhUARwBQ17UFvvKgnoM0aNcUWoIbNYVfCEu1UUmQzzvwMAAAAAuoZA8Ur+l1N55k0EEBezK68SAFxGWe+9a1xAXzLbFBErlYrFYnmh+7j/r5ho257uKRQKIwIAAAAAoAsIFC/Hz5soe1gAcBnV7CqFrUagCOBS1lbcEWm7gD5UKHxozC1yioyZWMq9GjKPKTouTKyPCQAAAACALiBQvIxMtT7OvIkAruTC0PUKW3WIQBHAJbJmP/Mmol8ZZfYoWs8s5U7FYrGkCNueuvW0UwAAAAAAdAGB4qV+/bUxayIfoAAQYz+6ZqPC9qPcPxAAvM7Pm3jvnUcE9KFCoZBzi7wiYqSJxdqdzmejrVLMu/XFnPAAAAAAgI4RKM7nW52azAEBwAIurLhetZDbnn7/9jsEAC1TzJuIPldQhBqqLzfMn1CkGpGuLwAAAABAOhAozmNq9jCtTgEsxcl1/1hhOX3jzbow8hYBgFOWqrsE9DEju0/RKReLnyst5xta1YwlRcTIRLm+AAAAAAApQaDYkvmNU/6Ndl4AsJjhH+rb//icalcZheGV7T+rTDYrAFDdhYnMm4g+VigU8m6RU0SsbKBWw1bmqKIzUijcnxcAAAAAAB0gUPTGT+Xc4MC4AGAhLkjMbPl3yu78lOp3fFkv3rdSvTZz7XU6lf9HWrNunYZHRpQdGBCAPmX1iP7h5ikBfcyoMaZIZSYUzIS7VRQRoyzTOgAAAAAAOkKg6GSq9XG3GBEAXM4N31TmA4eaQaJ5+7Ovf/nF+4Z0YW1vD6PP/8vffP3jFatWafUNN+iaa69tfgygjzTsQb3nzkMC+lihUHDn62aPImKlUqt96bK576sErW7skvzc+gMAAAAAIBgCxV9/bcyaTGQDEwBirB0k/sxjMuv+7k3/7Vue/uUvX9Oz1qflB/8nzVx7/Zu+PjA01KxW9FWLBItAXyjpvXeNC+h79YIiZSbUkUxRkWrsFwAAAAAAAfV3oDh+KmdMhvY/AC62SJA434W3ZPTV/0f3Q8XvfOjDeuUD/3jB+/h5FdvB4qrVq5lnEUinslZWdwmAjCK9CLBSLBY7qjB031+yfp+OiJHZJgAAAAAAAurrybh8q1NrMjkBgNeaI3GxEPFSZ2/J6kv/crV+6n87q6tONdSJ2qpV+u79i4eJ8/kgcejqq5u32fPndeHsWTXqdQFIvLJU3a7NmyObdw2Ii0KhkJNsXhExLg9UVxgXStqoLmjMFwr354vFz5UEAAAQI+Pj45qamvLt2d2tPjq3NDl3DjZiZNb4z+3cdFXt21KU/T9mbh7rSkP2Rbc8pebSuq8NlIO2sweAftW/geL4qZytWVqdApgLEu/6/EXzIy6Xr1T07U//wX++oJu/OqsgTv/ERv2PsX9+2TanS+VboPpbbWZGMxcuNANGAAlk3RtcU9uurZvLAuAGghrjzeGgiDRU79b8h34u1Ag7pGR829iSAAAAIjAvOMz54NCFhf62/sTUcbf0X/MubqhnFVhu/veb188lzes/eVdhp/9gyn2l7ALHE+5rU1LWB41TAgC8Sd8GiqZqj0U4JgEgDgbPK/OTf9xRkDifDxW//ovD+vttg3r70z/WurL7FbOLH2h+eJPVS4WHdG506VWJi/HzLPrbVddc06xY9AEjVYtAghjtIkwE5ou0XWe5W1V9bnCq4gauSu7DvCLgBtL2FAqFcf84BAAA0GOtADHnwsO8Dw9dcLjNjZKMzv3vXHDYQWDYLaPuMfhgszAXNjaDRn+u5EJFe8KqUXSjLFOcPwFAnwaKmd84tc/K5gSgP7kg0dx+TJnbS82Pu+2cZvXcNnc66oY+3/KK1bUvG63+oTvgtgoXayuk89dIZ661+v569/mQ+7+rvqpr1L1Asa09z6JtNFSdnqYdKpAIjb3aendJAJoKhft9VV1OEbEy4+oi9/MOmujat/o2Yn59TgiReWNwtbEz4wZX1QVzbdwapX5oaftGdUtjTzfWnxsbOO3O3I+7M+dn4t767o1tp5bzrQDnvjq3dOtivTrU7XUx/7lyQ/QbWm0LQ2L98bYr+1cAxih74IHCTrpiXWI2DtERempeBaIL6BoFFyDunKs8zChh/N+Qd7uzC0Kz+1ohY8kdWZ5xf0uRCsbl6/brd6NZTZo5Stva7nvjuarn3T4wGuQco3VOcbJ1TsH+0mXdPseae76a7yUWneqj/2r0xk/lWtWJOQHoLz0OEj1brav+98EuWrv6tk9p8Jp3qdd8teL0uXPNgBFAzDTsQb33rnEBeJ0bkJ10b0YLiogbkN7QzYGKQqEw4gJF9+Z6yfP/dFtpsnh0uxC61ht/94bf/oF6V6V60qr+0TQGi+31l5H93V4dE9wAyUTDhf5RD07u3r1b1Wp1dH47QDtX0ZNTSNx2+uhTxac/oQBaz9VaFyY86n4SoRriwLqBUnds/JMJoevmh4juGL2ndYyO6jwnLGX3mlHybfGZn3ph7e0jo8YBd169X13mnodJ99r9CYLFzs17rva1nqtu7ccnZezBycmnuzWNRN8K4f2Eey9h3r/Q/tR3gWLmf3ltwpoMJ7RAnzG3uSDx7s/3LEhsq7/8Y9nTMwpiwIWJ17hQMSy+UpF2qECMECYCb+LCt1wrfIuElT1aLD7d9eCiUNhxyAUE+xQR9yZxLW27wjXvzf8X1ftQyGZMZu8fT06mZtAm5PW36EBKt42NjalSqeTdAN4297vzmgsP4zAYf8w9ngeWc7wI+bkClopAsQfaxy5fidi6eCDtIeKVuHDRTjSUOUKodbEQXxNOtl6vqIQLaN5z9ZReb0vcVdb97INPFZ8+KATSuuBsc2t/6uXx9pRV/YErXSyRVT8ZP5Vzm+5hAegb5tYTym7//8qs/yt3xKuql3x1YuOVcwqqMfuDZqiYHbpeYTCZjFasXKmVV1+tbDarRq3WbI0KIAKEicBl3X77Owtz89lEJfNvXnjhhRPqsttv3zht3DicImNnXnjhGyUhFBEELMaF4Tvd/vPMCy98s6wUeMtb3uJWX+NrCmf9rXX7p1t/G4+4/b8nLT38NjHi3H777VvedfttB6anpyfc7/znmgsTc+62UvHgtlvd644XSwqn36hMtH8hwkTEjj3qjomEDR164/j1E/9sZnr637hjxLg7dm1RfI5bURiZa42q/e+6/fbR225/pzvP+uYLQpiv3/61+5/dsfFd5b/twbl72l1yrnq7esM9RWabO+/R377wjWeEZfHP0csvv+yfo8+7T29Ub11llPHnwr9/uXPhvgoUzT/8tUlxUgv0hxu+qcyWf6fMHf9VWnFBYbCvXZC9UFMnfKg4dN02hS07OKih4WENrljRnPGjXu1t+ApgHsJE4Io23r7Rn79HdbV7uVg8ulc94N6YlTfefnteEb038S0UXUDwb4VQ3HTTTaZem320FRaFxZ3RZbb1MhQLi78au16f3WvCbZ25thfBu6/myeVy+e9/7+X9blTt8FyI2KwCiPNAfM4FB6fd4Pizi95xZESz0v9LEbapBq6MQLET7SDx1e+9/Gvu0//YuuArJ1zqdvf6+wvuPG/Pxo23VdzrSN+GWw8/fL9+/OPGLret/DOFw19Q5c99/rM79/mesGQ33rjanauql2FiWzNUXOp5Bd6wdu1ak5lrc7pF4bjqSufCiZsRN7Bff21MvZunAkBcDP9QmQ8cUvZnHpNZ93cKU+PsrDpVO/s3qrpbVAaGhjTsBgLWrFvXXGay/VXIDoSOMBG4okKhkFeEA1V+Xhz1kJU5quiMFAr354VQ1Gr+gjOzU+HLSfUxJVw2O+PD0Y8rZG4A9ON+zlN1gQ8S/THtdOXUMSN7THMtj5PSGnDJ6/9MJuMHc5liBkgRHyT6Y+FzU1874NvQu/OXcfVva9Pl2CBrJnYVdn5r164dfXlcPHv2Gvf6Efr5j6+S/11hyfyFW9PTdky9aXN6Of684lPdOsfqB/45staO2pAv2HL770OX+3rfBIrGZA4IQHoNnpf5yT9SduenQg8SvUZlRqp2p13o9Mt/pKj5IHHFqlXNYPGaa69tfgygywgTgQUZNcYUoYZMr+f3mHC3yOYxzCgb2RyO/aQ110lU8+GZjDJ3K8H8QPb0dMavu7AGueZzv7fW0e9tBYnbXZB4ci5ITOxFzjk/p+1Cd/DPVaPR8M/VgvcDkAwEiV3Tt8Fi64Kq9QpfnrBq6er1ejPgU7hG0nDRW1hW+G5y0ZxD5i63L/VHoOirEw0ntUBambv+VNnCAWVuO6aoNF47r26JukrxUlQtAt2XGcgSJgILmHvjEklFV9tUsVgsq4fcz/dhYmSt1yyDLaEYHh72i8jWcyPh4U65XPaLKMLEFhPod19SkRjW3Jk9Vsst9L/RP1cAusUfw6ampra749dxgsSuaQaLDxR2PrXYBRppkc3O+EVE206d1ttL0LoYKKfwz1N8iLlDWJLZ2Vm3vmxs1lf6A8XxUzmqE4GUuuGbzYrEzF2fb1YoRqWb1YltcahSvBRVi0DnTMa4feeqg42f3jguAAtoDgJENnjlBs8OKQS291WQC+HKYGBhfp6fZR2H2hU9Zyo/ejThFYkA+lDrGLYhXRdDxIuVdrl1+60HCjtSP1ZtzLD7e20Uc0j6Dg33CYv6u79rdniLKnzl4sYl8MflarWaUzTnlFOti2AvkvpAMVPTHqoTgZSZN0+i/zhq9vSMui1uVYqXurRqMTswIAAL86H8qpE1R2Y3/YNxAViQUSbqllDPKATuDVpJEbY9des5yipQIFUuqejZLwBIkI985CP666mpfe4Y9jVxMUSvGV/56dugprlasVarufzUhnJOfSkbXUiWKNFXvlFJupjnn3/e/VvPKwJW9sXLfT3dgeL4qZy1zUlFAaSBnyfRtzeNaJ7Ey7HVuuz5qnohjlWKl2pXLa6+4Qatvv765se0RAXezO8XLnw/cu62W8cEYEGtgZW8ImKkiV63O53PDSg9pujkC4X78wLQkd27d5tWVSIVPQASpVWVuPb8uR8fa8j6Dg1UDIVnQ/qrFbNRtfcf4Rx3YRFXvnm+7elDwoIGBgbcejLbFL4rXhCQ6kAxU62PU50IpIN5+7Nz8yT69qYx0vjBBfVK3KsUL5UdHLyoanFgbtJgoO/5oP3q6649cvYnbhoTgEUZNcYVoYbqRxSuoiKV4cpgIKD2QHytOvtFqhIBJM28ymqqEqPTrlb8YtqqFZ988kkNDg76QDGKbhxGdOJYUJSVb/OM0vZ0YbVazf1rItqWs6XLfTW9gaKvTjSRt0oC0Kkbvtlsb5rZ8u8inSfxcprViT1odzpfEqoUL8cHKNdcd93r4SJVi+hXK6+5RlevXnPkzNtvGBOAJYrkCsy2crH4uZJCVCwW/UBLSRExMrxnAgLwYaIbiN/AQDyAJPItTs9WKvuprI4NH+z6UHFUKWNlw75Yr8lE+54iCeJQIejCxFrqtvlu8Rd9VKvVvKKpHC+33qe+SWoDxWZ1IoDk8u1Nf/KPmvMkxqW96aXsj6bVa0mrUrxUuyWqDxZpiYp+4rfza669VquGrz7yow3XjgnAkhQK9/tquZwi4gY8jioCViaS39tCSyhgmeaFiQzEA0gc36b5wrmzjzZkHxXipHmRSqHwodRUvA8PD1v37jiq89zRNM9R2YkYtDttMxllaXt6BefOnTNSI5LqRLPABa/pDBSpTgQS7fX2prcdU5w1zs4qDEmtUrzU/JaoV69d2wwXgTTy7X59he7A0NAUYSKwPCby9puZQ4rGhKJpB9VklP2UACwJYSKApKJNcyL4qrHfTcu8irlczi+ianvq1GntfxkxaXfa5BJnnqMryGZnoqq0tQ3Vn7jSf6YyUKQ6EUio4R/Gtr3ppRqVGanaUBh8leLMa88oTQavuqoZLo7ceCPzLSJVVq1Z0wwTM9nslG2Y7QKwZHNXEEfXftO9mS0Vi8WyIuB+byWqdlAteeYvARZHmAggqS45fuWFOPPzKh5IQ6jot7vBwUEfJk4pfD6c3SG8Sa1WM5n4rBu6pVyG33empzM592EULWErC00Dkr5AkepEIHl8e9O7/lTZf/JvYtve9FKN18INPNNSpXgpk8m8ab5FwkUkkW9x6tv6Dg0P+0+bYWJlw9rIqo2AZIr6KlkzoUhlioqOb6dDpQKwAMJEAEl1yfGL+cqSwYeK4w8Udv6Bks9aNZ5QNEa5aO5i/nhgrR2JUWWgex+SiaStZ5xFWUXqnpAF35emLlCkOhFImBu+2QwSM3d9PvZViW32fDW06sS2xuwPNP39LyjN2vMtEi4iaXyI6MNE39ZXhIlAYEaZKK/C9vtslPMY+irFkiJte2q4ghtYwAsvfM24wfinRJgIIEG4GCLZXOizN+mh4h133OH+zUZ14ZwLE2uE6PO8/PJfKi7tTttMhF1qYsxX2EYxv6S1ZuF5T9MVKFKdCCSHr0r8yT9S9mcea7Y6TZJmu9MI+CpFWz+nfnBpuLhq9WplBwYExIkPvH2Q6Nuc+mpbESYCgRUKhbwiHOQyzTyvGPm+a2UeU3RGaTcEXN5YoaDZ6eZFDwxKAkgMwsR0SHqoOK/taUnho/rtEmfPXuOCKhO3dULb00tkq1W/yCsC1toF591KVaBIdSKQDObWE3NVibcdU9LYal32dDSBog8T016leDk+XBy6+mqtvuEGKhcRCyZjXp8rsVWV6JVdmLiLMBEIxqgxpgg1VI9y/sL5Dik6DLgAl7F7925VVN9rZRM/l1UvnTvXvPCR8yAgJlph4lrCxHRwoeJYkudUXLFihbUyTysCVL9drFaruX9jFyjyPmSehx++X9OqR9KS1h1rSotdaJueQNFXJyqzTQDia/C8Mvd9pnlLWlViW+MHFxSlGRco9kuV4uXQFhVR8+1N19ywrj1XYlu5VZlYFoCAIn1TW15o0vkwtd68lRQRP+DCPDPAxarV6gajzKeEBc21tCNQBOKi1aaZMDE9/JyKB5IaKr7zne/0i8janrrzWzoMOGNjY/68Jq9mK9h4iWHVZGQirCK1xmQWvdA2PYFitVFwW15OAGLJ3HZM2cKBZnVikjXnT4zy9/dpleLlXC5cHFy5slk9BnSbD66vufba+e1N2wgTgQ4VCh8aU4Rvat3gzLhiJOK2p+55qI8JwOuMGn7wNicsqNXSrixCRSByu3fvNrPT+l3RpjltmqHih3ftSlzFnX+NyGQyZevePyt8bpCoEUm1V9zMzMy4oKoR1+0nR9vTOe55cv+aSArnFmt36qVmQiqX2u4TgPgZ/qEyW/6dzLq/U9I1506sNhQ1X6U4dO02ZYauF+a0w0V/82ruxXfmwoXmslGvCwjKB4lXXXONBoaGLvffhIlAFxhFPgf6om+aQlbS3IB8FCGrG2TI7FC0rVeB2Gi1ScsJzsCSgkIre4TxGSA6fs7XM9XqARc87Ve6VFwYVXHJUNm0QqmG7Gm9+SKGkYzMGr+0c7ecSddx3DRs43ChUDhRLBanlCBZN27TaNSOKoLXCPe6dJ8QaVC1BL7taV4RdmuJA99qv1qtjkZ03Jpyx5XyYndKR6D466+NUZ0IxI+vSszc/flmq9M0sD+Ktt1pm69SPP+dI7r6Hf9P4fJ8+NMOgOrVajNYnJ2eVm12VsBSLBIkeoSJQBe4wZCce2XLKyKtOSLKihHf9rRQ2BHlgHzePy9xWy9ARHJC0xIHrt1h1bfKsgSKQAT8vFuvvlrfZZRJ9Jyvvoot487RGjL+uOPbXJU7OS9pD9CreUxvjLrAcZP7HXnFsO3jEvl2tk+587X3J+l8bXh42FYq1aMRvUb489uRxeaGSzPf7rRSqeTjHLC79z/+wsZx9bEVbiyq1ZY2dFaLVyd6qQgUjUn2CyWQOn6uxK3/PvHtTefzrU7tTHwq3aqVv1T17N9o8Jp3CQvLDg42b0NXX92sVvThYtUFi1Qv4nKWECR6hIlA1zT2Ny9GjYyZUCxlihEOyPu2UGPq8zfzAN7gDgoTS7nfk08+qY985CPHz5079wk32P27AhAa31JyampqQ0L3PV95WGyo4Qazs8Vuhz7+2ORMtW7NefzmhYzb3Drz7TDzShb/XD/llu9WQkxMTPj1XqpVZyPqxFH3z/OE+tQb7U5jPU3QaL9f2Dg7O+svGNih8Fn3HvDoUu6Y/DkUf+M15k4EYsSHiGmYK/FSzXanMTP98h8Jy9NujernW/TzLq6+/nqtWr26GSKhv7XnSPRzchImAuGJaLL5Nn+1+6KTzkfBPa6SImz3456XjwsA5pxqyPzWUu/82c9+1s+l+KiV2ato5soC+tJzzz3nB6G/qARVVvtOEe5Ysd3dNjxVPLq3WPyTibAqyHzI6Cuv3e2xTaObm48hgcetzQ8UdiQqQB4YGPBVUEsKLbrMZJTp67anMW932ta+sLEv+QtDqtVqTtFc4ODeG3+utJQ7Jr5C0ShDKw0gDgbPy9z9eWVuO6a0sdW67On4BYq1s39DlWKH5lcv2kaj2R612RrVnWjVazUh3UzGaMVVqzTkQma/HSwBYSLQRYVCIe9eZXOKiIn5/BxuUOsZE1072JFC4f78Ut9UAkitU+5Y9NHlVgq0qoEmdu/ePeEGxsYysjtbc5n5ipTQqlJMyL9vPkuYekUpm88uFprzJjYavntbTvFXcceVx9zyUFzaT/pBfM3tsxNjY2MTc20hrV+fecWcnyvTnbM9nZRztqGhIXvhwgXfGjv0OdTdcdlXKH5UfSjiefmWpZ/nu3z++efdv/V8FDWAy3lvnOxAcfxUTrXo5lwB0HLDN5Xd+u+l4R8qjey5+AZL50/+/7T6jn8jkx0WOmMymYvmXvTtUOuzs5r14aJbEjCmh69GXLFyZbNa1T/vS0SYCHSZaV59Gl3LncbcYFacHXK3qKZ2MEbZTynmoSuAnjrpBqofWOLciZfVDhYVQYu5ggtY/q/27jY4ruu+8/z/3AZAUrBC0JTlGU9m1XQV1zND2YLk3arJi5Wa2tjjZGWpqRhTk3WtBepF9tXYkt8ktXFZoJw4marEpuaNtvwiainr2BXJBsSyrcTKhvDuG9fGFUHeUFuOnGHLTrRl6wEtUwABdPc9c06jm2qSeOiHe885997vp4xuioJFoh9u33t+5///a4kXzMKkj+OoWbdun2ZTxvX+Q7WqNkXHgsR056Kd7AZgIQsuSNyJbctpLJuQcbnbQvZPJOxg0Z6z/Yk55t2RhfmA5XLZtua1nys+2p4WecOcrfwLvd1pT2HnXU5MTKhW00sVqdYqGrhyONOBYtRsL5gfVgD4oz78TC6rEvvFr69LqOKt12TjZ8/Jofd9QpAs2x41OnRIJs2X1QsYe/MXCRizpVeNaIPEfVqa7oQwEUiYnY3hY2dyn5VxFsldsBfRp6r3LYu/RazZol7MA4Eyi/HSez/aeWOpvDfNf7ceS/tZs+C6JACC1p2beKQbegXLHFeeiEV9NkvnFN2qxYtzc3MnbaV1N7AtS5iORRLbjWCflcDZx9U8po1Wc8ueh1fELfNSjOy4hWUpmLZZz/I8amJI7XnZ3lxZKK3OOqOf52lxcbEAgeLCalm3vC5CAMU2/YaU7vyKyJF/lDzT602RZtgbKDdNoHjwvb9GlWLKrg0Yey1S3wkYm+b3tCAcY4aIPQ3CRCANflq59GhRmbhANX/PMz7bnhb1Yh7wyZxNrpij44pZfLeLra+Yr04lB+E+gGtduHBB2SDJnC+UJUy20vnBxe3Z0JnUq7SuVqs1c78QaiVollqfTk1NaRPSnvNxjqvCnyGYuO7Gg3KG2k0rJdG9UrBrkG61eUV5aNU+7FzT7Jb3bdlFCAA+qA+cl9Kv/2Huw0QrboQ3O/Faur0ml//pGYFbvRaph268UW686SaZ+Wf/XH7pPe+R6ZmZTivN0kTmxxRnkg1+D0xPy41Hj3aekxsOHyZMBAIUwBz070kGLG0vwPkKEXoX8wBSZGftmYWcx8xi8EnzdWRp6dnbv7n07Gnz/n9saVudMBHAtWxIYEKZsg2SJEDmuHbW/N3uWMpwmNjP/BwyMzOzYH6muyXMGam91qde5sYO4/jx4/auJn7MbndKKY6XX37Z3lUlWypZeC0naW1tzbal9VGdqJUqDdWVIrOBolJR6L3BgfyZXBf1K38q0Yef6fw673SzLfqt8ANFa/Pnz0nz0ksCv0qTk50w0YaKv3TzzSbQ+medYOuGX/olmTx4kJAxBbYK0c5EtI/xYfOYH37ve8cNEXt6YWLQLRGBLDIXh7PmblY8MVdqNbtALxmh/c56rNhZMwIgaY1eiGgCxGNLS+cesovuBIcABvXDH/7QBEj6ryU82hzbHjbHtYfzdkyz8xVnZ2fPd0PFEK8Tj5lAIsiAuZ8NwycnJ+1rY1m8aGctXBtLu33JHis+JZnT6ZRSGKXSprcKWq31UJttsxkofu71qnmEywLAnSP/2KlKjI59X4oiK2Fiz8arVCmGplfFeOBd75J3vfvdnZDxyPvedyVktJV0NgyzoRgG0wsQO5Wh5nE8fPN7OxWi9jGOkgtsCROBFCnPCx1aRVmbC7Ys/vRmzQBIRsO2MjZfV0JEAYAhzc3NSRw35yW8Foar3arE3LYqtGGY+fkuHjx0wx1a9JMSGBNIfDoLFXjNZtMGzz46hhSqA4d9vW5sRGXxuJlzRDxPjmhzrTnsZttMBorm4MjsRMChTovTX/uDztzEIslCu9N+rUsvyVbjbwTh64WMtpKu1y61v5qRoPEdtqpz6tChzuNiW8rax8o+ZgdNoGgfRxvaJowwEUid19kl9WEGzoegGzgsiyf22qtoLYeAFPQFiUsLVCICGEe73baL7Z+XsFzshomFuI762te+Ztbho3l7bJewHIlEf0kCNzk5ae98nZPPFuXc9sKFC7I9uz6TeJ7SZ45j8TkZUvYCxYXVsrmsLVRpMuDN5LpEd35lu8VpwehLWyLNWLLm8k+e6sxURPb0VzNeGzTaIO1dR450QjQbrtmwMW/tU+3sQ9sW1oapN9iWseZnttWctqpz2vzs9nEpbV90pIowEUhXtfrxefG4m175rfYbmVms8hmCzijV9hkCA5nWnSNGkAggEfNVsyQax3YMVFnCYcPEu7PUUj4Jdq6isRBaqKg7EwbCbln/9NNPSxRFK9rPPEoTUrWyVrE3Krv5IIPtTjtmCtSe1uPzVFqWIWUuUIya7QUBkL5ui1P1yy9KEcU2UMygeOs12fjZc4L8sEGjDdImTZBo23zacM2Gjb32qXZuoK1stIGjreK7NnS0QZ3/n0FdCQzt383+HW1oaP/Oh3s/x3vf22kLa8PUAzfc4CQ8vJaO49OEiUC6zNHAa6eROLxd5IOqmS9fQYQSHX1GAAxrdXtGYv7miAHww7bFMweTY1p0SJ3bChkm9thQ8dChQ2cCa39qwolSaBWs1yl11iq0j01zhWjpb48XzWazbH5ZkWxSkUR3Ss51nydbiVkR9+qjVJVnrrxBS8TuWCBltsVp9KHvdCoUi0g325mbn9hv0wSKB47eJdGB9wjyz84NHHR2YNxq2WHLNjjr/HO73d7+/e59//ftxwad/e1Ge8FlZC5d7O9f+eeMVFJuh4k31QRAarbnueiKeDLKfIhQ2DCiWr33WY+jHyq25RChCDCwF8wC+/1FXWAHkI76yoqtDHlAh1OduFrkMLHHtj+dm5s73Wpu3SLhhDcVW6W4tPStZQnU9PS0bjSaJlDUzjeudc+pH5Yce6eNZiYn3nVsV9tWP5vna5BXX/2BuVUVH8/TqN17svWK+tzrVfOTlgVAOkyAqD78zHaL04KGiZZe2z9MCZltebpWf1yAa9lwz1b+2daqnfaqN9zQ+bKVj/1ftgpyvy9bSdj//+n9t2wlpf1vDxN0+kaYCDgzL16pmmRaVBN/zPVm/JAA2JcWXWOBHUAafhFFKqDqRG2OdQ9yrNt24sQJ+3jcL35aeO4k+CrFWq1mZykui58uHDOht4VNQJbbnfbkvj3tpUs32m35PipmdSztp2QEmQoUPe7IBfJv+g0p/epjEn3gvBRd/Hr2w9TWpZekab4A7I0wEXBH+V0AswsVPucQjs0s2C2Lv7an9los6wsSQOrMQv+ZpaVzp6nmBZC0ubk5iePmvARSnWiOd48udYcIYrtt4ezsbKdiUzyer12jst0hJFwTExP2teSr7WlFcspzG80k5b497eam7ZCnfHTkbIxawZydQHFhtWwe3KIM4gTcuvnvO/MS7dzEotPrTZFmLHmwfvHxTrUigJ3pWD9MmAi4YRYzKuJxAUx18rjsL/CbRarHxJ9yAXZyAyPrhokLAgApaLfbttooiIozc161yPHuejbEmZyctDMlPythsB0mgp6D3Wq1tPkE/Z54oETldj5ft91pLnKUPBeYbW8UiW0FZlkcs9fHMqLsBIpbtucvgKTZeYm2MrHILU77xY3szk68Vrz1mmz87DkBcD0V6zONY0fPCgAnlMTz4lEs7SclH3wet3K/QxgYlQkTz7K4DiAtv/Vb99jqRBsOlMW/i3E4gVlwnn76aRsq1szngs9NYFfYMMbOwZZAnThxwtyWbLDhY+NfJeTHZhwmqFWRRPdKPuS2Pe3U1JS9q4h7Wqto5CA/M4GiUtEjAiA5dl7ir/zp9rxEdOhmW/Rb+QkUrY1Xn5F48zUB8A4bJr557OiCAHBiu9WS152l9VHbuYSmW2W5LJ6EvigFePKCCRMfFgBIyWuvTdpwIITW41pUdIa5iXuz8xTNkvsZCaP1qTlva89LoLpVnfZxWhEv8lHFd63tVrKZb3fak9tNjVtbW0qJ9hL8aj16q+FsBIq/u1oxL52yAEhGb17ise8L3qHXWpJHa/XHBcA2wkTAB7+dRrTEQewQT4r5eXxWWwa9KAV4YFvb3S8AkBIbuJiF37IJB7wHH+bvsLK4uJiXrg+psc/ZzTffbOcpPij+2Va5QYcxU1NT2jxW58Q9G9Tnru2prWhuNjfs8SI3mwDz2Pa0O+eyLB6CX3MsXx5nHEgmAsWIi1YgOUf+cbvFKfMSr5O36sSe1qWXaH0KCGEi4ItZxPA8u6U08nyIMHlrC2XZRam8tE8CxmUXQO+nUgdAmrqz0Crin1mDZgPFoL7yla/Yyjt7zrYs/lVCbhl5/Phxe1cTD0II6pN26dKN5nxd5a2iL3dtTz0e27VS0VgbQzIRKGqJ7hIAY1PHvr8dJk6/Ibhap93pelPyyrY+1e01AYqKMBHwY7vdqcyKJ93dl3XJEbubVIv2WR1g5814e06BUJj34aPm/eipRRuAoiiVNu1mnk+LZ8oEPmygGM709LTdePKoBCGqSKD62p4ui3u5C6o2N22xhMpblqJCfg2PwuecS631yPMTrfADxf/t9XnanQLjUx/8jkS/8qed2Ym4XvzaZckzGyau/+QpAYqIMBHwR0m8IF6pmuRS5LPq0lzQx7mcNwMM4eLS0rkFAYAUzc3NycZGZDfx+N7Io+NggrHsqNVqNihblgCqFJUo76H0XprNpg1fxwo5RpSr+Xzz8/MSx3HF/LIsbjjrmmJewyHMkU2MxzmXK+NuDgk+UFRR7kp0AeeUCRKjD35bsLs8Vyf2bL3xPWleekmAIiFMBHzzuju2bi6Wcjnnx/xcy+bOW2VU6ItSQMrMmmd0RgAgZSZkMbex93VRqhNHF1CVYtCVeDMznXF/PgJFyVN70M1NW9EcO5s32O2a4ipULOelS4oNfs3xvSIe5lya52zs91nYgeLCatm8rdn9Coxqcl2i//GsRMe+L9hdJ0xsxlIE6xcfp/UpCoMwEfCrWv34vIi/TiMqjJk1qTGLU8+KP7lrDwUMob64uJjLzQoAwnLwYBzCLDSqE8cQUJVi0JV4fY+Tjznh5e6Yhsxz3O5Um9dUzeEohtx0SVlbW1OeNouY5ywe+xoy7EBxK4ihw0A2Tb8hpV//Q1HvfVmwt7ixKUURb70ml//pGQHyjjAR8E9J5Gx37E7M4tdjkm9nxR+zwFn6vADFQ3UiACfsXLmNjagsntud5nEetWuhVClmoRLP35zwduaDKg/tTuszMzMrJl5ytsnRvIbvlBwolTbtz+Kjk099aelbyzKmoANFFfldhAAyy4aJv/pY5x5708226LeKEyhamz9/jtanyDXCRMC/7i7fivhj2516awnqgvn57A7uZfGnYp5n5216AM+oTgTgxIULF8yt90ILrVTEMW9Mnqvv+gVdiWeDV5fhVB+lJLpXMs511ZsJf5/18NquZL2a1OdmkaQ6+IQbKHbanXpdhACy6cg/dioTCRMHo9daUkS29SmQRyZMfJIwEQiB3wUwLWpBCsD8nD4rpeyixUMCFAfViQCcabVaKvIfcrCJIiHNZtNWKQbQPSPcSrxyuWzv7IZAH8HrbNY3yrXbbZdVqFdaZ05MTHTCRXEm29WkHjeLaK2SCezDDRRpdwoMTR37vpR+7Q86sxMxmKJVJ/Z0Wp++SutT5Es3TJwXAN4piR4Rv8YeNp8FS0tLy+Jxt3te2g4Bg9JaF+LYAsC/7UV6v4UWeZ9H7dLsbKcYyXegaEPqD0mgbOXWoUOHGm7DqStMmNjy2l54HHNzc7bdqf37l8WNK60zDxw4YCtLnc1RzEE1qf0ZPiUeJHUeG2ygSLtTYDjqA+cl+pU/FQyu0+50vSlFtWECxfZ6XYA8IEwEwlGtVivi7mL2OnYRokizfvzNmumoVKv3VAQogKIdWwD4Y8OBZrNpwwGfFVM6lvZTgkTYsGxyctJ3u3obUgdd3dVqtcxf0cvmHZOfR8HPmNzN1NSUvauII/2bDTxUlmZ27II9Dphju/27V8Sx7nlsIs9RmIEi7U6BoagPfkeiD1NtNix9qbhhYs9andanyD7CRCAsSuJ58Uip0hNSKNGS+JPpxRdgCNocW3y+1wAUiOtwYBdXKpCQDPO82ran58SvmZBn0J04ccLc+vm8VaIyW9zUbl9SSrSrqrerNhv4qSxtz0sGvfrqD8RXu9Mkz2PDDBRpdwoMrBMmfvDbguHFb16Womuvv0LrU2QaYSIQlu3dol4vxu2sHx9tkrzptj1dFk/s4kvWZ84Ag6DdKQBX1tfXVSTaa1tx2p0m7/jx4/YugM0p4a67e67knMli5w37mG1sRGXzS1ctW6/bbOC4sjSzbU8vXbpROZxzeZUkz2ODDBRpdwoMhjBxdHqzJdKMBbQ+RaatvNn4yUMCICBtr22Uirr4pUX5DFFnfD/vgAMrtDsF4MqBA23bmrIs/mitIjZRJMwGP1EU1c1zWxd/zOmyuk0C5rGS03beqEjGvPzyy/bO2bn4TtdbfZWltD3dw+bmprlVd4l7iZ7Hhhco0u4UGAhh4njiNzYE73j7x38sur0mQIas6FidlNtvd3XCCmAASvxuDIxFnZFiqom7C/hr2V3CrlosAV6o7dlAAJC6brWRXSh3VW20I6qy01Eqlcyt9tpNQ/kJNAbms5LTPDZeK4NHsbW1ZduduqrY23G2al9lqcPzpWxtaLSzceM4tsf1sjimJU50Hm54gSLtToF9qV/5U8LEMel15if2i7dek8v/ROtTZEYnTGwcO0KYCASkO4+lIp5okeWiVhCZn7vhuTozk7uEgQFRqQPAmXq9bu+8honSaWlIVXZKbGvIF8WvsgTMhlMHD8Z18bOZJ1PntPaxajabZXF3DbbXbFWddHC1h8xtaPQ7G7e0LAkKLlCk3Smwt06YeOz7gtF1wkTanV5n8+fPSfPSSwIEjjARCJSSeEG8UjUpsFjUY+KPyTNjWlAjt7RuviIA4IAJB+yd3+pE/4FXbnVbQy6LXzPdjYDB2tiItL+W/tmpfLtw4YK4nIm51wbGvranrsxmKfx1XEnaz24QSTScDytQpN0psCfCxGTEjU3BztYvPk7rU4SMMBEImvf2SYWuIDIXisvir+2pbRH1aQFya4KWpwCcsIvOZtXiFvHHVtBRlZ2SQOYoilJhz1GcmenkRD5ehyqSKEttT11W6tmODbuGvH1tT5fFDfMiafmu5h6Ih0rSK9LoYhNWoEi7U2BXhInJod3p7mh9ioDVTZh4ijARCFO1eo/dyVsWT8yFUo3WXHYF0GuV4ox5HVQEyJ+GbSssAOCIEt9hj2YTRYq01nZB3utjrHXrmASsVqvZcGpZPGyWM2FvJioUPYRUjcXFxT2rRqempmxl6Tlxw4S/pUy0PXVdSdrHzrx8UhIWVKCoInWfALiO+uB3CBMTQrvT/dnWp1uNvxEgIPVuZWJdAATJXMx5HVuQxoVSRtXEH3tRT5Uickd7XvQFUCztdtsed8riFVXZaTKBolnk99pW1lbhfUgyQIv2cY6fiU1yHtqd7tvO9Pjx4/auJo5kJfxttVr2Peej3Wljj5mXIwtshqLKTI9iwJVOmPjBbwuSQbvTwaxf/N8l3nxNgAAQJgKBszNYPF/M1dO4UMqibpXmsnhiXgeVLM0yAQaj3xIAcGQqju3CfVn8oSo7ZZOTk+ZWe53NawLNIxK46elpc2oZ+ZijaN6CUfBFT45Dqj3bnfb4aHuahfB3YmKic50kjumU2leHEyh+7nXCROAahInJo93pYOwcxbX64wJ4RpgIZILfsQWedi4HS4vysfDSY8LE9rwAORKJWhUAcGBubk42RLzOBKMqO30nTpwwt6Vl8ch/W939lctle2dfj84DbvP4BB0o2uBOaz3jclOn+fMGCqdctz0NPfydn5+3rWkr0rlOckorVdq3qnQUwQSKkc5GiSrgCmFi8mh3OpzWpZdk42fPCeAJYSKQEUqiR8SrqCboVxMPCy9dSvlp5wOkJhb9EwEAB6anp+2d10p/s1BcF7jguwo0+I4SfdVuPkLusu3CIoF69dUfiMtNnVr0s4NWLrtue2rCX6+jN/aztrZmQs/YS+g5aAg8rGACRS3RXQKgQ33gPGFiCmh3OrzLP31SmiZYBBwjTAQywlxoV8RjWy4tstxt84kue7HvuWqzkoXWQwAAhGZq6nVz2/Ya9LCJIn02KIuiyJyveQ1vZ7LQpt5xtds12sEWP126dKNyWEU5VKUbbU+vVipt2tDTee6V5nVyGIHiwuqseWTLAkDUL78o0YefESSPdqejWb/4eKcFKuAIYSKQIUriefFK1QQ7iFJpbzMg23qoIgAAYChra4fNbaks/pg1aF0XpK5UKtkTprr4FXyg6LrarU/QXTdarZa5ddeWVWs91EgF2p5us+HqxkZUFvetrM2xPE7t8Q8jUGzGtDsFrCP/KNGv/B+C5NHudHTx1muydpF5inCCMBHIkO1dzV7nizSWlpaYn7gD87gs+9z1rkR9WgAAwFDW1uxG3viweEWg6MLExIRtI/mKeNUqS+A8VLv1mw2xitP1TL5updtQLXq7QbCzDY6hzry8cOGCuGxNe7VSao9/EIGiUop2p8D0G1K68ysik+uC5NHudDzNxg+Yp4i0ESYCmdNpA+TtIls5vEjNJuUzbA269RAAACE6dOiQOb2hg1sRbFeY+Z6jqMqSAR7bnprrnJbryrJ9bW5uKiWxq7mBWqlo6GuKbhBcF3dBcDnQaw9b6fopcW8lzbEg/gPFhdWyua0IUGQ2TPzVxzr3SAftTse38eoz0l6vC5ACwkQgg8zFkasL2R3F0qY6cW9nxR9z8Vz6vAAAgIFtbGyYhVrluUJxoi5InQ3JzLK85wrFbHBd7dYnyFaaJlA0t+6Ks7TW35MRNJtNGwSP9P8dQXAjF2yoah4Du/m2Io5p0ak+7v4DxS1fZZ9AODqViYSJqaHdaTLsHMW3f/zHzFNE0hqEiUD2VKvVsvjdFFhfWvrWsmBX3dZEy+JPJcQ2UQAAhGq7Dab3uXaeq+aKYWtry9y2fT/WmThPs8FMFEV1H+38lSivGyivZdudxnFcEUeVzN12p3UZwexsp7jT2QZQ81zdKQF59dUfiKd2p3Z+4lAzL4flPVCMFNWJKDb14Wc6sxORHtqdJod5ikgYYSKQUUriBfFIi1oQ7Ms8TmfEH2XOHB4SAACQGcPOSsNojhy5bO98PtbmPE1lZuNXqVQytzrVkGQXQbXxz0K70x4bBB88GNfNL1fEjUp302sQLl26UXma7Zj6xlvvgaKWiPmJKCz1we9I9IHzgnTR7jRZzFNEQnphoquTSwCJ8j4D3VX7nKyzx1hvi1XmIvpeAQAAAymVOpuhqe4vgK2tm8xtyXd467m97uCmp6dti1gfgWJQrTSz0u60Z2Mjsm1PHT5v7aoEwvVz1aMcdKjxGyj+7mrF/JRlAQpI/fKLEn3w24J06c0W7U5TcPmnT0rz0ksCjIgwEciwavUee6FWFk+06GfTHDKfJ7bKwDxePmdNzoa0qxsAgJBtbXlveUp1oiNra51RMl4fb//zOgdXq9VkcnJyWTw8ZqG00pybm7PtTm0f0bI4ME67056Zmc7hzNkcRSVREJsZXT9XfbRW6QfvnisUOw8sUDzTb0j04W8I0qd/sSVIx/rFxyXefE2AIREmAhlnLtS87vxUqvSEYAjRkvhjd3X7aPUDAACGR6DoyIkTJ+wdj/cQtmeMeml7GspccDtOIBPtTntsEBxF0bLD+ZdBPFdTU1P2riIejFtVOgivgaJSiotLFM/kupR+9bFOqIj06UsEimmx8xTf/oc/EmAYOm6fIkwEsmt7LoVydSG7k/ri4qKPhYTMWlpaWhYHrW92o8zrJZBFGAAAgJB4DRRjyVbXwAMHDti2p546b/hvpWlbIqsMtTvtiePYPG/K4fPWnhfPtra2lBLtvFqyW1Wa+nHFX6C4sGovKisCFIz60HcIEx3RzbbozbYgPe31V2T9Jz47qSFLdByfbhx7z7IAyLB2RTxSHoOxLHM7u+Q6MyFc2AMAAIRiYWFBDlKhOJRyuWzvfMwHV5FEXtue2tfLxkZUNr901e1xJakRE0Vre2qfq2azWRb3uVciVaWD8BcotvwuRgA+qA+cl8h8wQ291hKkb/Pnz8nGz54TYC/bYeJNNQGQaeYC7RHxKBZ1RjCKmvhbtApmngkAACErlUp28xQzFIEd2KBmcnLSvkaddzzSIl4rFF9++WV75+rvoLXET0lCPMy/9Nr29MKFC+JrE66LdqeWx5anqiJAkXTmJj4jcEe/tSlw4/JPn5T2el2AnRAmAvlgLswq4rc1UmI7ZYum2/rGZ7vpyna7XAAAsJtSs2nvvC2EawJFBG5qasqEXeqcuDdTrd5TEU/ct9AsJT6DXYt22fbUWwDcarVsRauPzZTOrpW9BYoue/4C3vXmJsKdtvmoWm8K3Hn7x38s8eZrAvQjTATyQ0k8Lx6ZxYOzgpFpv9WdSjy/fgAAAEKyFUU2xK2LJ56rYUdy/Phxe1cT98zDFd0nHnhooZl4MDU9PW3nX7oawWC7o3xKPJmYmLDv64o4ZlbBnQXtfgLFhdWyuOv5C3jH3ET3CBPdi7dek7f/4Y9Et9cEsHSsHyZMBPLE+4ZAV7M3csksDCyLx8oDJerTAgAAgFBkLlDsa3u6LI6Zc1kvgaLrFpppBFMe2p7O+mh7Oj8/b8Pfirh/b9nANvGq0t34CRRbbcJEFIZ6//eZm+hBfGlL4F57/RVZ/0lirdaRYSrWZxrHjlJNBOREtfrxefHY7lSZ61DanY5Pi/LZMsNrqygAAABknwlsbNtTHxsNy55a+LusuEs1mHLY9nTGR9vTtbU125XFR/BcN9fKzsZbeAkUI+13kCngjJ2b+MHvCNyjQtGfrTe+J5dfZV5okdkw8c1jRxcEQG6Yi9gHxKNY2g5nbuSas52rO1CRlKhSBAAAwMgmJyftnav2mddwG1J5aHeaWjDluu1pJNGd4li73fZSyaocV+x6CRS1im4ToAA6YSKtTp3Tmy2RZizwZ8MEiluv05muiAgTgfzp7sStiD/mwvZby4KxdRcIlsUTO0/ER/shAABCZ4ODDY/dIKzI4zw/YFBPP/20RFG04mH+pK0UvFcc8tDuNLXAz3XbU925jHV33WGP4XEcl8X9cVzH0nbaKs59oMj8RBSEbXVqv+CeXmsJ/FurPy7t9bqgOAgTgbyKHxKP0rywLSItyufjadsPzQsAAAAwolKpZG69XCM4nc3XarVspZ2rENNWEKbeFcZt29OWswzKdfjbp+F68637QJH5iSgCWp16pZmfGIxLP/qCxJuvCfKPMBHILx9tW64WMY81WTVxtDN4B853dgMAACBfHLfP7DejlLpLHLAVb1rrGVtpJ26kPofPddtT82e5vI51OevyChPQOm8P5zxQZH4iioBWpx61NfMTA6LbayZUfJRQMecIE4H8qlarFfHYfstccS6bC9u6IDHm8Ww43Bm8k0q1ek9FAAAAgBG4bp/ZR2ntpgqtW/HmLEdxMYevXC7bOxtaOnnelKgHxIHurEtbuVoRt7RSpSVxzHmgyPxE5B2tTv0iTAxPvPWavP0Pf9QJF5E/hIlAvimJ58UrVROkIHJ+4dnH9W5hAAAA5MzExISX0QiuQirz8ynzZzmphhRHc/hs8Hbo0KGGw+dtxsVGxldf/YF4andqq1hzXqHI/EQUAK1O/Yppdxqk9vorsv4TpzOC4QBhIpBv1Wq1LI4umHdhd64yPzEFS0tLy+Kv7WlnIcbl/BkAAADkS6vV0uKh3aM4CqnMz2dunY2eqLuaw3fgwAEnsxq7nGxkvHTpRuVjTIivbj5uA0XmJyLnFK1O/dtoCcK09cb3TKjos8MakkSYCBSBn12WPaqTey15C73yTot6TPwxYWKLa0MAAK7GeQ8woBMnTpjbko+uGzakqkiKfuu37pFmc8O2O3WyAc9Fu9OePLY93dzctH+Sq2rSHpMnxufEA8ctT1VFgLwyQWL0wW8L/NHNtujNtiBcmz9/Ti6/+owg2wgTgWJQEn1GPIqlzS6UdJ0Vf5SS0ucFAAB02FaABz0HirHHudnAsOx7ZnJy0r5nlsUxE1LdKSlyXPHmpN1pT9/ztiJupFpROjc3J3Ec242SZXHOS6AuE+KQcp/UAs7Q6tQ/vUZ1YhZsdAPFQ+/7hCB7TJj4JGEikH/VatVcFGmvFWQmcHrkVPW+RwQp0eJZxbY9pQoVAAAAo5iamtLNZvOcEl0Rt1I9j3Vc8eas3WkfrSV+SklUkfT1KkqXJQXm9Wdu4/s6f4xbdR/tTi13geLC6oy0/C5KAKmZfkPU+78v8EuvNwXZYEPF0tR7ZOom9plkSTdMnBcAuackfsjDRdG1KoI8My8w+zqTBQEAAACGdPz4cVlZWamZX35JnGvblqQ1Sdj8/Lw0Go2KclTxpjxUeNp2teZ5WzIrufZ5S72tqxL1KUnpmmNyclK1mlvOFze16GfFE3ctT5tCmIjcojoxDASK2bJWf1y2XvcxPxujIEwEiobOIkhf9+IeAACgcEqlkg1znMzI24kWqUvGeWx7ap66dFqSbm5uKiVx6nP/upy2O+3x0Pa0XK1Wy5Iw+3M0m82yuN8Ia+cnFiBQlLgiQB6992WqEwOgN1sizViQLTZUbF56SRA2wkSgWKrVj88LM3TgRjnNmSYAAGBwPsOtIip1WiXymI/LBDpai3K+Wz2t0W6O2502PLQ77bDtas3zdk7csJ1R5iVhFy5cMLftirhX9/W8Wc4CRaXY5Yx8im79tsA/fbktyKa1H/+xtNfrgjBppZYIE4FiURK52hEL2JkmqezuBgAga7aiyHfVGOEWMmdmpvOy9dH+aibpjXG23Wkcd4qyyuKAORFfEk9su1pJoWXsbkwAfKckrNVqqUiie8UxH21q+zmsUKTlKXLIzk5878sC//TbW4Js0u01ufSjLxAqhmlF2nJaABRGtxVMRQBHzMX9A+Z1xwImAAAAhlar1Wz7zGXzy4a4lfjGuLW1NVtJ52qzndYq8tY200O72krS1xwTExN2E0hF3PL6vFluAsWFVRsmcpGI3GF2Yjj0RkuQXYSKQVrRsTrZOHbE9Uk5AL/mBXDLXCe25wUAAKAgbJiywYiBRGnRT4pjKuE5iu12O/H/5h4ai4uLXoMpx21PJclrDltN2mw2K+Ih89Ja+6jIvcJNoLjVpjoR+WOrE5mdGATmJ+YDoWJQCBOBglKiaXcK15Ty0CoIAADAl+3Za36LbyK/7XUTNT09rc1P5CMcK3c7vIxtbm7Otju1GUpZHDABrNdQynLc9jTRaw7H1aRXmBf68tLSkte1OieBYqRom4T8oToxHMxPzA9CxSAQJgIFZS6GK8JOafhhWxCxCRUAAL/oLueICcDsHY93Qsrlsr1bEfdtT412VRIwNTVl7yrihlaq5G1+Yk+W2546ribtMc9b5LwS91pOAkWtotsEyBlmJ4ZDrzcF+UGo6BVhIlBgSuJ5AfywO3wTWYwBACCrpqZa9gPR57UYAVeBxKJ/IjlhgymlVEO5C6Z6Eqt6a7cvmf+W/pQ4orX22u60J4ttT+3rLY7jsnjYjOu73amVfqC4sGo/jNhtilzptDqdfkMQBgLF/OmFiluNvxE4Uzdh4inCRKCYtlv1KNqdwhsl6tMCAECBtdsH7B3XYwWwtrZmbttlQWImJiZ0LLHDYOqK2XGr3jozNTeisjjKULToZ323zezJYtvTl1/uFBn52Ay5Yp63uniWfqDYJExE/qh/8aIgDLrZZn5iTtlQce3Hfyxbr3vffFME9W5lYl0AFFS7IoBfM9XqPRUBAADeJDUPDsHT5n+5Cq9PnDhhbr208ZxRSt0lY9ieqenseiyIdqc9Htqejh0Ab21t2WpS5zPgQ5h7aTloeRpXBMiT6TdE/csfCgKxwfzEvFurPy4bP3tOkBrCRACiJPqMAH6ZC/PS5wUAgIKamJiwC8avCHKv2bSdttQt4leuAkUPwVSP0nrsMNBWzrlsdxrUzn3zfrBtT139nWbGmXtpX2fm72sDyYq4pU2U531+opV6oGjeDcxPRK4wOzEstDsthss/fVIuv/qMIHGEiQB6O9HpKoIQVMbdMQwAAMbRKgtSZ4IvJd5nVuq65Iz7eXzb1BijI7oBVVkcBVQmlVoOoW1mv9nZzqWoq7DMvPfUfTKiV1/9gXjq7lM3z9uKBMBBhaKqCJAjtDsNi6ZCsTA2TKBIqJgowkQAHUriBQGC0Z4XAAAK6PLly2atX+rilSoLUtdqtcyivPcKxdzpzuPz0vZ01Nb97tudhlHl1q9bXVoXR9WlJgC+a9RNjJcu3ajUGIHkqJT7yttdpRsoLqyWxftuCyBZVCiGhQrFYrGh4vpPgjv3ySLCRAB9xpv5ASTItntyPo8EAIAQTE9Pm9voLfGLdVwHDhxo20qxsng1UZecscFUFEV17T6YN3lPVJHRFLrdaY/7tqetkTr0bG5uiofrZ61V9KwEIt1AsdWmdRLyxYaJU5cFYSBMLKbNnz8nv3jpt0W31wQjIUwEcEW1+vF58b6YAVylMuoObwAAsmxra8vctn3OtVMBzPUrhHb7gL0ri0ehtb1MShzHJk9UzneiK1F3ypBcz+MLsd1pj+u2p5GUhg5x5+fn7eurIu7fu43FxcWCBIpaESgiV9TMPwrCQbvT4mqvvyK/uPA7Em++JhgKYSKAq0QSOW/XAuzD7vDmdQkAKKiS1xlZkajDglT1hUg+q0F9BtepmpnpPKw+qvCGngXebXdaFTeCbHfa47q61Pw5Qz/ujYZ928TOu/toCauqNNVAUSnaJyFf1M1/LwgHFYrFFm+9Jpd+9KgJF+uCgRAmAriKueAtj3IhBaRNiXpg1LkmAABk1YkTJ+yd16DHnBtSHJKyer1u73w/znXJqVqtZufxLYuX99Jws8BbrZaKHLb7D7XdaY/j6tKh514ePBj7mJ9oguCSj7mgu0q3QpEPIeSMetebgoBsUaFYdDZU/MVLvyMbP3tOsCfCRAA7aFcECNOMUm02pwIACsVW6Bz0H/SUBalqNjub472umWvRr0jOmZ/RdTWeGna23gGtxdUGz5DbnfY4ri4dqiuKPT5vbERl8fDeDS0ITi9QXFgtC4N8kTdHaHkajLb50N0kUMS2yz99Ui6/+oxgRw3CRAA7URI9IkCYlOjoMwIAQMFsRZFov6HijO1iIUjN1taWCTJi37Mq65Jj09PT5m0UOZ85p0ygOGiXjd/6rXtkw2G7U/OaOyeBs9WlURQtuzoG2q4og35vtz1tRRwLMQhOL1BstalORL4wPzEoerMlQL8NEyjaFqjMVbwKYSKAHZkL3YqwAx1hq9D2FABQNFpru1jrdY6iUuo2QapMkOHzMTYZRb4rFMvlsr2z7yPXbU/NuWtroEzk0qUbHbfPDKtt5m5KpZK51a7C4IHbnrpuT9sVZBCcXqCoFYEi8uXAZUE49AbVibhe69JLhIrv6IWJXi9GAYRJSTwvQNjs7v2HBACAApmYmJDYb9ijtKYtfppK2y1PK+KVzvU6gW1POTk5acNE1z/nwG00TUBlv91VoLgServTHsfVpQM/X/bYrL28b0vLEpjUAkUTsbObBbmipt8QhEOvNwXYiZ2r+Nb/+x+LPleRMBHArrarvgZv7wL4okR9WgAAKBZbPfaieOS5ei7X5ufnZcN7mGhN5H6tYGpqSmtRzqu7Bqk6tK+DZrNZETfj4szjED8lGWHbnpoweFkcVZcG+Hz1q5sgOLj3KhWKALJpiwpF7M3OVVy7+Ljo9poUDGEigH04m9UBjGvgNkQAAORHyfe1HGu6KWluVyf6fnwbJqRw3QrUuePHj9u7mrhX3m8O6ebmplISO9zgmY12p/206CfFjfJ+1xvun69tSmRZApROoLiwOmN+4rIAQBra5mNlk0AR+9t643vyiwu/U6gWqDqOTxMmAtiLkojqRGSFiqT0KQEAoCBOnDhh7+riFxt6UrK+vm7ObfSd4pH2PKPTlb62p8vi3N4bOE1AZW7VXeJGZtqd9nhoe1rZ6xscP189OpZ2kJWl6QSKTXayAEiP3mwJMKheC9TLrz4jebcdJt6UuZ1nANzp7patCJARuvOyrbpuLwQAgBc2BImiqKH9hor7LrBjNP7msPXT/5cUhKe2p0pJdO9u/9K2z4zjuGJ+WRYHtOjvScZ4aHu6a8hvj8nm+SqLOC+eaywtfWtZApRSy9OYQBH5s3WDIAx6g+pEDG/DBIpv/fA/5rZasRsm1gQA9qAkXhAgW0yY2J4XAAAK4sCBA+bWbwiw1wI7RuNxDls/rVTpBSmIbttTH5uuK7ttiHPcPtNW+rlqHZo4h21PK7u1qX355ZftnfORIcrP63YgE5IC865wXQIKpE6v/gtBIJoEihhNr1rx4Ps+IYfMV14QJgIYnPJ+nm6uapciR7tNkYgZ7eEiuk9vl/dZAQCgAKIosiHAi52zJn86gUgRZu258k6QpMQnrbNXsTYqW112//331+O4XVeOK8yU6lx3Xde203H7zLp5D2eyxa1te9poNM3jpz8jTnTa1F53vbG1tWXet/pecUtrFQX7Pk0lUDRvirIAebN21BxFDolMXRb4RYUixmWrFbde/57c+IHPS3TgPZJlhIkABlWt3mMvksrinXr4mxmb41Fkc3NzqtXcelP87qav2FlOobb9AQAgSbaqamVlxVanfEm86nQIYENPQjzNYbvWStFC4lKpJHHcMsGUchRMdSil4/vkmkDRnFfbKtVZ5a7dqas5hImzbU/N47VsrkPs6zXt65AdNzDaQNoci2eUhzbFJvgP9rlLqeUpMxSRT3r1lwX+6Q1mKGJ8eZitqGP9MGEigEFFUnLVWmdX5mKstkSYmClm0cPOnnlM/GKWEwCgMOwi9uTkZF38dnTYcw4chuN6bt5uzAlVJqvVxmEr3cx5pPNwZpcOH+YpcNnuNM5soGhtzxx1Fqxd16b21Vd/YG7bFXHMPHHLIQf/yQeKC6uEicgt/fP/VuBZ234eem37gZzpzVbcfD1bXT9UrM80jh1ltyiAgdiZEJ7bVnbE0s7sDI+iMgua9s77YoQS9WkBAKAgHC+k72bXOXAYjuO5ebuxbRQzHTCNwla6mfPZZXEf0M/YDhv9v1EqbdpzWoftTrPd3ePAgQOOZ0BePbf90qUbzftW3SduaaXCnnuZfKDYapcFyKufHxf4pTepTkTybLXiev1xufSjRyXefE1CZ8PEN48dXRAAGJj7nZU7yPxFbRE9/fTTdhHG7mZfFr+uW5QBACCv3pmj6JWtpnpIMBZbcXr58uWyeTi9dwvRWvt+TXnhKaC/qsOGfR1sbERlcdTZUfk/dx9buVy2d/Y6xEUYfF1Vtq82xaHPOU0+UNSKCkXklv7Z8c4X/GF+ItLUuvRSpw3q2sXHgw0WCRMBjMJcHD0inpmLeKoTM2pqasq2PT0nfpmL/NLnBQCAArBzFI2aeEaHgPFduHBBQtjc122jWJcCuvHGS+bHd1/xa94/d/Z+/fLLL9s7Vx1jdCztpyTjbAh76NChho+2px7bFK+E/j5NPFBUyvtwWSBV+u/+J4FHTQJFpG/rje8FGSwSJgIYhbkoqojneS3bopogk/oWNX3P8qD1GgCgELpzFO3n7rL4NXPq1Mddt/zLlXa7bSuffG+KsvODfG8O8+Z97/vvzG1pWdyfy145d93a2jKvA+1qLmluOsO0Wi0bBjus2Gt3Qt+1tTVboe382Kcl7OpEK/kKRfNBI0COUaXoFxWKcCmkYHHz/z/XeHPlkzUBgCEpiefFsyLviM6D3qJmAFWmtF4DABRGs9m0HQJ8Ly6bDCT6jGAkc3NzEsfNeQlic19pSQqqL6BfEefa8/bPN+/nsvmHijiQh3anPSdOnJDua9dV29NP2V84nnfZY4P/4OecJhsoLqzaMJGWp8i9+Pv/i0kaDgk8aMcCuNYLFt/+8R9J89JL4tr6T5+S9X/6sxlzJXJeFj9WFgAY0PaOWBXArnJVE2Ta9PS0neXk/QLXXNi72tkNAIBXMzOdmo0QqlUqzDEeTSDViVa96Jv7PLXwV3YGn+O2t7lod9rjIQyetdfQLudd9slEZWmygWKTMBEFsXZU4v/7fxW4pzepUIQ/zcYP5O0fPSpv/fA/ysbPvpN61aL9718yf96m+bO6yoSKAIbTadniu4OIXcBgfmLG1Wo1ezG/LP53PM+yqAkAKAL72XvwYLwsXqqqrmLnGH9JMJSQqhO1xP9ZCs7XXFJb5dZsNo/0Kt8cyE270z4mDI5dhaQz2yP93M89zUplabKBomrT7hSFYduexv/Pb/qeI1MoerMlQAjirdfk8k+f6lQtdgK/17+XaLioW2ty+dVn5Bcv/Y60rq+IJFQEMDBz4fqAeJanljtF52ln97XMSypilhMAoBA2NiL72RtCC7zZavXjtB0fULfF5bFAqhOlyO1OezzOJTUBVWcWX0UcyOO1l/O2pzquRhK57oqitfLfDWYQCc9QVBUBiqMR//3/cFLH+rTAjbYWIDQ28FuvP94JF3/x0m935i1uNf5GWuv1Yf4znRDR/v/e/vEfm//Wp2XDBIq6vbbbtxMqAthXtVoti6ML173Eos4IcqFvZ7fXTXVK1APb7XwBAMi32dlOM7jHxL9O604+fwfzox/9yDxe8SMSRHUis8x7PM0lVaLVI+JGZkKpYbhue2reM1Xt4Tp6cXExE8/dhCTIXNjdJkAxNHSsTsoXj6y0vygrpb/7D6Ii9YQgVXqDdqcIW3v9lc6XnbloqdK0lG64xdzfINHUe0RNTF/1/TZE1O11ab390igVjjZUfEH+/CMn5d8/77sFDoAAmUWMhc4eVY9YwMgXezF/6tSphtJ62V5oiz9mMbM9b+7PCgAAOWY/e+fm5hqt5tay+N8odiSS2FbcfVawK9vq9PLly7N2A5T4p5ll/g47l7TRaPiYS1oWNxpZCaWGZTulmED4nElnK5I+5xsntOjMPG8JVyh6n88CONELE3v/3L7167VOpaJWtEBNU5NAEdliKwxtBaOdvbj58+c6VYf9X/b3bPg4RrvUGSmp8yZUZIYxgB3Y2Q++sYCRN4cPH9axKN9zeGyVhOs2RAAAeDE9PW2rqh6VAJi/x0PMMt5dt9XpERN6fFPCwCzzPnYuaRRFdmNcXXJIieS2ta2vGZiOaKWy05Y4uUBxYdWGiSxoIve0ik/3h4k9NlRUWk4SKqZHN2MBcB1CRQDXMQs9tnqsLH7Zc6Jc7pAtMrsQMzk5uSye254aFdquAQCKIKDPXkspKX2z21of17hw4YLqVnGWJQDMMr9eqVQyt9mpBhtCLtud9nicgemE1tpH5exIkgsUm4SJyL9OmPiFm2q7/fvmrX+2QqiYoi0qFIFdECoCuIqSyGc7yu7fQZYMzolyqDt/xvc8J/MSix8SAAAKIJDP3h5bgfcngqt88pOflLjZ/Iyt4pQw2K4SQVS2hsRW/JpIJJfBW5ZCqVHYtqfm/XVOciZrY0KSCxRVm92hyLX9wsQeQsX0UKEI7Gk7VHz6VysCoNC2d4z7n9kSS5v2Sjk1O9vZv+J9UVOJ+rQAAFAAfZ+9oaw1nby/eu+XBB12buLa2trtsegvSyCUSI1Z5tcLrOI3MXYGX943c+a07anJE+NMhaTJBYpaURWB3Bo0TOwhVExJrAXAnmYkis7LNz8awvB3AN60K+JffWnpW8uCXAqo5dAMc5wAAEVgP3uN1YCqFDvzFE2o+IgUXHdu4rGA5iZaVCfuYWJiohPASX5kagbfqPLb9rS0LBmSWKColNwmQA5prR8eJkzs6YWKeR3065rebAmAAWmpESoCxaUk8r6wYxaYFgS5ZttFaf8LVSqSElWKAIBCCLBK0Sx7qUeKHCragGNlZcWGiX8tgcxNtKhO3Fur1TLLtflqD2rWrwsxuz6HbU/r5r26IhmSXIWiqLIAOWMOxmfk94+elRHZULGtNKFiEtpUJwJDIVQECqlardqVprL4l+v5HTAvsnLZ3tmLX6+LmuYMsWJe94zfAADkXohVilLgUDHUMFGoTtzXiRMnzG1+Kvq6M/gK0SUvb21PVQarLRMMFIWWp8iVbpi4IOP611+vEyomgEARGB6hIlA4SuKHxLPu/I66INd6LYfM8+17VqYJE9vzAgBAAQRYpWgVLlQMOEykOnEAOWudqZWKCjO7Pm/PXSztpyRjkgkUF1YJE5EriYWJPYSKY9PNWACMwIaK3/h33gMGAK6ou8QzpUpPCArBtj01l5S+2yspJdG9AgBAAQRapWjZUHHBhIpfkpybm5uzYeLtIYaJxkWqEweTp9aZZh27UN1hms2mfe7y8DM3lpa+tSwZk0yg2BRazCA3Eg8TewgVx9NsC4BR6S/L4kcLO9cCKIpq9ePz4n9Ro764uFiI+R0QqdVqdofwsvjfIVypVu+pCAAABdBXpViXwJhF/odPVe/722q1WpYc+uQnPylxs/mQCRP/VsILE22nkKeoThxMt3Vm5tuedtud1qVAusfAzFdl6ozO8Uyo5WlMhSJyIbUwsYdQcWSalqfAeGJZIFQE8k1J5L3FcRZnQGA8gezuNi+96D4BAKAAbJXizMyMrVJ8UMLUqd47dere3IzfsI+5CUmPXF57+4nYbtgN08WlpXMLgoF0W2fWJdvXL4Vqd9qTn+cum3M8kwkUVXg7MoBhpR4m9hAqjoaWp8D4CBWB3OruAq+IZ7GoM4JC6e7uronnWU5K1APmfUDnHABAIQTUJWA3x8xyee3+6n1PZL1acX5+3rY4PWmrEs1a3ryEyW7wul8wlDy0zixau9OenDx3mezsk0igaC7ebhMgw5yFiT2EigB8IVQEcir2Piu1iO12cGWHcEOL9r072oSJLTrnAAAK48SJE7pbpeh1U89ebABngrjz1erHvZ+rDqtblXjsrcbq+UDnJV5hzsMeM+fhK4KhzMx09qJlNpQq8vVXTp67YI/de0mo5SkzFJFdzsPEHkLF4TBDEUgOoSKQO0pUAO0eVU1QSNPT0+aUNvK9w1YpKX1eAAAoCBt4mc/giyZUfFTCVlYSfflU9b7/koU2qN0gsfziyt/WTJD4XySALiD7uGjOw+gSMoK+St8sBjuFbHfaY5+7KIqWM7qununnLqlAkZ2gyCRvYWIPoeLAmKEIJIxQEcgNs+BREf87putLS0uFvaAtOntBf/BgvGx+6XtnfIW2pwCAIvnqV79qA5Gzko1ZYp02qCZYvHh/9d4vh9YK1bY2tefVL668YCsSTUinsjAD0lap3p3VSqdQBNBpYyRFbXfaE8exWSxWPHeOjR8oLqwSJiKTvIeJPYSKg4kJFIHEESoCuaAknhfPVDYWsZCijY3ILmh5r1IMof0vAAAudVuf2vl5dcmGsvn7PmRDOxMunq9W733AV7jYq0Y0AecjbzVWL9r2rBJ+ReIVJgh7lJED4wmk08bQGDeR6banK1l+7sYPFJu0O0X2mDDxySDCxB4bKm4euN18GtDvfCdUJwLpIVQEMm178cX/7ulY1GOCQpud7ewz9f46UKI+JQAAFIgNxczC+mp3nmLWVMxnd60vXFyoVu9JreNAN0CcqVY/Xj1Vvffsiysv2BDRto1dkIBnJO7ErJSdX1o6tyAYS7lctnd2PTZLVZ7m6Y/PScFltWWtlmxXlk7I2OLZzkZQICO6YeK8hOb2WqP1wvzJianN8+YtReVvH011IpCu7VBR5NR3mbsAZE67ktwUg5HZHZZsiio4u0A3NzfXaDW3lsXvzv6yXYhcWvrWsgAAUBB2Yd0EZedNMHbGBGRZ3TBqw8WKSOkRu+RuAsYVs+Jcj0W/aP7ZnGtqExpM1M33NfZq8WnPSVZWVsrb/9S262sz5r87a75uMQGiubfBoffz53HZlqxZDJCDY18vp06daiit7Ty+qmRGaUnQYVvWmvf3ZyQbbBicuYrYfuMHiipbuzdQbMGGiT2EijuLYwGQMkJFIJOURN4vnMzC1VkBZLtlVKPRfNQsZFbEH7NOGN0ntOEFABSMCdnkN3/zN89cvrxWVtmY/7efWbPyboPA6jvFLNsbzk3Y2Pueet/326rGGRMa9pW+vBMc5mir+mp3bmJdkIiJiQndbG6cM9dWWQkUM90yM0nd6w8T0OmsBIr1rG98HHs7hjmo3yZABgQfJvbYUHHrwEnan/ah5Snghg0Vv/GRJwRAJlSrVbv5KIQNSJlu2YLkhNJ2yC6iptUqDQCAkH3gAx+w8+AeFinMmlK576sIn/12XuaDhEnJOnHihGSo4s+8BuKnBB1Za3uqcrDpMYn6bi7UELzMhIk9vVBR9LIAgFNqnlARyAYl8UPimbkgqrGggX7NZtMudPmepWiuUdvzAgBAwdj2jbOzs7aC7X65unoPOaBFP7pkS1GRKPu+MaGUDaSWJRNKy4Kr2LanEj6tVZTpdqdWEoEibRkRNlvptxZ5X3Abmg0V/83XT+pYsnBATBcVioBjhIpANqi7xLNY2pyn4CpmEdPe+X5dKCXRvQIAQAF1Q8WLti2mZKRqB/szgcmZpaVzC4JUTE1N2U1x5yR8debXX822PTUxVyaCOq115rv7jBco/vZqWYCQmTBRr6mTcvZIZk+g2rd+bb7woWKbGYqAe4SKQMiq1Y/Pi3ifZZ75+Q9IXneHd1387/CudNsCAwBQON3PY0LFnCBMTN/x48ftXfDVn+a1kPkKt6Rlpe2pST2XTRic+ePxeIHihPdFDGB3OQgTewgVAfhhQ8WPLsoTFdqbA4FREj0gnmmJfbe1RLhCmO2iROKqAABQUE8//bRdZH+BUDHbCBPdsCF8FEV1HXarYFuJx/rwLgJve6qVysdzN16gqNtlAUKUozCxh1ARgCdVuXHqPKEiEI5qtVo2dxXxrsT8FuzoxIkT0n19eD0XV6I+LQAAFBihYrYRJroVx7EJ7FTIa6+0O91FFtqe5qHdqTVeoKhUWYDQ5DBM7LGhosRCNQAAt5TMEioCQZkXz7rtWuoC7KDbZq0RwC7hmWr1nooAAFBgNlScnZ21oeIdEnb1FfoQJro3M9NZ8gg29FH+RwoEq1wu2zsbtoaaB6zk5fp5rEBRKblNgJBoqeuWOpXHMLGndevXHhKtzwgAuESoCARDifbe7tT8LWoC7CGQXcLmkrX0eQEAoODsZh8TKvZmKtYFIdPmeXqYMNG9wGfx6VjavkcKBMse4w4dOtQIdMZkCOMgEjNehaIoFhURju0w8aT8pyN1ybnWia8vFClU1M1YAASAUBHwrlqtVsxdWfyyrXZow4499S3ILItfFfO+4XMLAFB4faHiHUqE1vVhWjXPz/3mXPuswJtAZ/GZa7BvLQt2deDAgYBnTJaWJSfGnKHofTED2FagMLGnaKEigED0QsXFj5UFgHNK4nnxjFY7GNTU1JTdYX9OvGvPCwAA6ISKJqxajUWdMp/RrCmFpRP2mueHsNejUGfxcQ22v4DbnuZq9uWYMxQJFBGAAoaJPYSKALywoWIcEyoCjlWr1bJ5A3pvdxqz+IQBHT9+3N7VxO9FvVIS3SsAAOAKm1ndfPPNC7YaTmiB6p0WXeuGiXWBV4GGUrQ7HYDdMKGUaoQWvuYtDB49UFxYnRXAtwKHiT2FCBVLY3ZnBpCGMqEi4FrL+/m3NhdDLHRgUAFd1Fe2A3kAANDzla98xbZAXbRzFWmB6s1qd17iaXOOHeLcvsKx56+Tk5P2uQipoox2pwOamJgw4WscQIeUK3IXBo++St8U5lDAL8LEK/IeKiryRCBUhIqAU1EAG/pUTYAhHD582FxEq/8snplg8zYBAABX6bZAvXho+l22BerDQrWiM1rkfLcqkXmJgQmnbf822p0O7sSJE+a2ZDdIhBLQN/IWBo++TK/bZQF8IUy8Du1PAXhCqAgUh70oC26eCMJWq9XsLu9l8XxRr3XrmAAAgB199atftdWKZ02IclKLflKQpm5V4rN30/kjTIG07e+h3ekQQqswzWP19+iBolJlAXwgTNwVoSIATwgVgQJQnXE7tGLC8JrNpt3l/Zj4oyKJPiTInLW1NXvn87ijzf847mEEE7xuAqPUxKpgT91qxfrNN/+zeWYrpsOEtTa0fT9ViWHrhVKBhOu0Ox1SQBWmtlPLo5Iz4zQSLAvgGmHivggVAXhCqAikLvK6OBlLm93qGMnsbKdbr89A0bx+9VviQblctnd18Ua/KBm23bbK94K2DmmGEgZkFoLNrX5FPDFhAa+bHWxFkU3p6+KB1v5eD1ljZyua1/DixOTUMbMof1oIFsfWbW96bGnp3MNs0MsGcw5inrbI6/mr2JeOiljjHVIoFabK/B3yWIU8cqColLpFAJcIEwdGqAjAE0JFIF0+FyfZGYuR9bUeWhY/tFIlL+8f+7NHUVT3tIBu/tg4022KA3jtcOzLqL4ZSs5pZl3tqlQqmVvt47hUJ+Qd3tNPP22DxRrB4ujs8cC2kaW9afbYcxDjonn+fK6v1hcXF9nUOaTuc7fquUNKLqsTrXEqFGcEcKdBmDgcGyrqWJ+WPJgqCYDMIFQEUmIWIZbF165+sxAiwBjsLm/zOnpQ/OwUrmutvQVrcRyb9UTlYzEoL2GYfe14mR2kRTOzKKM8htH2/f5ZwY6mp6dtxY/r4zEVPmO6NljUgcwmC1jDViZ1g8ST3XN4ZFBfl426uGfDzLsFIzHvOzl4MLbHfi/HK3MO+WheNxGMEyjOCuBGQ8eEiaNo3/r1Wm5CRQBZQqgIpKS7O9z5n8mOaozLLu6bhWS7MOJ6p25nIdlnezFPi1GreVmEsgvZZkGoJu4XhC4uLZ1bEGSWj40M3QVEwpZd1Go1G/Qum8fJWdWInQFNhU8yesHizMyR221YFsh8uZA0bDWbbW36zaVnTxMkZp89fzXncb1zqrq4Y8+Z7+cabDz/6l/doX3Mg7WzUvN8DjlaoLiwSnUiXNkOE794hBPyEeUiVCwpAZA5hIpACuzCRDdUdLE42uiGiTUBEvDVr37V3n3ZYesou4jwWd8LyR4Wozp/Vp4WoVwvCHVnXVEVkHH2vXfzzTdf7IaKdUlZ3hcQk9KdS3bGRRhl38vx9vOPBNlg2J6Tzs7eMW/eX0e656bLUkwNG5DbgHVx6dkj5nFZYEZivnTP4y66Oo/rnYOwOWV8fc/dHa42QJg/54ydlSo5Ntoq/e+uVpTS5wVIF2Figkp/9x/mVaSekAzSzVjaP14VAJnUkLY+Kf/+eY7lQIKq1WpZJF5Qoh6Q5DW2L7iis+yKRRrsxf3Kykq5+xq+T1IYp7E9w0ydCa06YG5uTprN5rz5G35GJd/1x753a3ahPq+LmSk/fp3XjVJRjWqmfLnmmHOX2I1vCQr1eBO63vtZibbnMhVJEO9l9955n0kljec0ML1zZTundYUAsTiuOW7Z85BEzmG3Z23b9vzREp8l6eg/FzCf2bcleR7Z9/wV4vp5tEDxc69XlUSLAqSHMDEFpR/+ZlWVTKiodLaqjNtaWn//pgDILEJFICUmWLSf6UkuqtcJEeFS3wJkWZJhF/XqoS/udX/uJN+/hXrvpvD4ZeJ1g/El/NrhdZOQ7iJ9EovzPCcBuPp9FlfN8vNdaWwCcaixPTdS2QDxRQIfWAmdw3LM8qDvGFWW8T536uarUbTnb8QKxTceUkp9WYCU6HZ8Sv7gpiVB4ib/7n+e1UrOZy1UbP1/bwiATCNUBAAAAICCuSZgrESibovNQn6oIaMNDyPzFYuy167fo/UkALxj1EBxwQSKjwiQAq3i0/KFm2qC1GQxVLQtT23rUwCZRqgIAAAAAAV3TbWwuY9nbdBowrwZvR02liU9tuKwYf6Muv3aDg7bb4mUlunUAQB7GylQVJ97Y9HcVgVIGGGiO1kLFQkUgdxoiJbT8onvUoUOAAAAALjODi0JzVe7u36lyvv/F6LV7ZDQKtl2hJ3WklLA9oQAkKQRA8U3z0u+h+vCA8JE97IUKrZf+YXo9aYAyAkl83L/d58UAAAAAAAAAMGLZBQ61bJzFBBhoh/NW/9sRWk5qbd3aYVtcrTDFYBAaanJNz/6gAAAAAAAAAAI3mgr9IpAEcnRWj9MmOiPDRXbSgcfKqrSaCNfAQSMUBEAAAAAAADIhOEDxYXVTMxbQzaYMPGM/P7RswK//vXX68GHipMlAZBDhIoAAAAAAABA8EapUCwLkIBumLggCEPgoaKi4ymQXzZU/Ma/e0gAAAAAAAAABGn4JfqmUKGIsREmBirkUPHQhADIM/1lWfzoIwIAAAAAAAAgOMMHirpdFmAMhImBCzVUjChRBHIvlgVCRQAAAAAAACA8w6/QK1UWYESEiRkRYKioJs3hKlICIOcIFQEAAAAAAIDgjBAo0vIUoyFMzJhQQ0UA+UeoCAAAAAAAAARl6NV5JXKLAEMiTMyo0ELFg8xRBAqDUBEAAAAAAAAIxgjlPooKRQyFMDHjAgoVVYmWp0ChECoCAAAAAAAAQRg+UNRSFmBAhIk50Q0Vzft/RTxSB0oCoGAIFQEAAAAAAADvRpmhWBZgAISJOWNCxdbWAb+h4iFangKFRKgIAAAAAAAAeDVcoLiwSrtTDMSEiU8SJubQ7bWGz1BRTVChCBQWoSIAAAAAAADgzbAVimUB9tENE+cF+eQzVCwpUZMjjH4FkA82VPzGR78sAAAAAAAAAJwabmW+KVQoYk+EiQXhM1S8YVIAFNpD8o2PPCEAAAAAAAAAnBkuUFRtAkXsijCxYHqhosiSOKQOMkcRgJonVAQAAAAAAADcGS5Q1KoswA60qCXCxAKyoeK/+dopHcuT4og6yBxFABahIgAAAAAAAODKsMPIqFDE9Wzby7fltKCw2rd+bd5VqKgOUKEIoIdQEQAAAAAAAHBh2ECxLEA/EybqNXVSzh5pCArNWahYUiZUpEoRQI8NFT+6KE9U2PQEAAAAAAAApGSoQFEpdYsAPYSJuIarUFFNTwoA9KnKjVPnCRUBAAAAAACAdAxboQhsI0zELmyoKLE8JilSNxAoAriGkllCRQAAAAAAACAdwwWKmpanEMJE7Kt169ceEq3PSEoIFAHsiFARAAAAAAAASMVwgaIiUCw8LXXdUqcIE7Gf1omvL6QWKjJHEcBuCBUBAAAAAACAxA0eKC6ssjBXdNth4kn5T0fqAgwgzVCROYoAdtULFRc/VhYAAAAAAAAAYxs8ULwsBIpFRpiIEaUVKqobpwQAdmVDxTgmVAQAAAAAAAASMHigOEG708IiTMSY0ggV1YEJcwRTAgB7KBMqAgAAAAAAAOMbboYiiocwEQlJPFS0cxQPTggA7INQEQAAAAAAABjT4IGibpcFxUKYiIQlHSrS9hTAgAgVAQAAAAAAgDEMHigqVRYUB2EiUpJkqBgdPiAAMCBCRQAAAAAAAGBEtDzF9QgTkbLEQkXb9vSGSQGAAREqAgAAAAAAACMYJlAsC/KPMBGO2FAxjtsPy5hoewpgSISKAAAAAAAAwJAGDhSVUrcI8o0wEY7Ft/75WR3r0zIG2p4CGAGhIgAAAAAAADAEWp6ip6G1OkWYCNfat369NlaoSNtTAKMhVAQAAAAAAAAGNHigqGl5mmMNHauT8sUjKwJ4MG6oSNtTACPaDhX//COzAgAAAAAAAGBXgweKSmYEeUSYiCCMEyp22p5GSgBgBGUpKUJFAAAAAAAAYA/DtDwlUMwfwkQEpRMqtuSUaNUY6v9YUhLNMEsRwMhmCBUBAAAAAACA3Q0WKC6sEibmD2EigtT+0NeWlJaTw4aKtD0FMCZCRQAAAAAAAGAXgwWKl6lOzBvdjk8TJiJUzVv/bGXYUFHdMNn5AoAxECoCAAAAAAAAOxgsUJyQsiA3tDJh4h/ctCRAwEYKFalSBDC+7VDxmY9WBQAAAAAAAEDHMDMUkQOdMPELN9UEyIBhQ8Xo8AFzowQAxjQjShblmx99QAAAAAAAAAAMGCjqdlmQeYSJyKJeqKhF6vt+c0lJdPSgAEAitNQIFQEAAAAAAIBBA0WlmKGYcYSJyDIbKraVHihUjI4cEgBIDKEiAAAAAAAAMHDLUwLFDNNaP0yYiMz711+vDxQqlpQo2/oUAJJCqAgAAAAAAICCG7BCkUAxq0yYeEZ+/+hZAfJgwFAxOkqVIoCE2VDxG//uIQEAAAAAAAAKaMAZigSKWdQNExcEyJMBQkV1oCTqhkkBgGTpL8viRx8RAAAAAAAAoGAGChSVUrcIMoUwEbk2QKgYvYcqRQApiGWBUBEAAAAAAABFM+gMRWQIYSIKYZ9Q0VYoMksRQCoIFQEAAAAAAFAwgwaKtDzNCMJEFMo+oWL0nhsEAFJBqAgAAAAAAIACYYZijhAmopD2CBXVZCTRuw8KAKSCUBEAAAAAAAAFMVigqKQsCBphIgptj1AxuukGc6MEAFJBqAgAAAAAAIACYIZiDhAmAnIlVBQtK1f9fklJdJQqRQApIlQEAAAAAABAzu0fKP72alkQLMJEoI8JFVtbB64LFTtVipPsnwCQIkJFAAAAAAAA5Bgr7BmmY/0YYSJwjdtrjZ1CxdL73iUAkCpCRQAAAAAAAOTU/oHiBPMTQ6S1flK+ePQhAXC9HUJFdcOkqMMHBABSZUPFb3z0ywIAAAAAAADkCBWKGdQJE3//6LwA2N0OoWLpvdPmqKcEAFL2kHzjI08IAAAAAAAAkBP7B4qqPSMIBmEiMIReqCiy1PnnkpLo5hsEANKn5gkVAQAAAAAAkBf7B4qxECgGgjARGIENFf/N107pWJ60/xgdOdhpfwoA6SNUBAAAAAAAQD4MUKGoCBQDoEUtESYCo2vf+rX5XqhY+uUbaX0KwBFCRQAAAAAAAGTfIDMUCRR9szPg3pbTAmAsV0LFkpLS+94lAOCGDRU/uihPVDinAgAAAAAAQCYNUKFIoOiVCRP1mjopZ480BMDYeqGiunFKoncfFABwpCo3Tp0nVAQAAAAAAEAW7R8oagJFbwgTgVTYUFG0PhPddIOoAxMCAE4omSVUBAAAAAAAQBbtGygqJYcF7hEmAqlqnfj6gjkCnon+JfMUAThEqAgAAAAAAIAMGmCGomLByzXCRMAJGyqqCXWGeYoAnCJUBAAAAAAAQMYMECjCKS113VKnCBMBNzqh4rsmz0TvOSQA4IwNFX9p6gVZ/FhZAAAAAAAAgMANEiiye96V7TDxpPynI3UB4IwNFaOjh85Ehw8IADhUljg+T6gIAAAAAACA0O0fKGoCRScIEwGveqGiOjAhAOAQoSIAAAAAAACCt3+gqAgUU0eYCAShdfufL6j33nBGJukGDcApQkUAAAAAAAAEjZanvhEmAkGJ//tnFqJ//q4zEikBAIcIFQEAAAAAABAsynB8IkwEgtQJFW8+RKgIwDVCRQAAAAAAAARp79Xy314tq0l9UZA8LRd1W90tf0iYCIQqeu7XF+L11udlv2MlACSrLlF0t8z824tyckEAAAAAAAAA3/auUGQJPR2EiUAmxL/2nQWZVJ8V+64FAHdspeJfS+P7x+T8ggAAAAAAAAC+7R0oHmR+YuIIE4Fsufcvz5o37oNCqAjALUJFAAAAAAAABGPvQLFJoJgowkQgm37j+RqhIgAP3gkV/3xOAAAAAAAAAF9oeerOqtbqfsJEIKMIFQH4sR0qSuN2QkUAAAAAAAD4snegKG0qFJOxqmN1t3zxyIoAyC4bKkb6DpMprgoAuFOWkiJUBAAAAAAAgDd7B4oxLU8TQJgI5Mmp51fMkfNu86uLAgDuzBAqAgAAAAAAwJdIkCbCRCCPOqFiRKgIwDVCRQAAAAAAAHixzwxFVRaMijARyLNTf1EnVATgwTuh4rl7BAAAAAAAAHCBCsV0aN2OHyRMBHKuEypu3WHe8ecFANzZDhW3tk7JeSoVAQAAAAAAkL59KhQFw9NamTDxD25aEgD5d2q5IZ94/m7zzj8rAODOjDlP+6asvjVPqAgAAAAAAIC07R0oaikLhrEdJn7hppoAKJZPPP+wxHJG7JETAFzR8gShIgAAAAAAANJGy9PkECYCRTf33QXR7fuFuYoAXCJUBAAAAAAAQMr2DBSVksOCgRAmAuj4xP+5JFF0txAqAnCpFyouVgUAAAAAAABI2j4VimpGsC8t+gxhIoArTv1FXaKtO8zBoSYA4IoNFWV9gVARAAAAAAAASaPl6Zg6YeLvHV0QAOh3arkhn/juaeYqAnAqlkcIFQEAAAAAAJA0AsUxECYC2JedqxjpO4QWqABcIVQEAAAAAABAwvYOFLWUBTsiTAQwsFPPr3TmKm63QKVaEUD6CBUBAAAAAACQICoUR0CYCGBodq6ibYEq8WeFUBGAC4SKAAAAAAAASAiB4pAIEwGM5Tf+6qxE0fuFFqgAXCBUBAAAAAAAQAL2DhQVLU/7ESYCSIStVvyN777fLPSfEaoVAaSNUBEAAAAAAABjokJxQISJABI3990FifQdQrUigLQRKgIAAAAAAGAMuweKCxTN9BAmAkjNqedXJNq6Q7Q+K1QrAkgToSIAAAAAAABGpHb9NwurM6qlV6XgCBMBOLP4kVmJ1TfNr44JAKQlkjNySJ2Rj/0lmxgAAAAAAAAwkN0rFC/LjBScjvVZwkQAzthqRWYrAkibrVRc01+Sc/coAQAAAAAAAAawe6BY8CUmrXVNvnj0YQEA1zqzFaP3y/ZsRYJFAGl4SJqbf0KoCAAAAAAAgEHsHigeLG6FYidM/P2jpwUAfDn1F/VOtaLoB2U7WASAhKl5QkUAAAAAAAAMYvdAsVnMQJEwEUBQfuP5mkTR3aKlJlQrAkgcoSIAAAAAAAD2FwmuIEwEECRbrfiJ756mDSqAdHRDxW//uhK9IAAAAAAAAMC1CBS7tKhFwkQAQaMNKoDUmFBxs/nX8uTyEUJFAAAAAAAAXGv3QLFIja+0vCBvy4MCAFlg26DaYDGWM+YAtioAkAStKvKuKUJFAAAAAAAAXGf3QDFul6UITJio19TdcvZIQwAgS+a+uyBR6Q7mKwJIjJJZQkUAAAAAAABcq9gtTwkTAWRd/3xFgkUASSBUBAAAAAAAwDWKGygSJgLIk6uCRX1eCBYBjKM/VDy/IAAAAAAAACi2PWYoqhnJKy0XCRMB5FInWHz+bonjuwkWAYzFhoo3Tv2tNL5/jFARAAAAAACg2PaqUMxnoGjDxDZhIoCcm/urZYJFAAkom+PIXxMqAgAAAAAAFFuxWp72wsQ/PFIXACgCgkUA4yNUBAAAAAAAKLjiBIqEiQCK7KpgUWpCsAhgOISKAAAAAAAABbbHDEXJD8JEANjWCRa/e1qi6P0EiwCGRKgIAAAAAABQULsHitosGuUBYSIAXO/UX9SvDhb1qhAuAtgfoSIAAAAAAEAB5bvlKWEiAOztSrBYusMcNB80v3NRCBYB7I1QEQAAAAAAoGB2b2z6u2/UlFIPSFYRJgLAaL7xkXlzDP2UKFWRfDXABpCsukTR3TLzby/KyQUBAAAAAABAfuWzQpEwEQBG9xvP1+QTz98tkb6jb84iVYsArkWlIgAAAAAAQEHsGigqJYcliwgTASAZp55fuTJnkXaoAHb2Tqj453MCAAAAAACAfNq1lZ363JvnzV1FsoQwEQDS9fSvVkRFD5hPj15LbFqiArDq0tb3i8y8IP/+aQEAAAAAAEC+5Knl6arW6n7CRABI0dxfLVO1CGAHZSmpvxZp3E6lIgAAAAAAQP7kpUJxVcfqbvnikRUBALhF1SKAdzSkre+mUhEAAAAAACBf8lChSJgIAD5dqVrcenenalFruyFFC5WLQBHNUKkIAAAAAACQP3tVKL5g7mYlbISJABCixY+VRdr3Saw+I7YVIlWLQNFsVyq+Z+YFOUmlIgAAAAAAQNbtHij+7psXzb8tS7gIEwEgC95piXqXEC4CRdIw7/aH5cjhGqEiAAAAAABAtmU1UNS6Hd8vf3DTkgAAsoNwESgeJacJFQEAAAAAALIti4Gi1ip+UL5wU00AANlFuAgUB6EiAAAAAABApmUtUCRMBIA8IlwE8o9QEQAAAAAAILOyFCgSJgJAEXTCRXVf50uufA4RMAJ5YENFdUNNTtG1HgAAAAAAIEt2DxQ/96aWgJgw8TRhIgAUzOJHZs3tXdIWGzBWur9LuAhkWSRnRG5YIFQEAAAAAADIjkwEilr0Gfm9owsCACiuxY+VJW5XzCfUveaTwd7PCOEikE2EigAAAAAAAJkSfKBImAgA2FGvNaqtYFRqtvu7BIxAVhAqAgAAAAAAZEbQgSJhIgBgIFdVL4oNF8vdf0PACISMUBEAAAAAACATgg0UCRMBACNj9iKQHYSKAAAAAAAAwdt5cXVBi2qtegsUCRMBAIl6pz3qbQSMQIAIFQEAAAAAAIK282Lqb6+W1aS+KB4QJgIAUrVYmZHWxCwBIxAYQkUAAAAAAIBgBRUoEiYCAJzrBYwSVUTpO80no/m1mun+W0JGwCVCRQAAAAAAgCAFEygSJgIAgmFbpE6o2yRWd5l/svMYy91/Q8AIpI1QEQAAAAAAIDhBBIqEiQCAoC1+rCztpq1itAFjf5tUi5ARSJoNFQ+pM/Kxv/Q20xsAAAAAAADv8B4oEiYCADKpv4pR67IJGWe7/4aAEUjGWZmc+qzc+y1CRQAAAAAAAM92XvT8HRMoTqQfKOpYn5UvHn1YAADIuv5ZjJF8SGiVCiRA12TywIOEigAAAAAAAH7tvMC5sDqrWvoFSZHWZoHo94+eFgAA8urakPHqSkaLoBHYF6EiAAAAAACAbzsvZP7uakUpfV5SQpgIACisXsho26W2bbiob2EmI7AfQkUAAAAAAACfnAeKhIkAAOxg8SOz0o7LokuzVDMCOzHnkKVDD8p9d2hRCwIAAAAAAAB3nAaKhIkAAAyhV82o9IxIdJf5ndvM1wxBIwpLy4q8vXW3PFBZJVQEAAAAAABwx1mgqEXOy++9+24BAADj6Q8ad69otAgbkT+EigAAAAAAAM65CRS1vKDX1N1y9khDAABAemzr1JYJGjszGqUstqpRiQka1UzfdxE0ItsIFQEAAAAAAJxKP1AkTAQAwD9b1SiT5StzGpU+LJ2wUZXNffma7yZwRPh6oeL88qoAAAAAAAAgVekGioSJAABkw7WVjUrdst1G1YaNV1U3WgSOCISuybv/xWk5WRMAAAAAAACkZ+cFwc+ZQFHGDBQJEwEAyIf+6sZSdEtf4DizQztVi8AR7sTxSZn7q2UBAAAAAABAaiZ2/N24XZYokpFpuUiYCABATpxatp/nK92vnfUqHLUqd9qo9lqqiszsUuVoETxifEpVze2yAAAAAAAAIDUTkjQbJrYJEwEAKJRTz6/s+z2LlbK0JmzYOHNdpSPBI0amygIAAAAAAIBU7RwoTpZWpK1laL0w8Q+P1AUAAKDfqeW6ua3v+T2d9qomXOwPHlvqiET6vzHnGeXO99gKSOn++nqEj0WzXQ0LAAAAAACAFO266KY+9+aq2AW9QREmAgAAl/rDR6u/3aqSw1cHkLYKUu12XkMImWVaPyafeP4hAQAAAAAAQGp2bXmqRT+mRD0igyBMBAAArm3PdrRf9YH/P7btqkzOdOY92grIOJrpVjxKpwrSho7bLVgHCSJ7CCR90npJAAAAAAAAkKo9F8DU5978W3N3+17fQ5gIAABy79pqyF4YOSmHOy1Ze1WR1wWSHeXB/hCCyaFpWZRPfPd+AQAAAAAAQKom9vqXesIEha34ESXqM3L9IpfWIsvSVg8SJgIAgFwbpRryWr1Q0uoFk5Zt1Wq9E0B2qyU7v/lOQHnV9wxUObmbvASXF6UUfVYAAAAAAACQusEWlH5ntSwT8bz59jvNAlZDYnlFovhZ+b33LAsAAAD86rRy7eoPK61eYGn1Kip7rlRW9r53h2rK/qBz+5vGCTOHsdN5qu7eL0m09WA36AUAAAAAAEDKaK0FAACA8fWHmld051XupNc2djfXBZli+2PUZbK5RJAIAAAAAAAAAAAAAAAAAAAAAAAAAAAAAAAAAAAAAAAAAAAAAAAAAAAAAAAAAAAAAAAAAAAAAAAAAAAAAAAAAAAAAAAAAAAAAAAAAAAAAAAAANjDfwUiLvEsd8FhzQAAAABJRU5ErkJggg==;" vertex="1" parent="21">
                    <mxGeometry x="115.64999999999998" y="125" width="129.43" height="50" as="geometry"/>
                </mxCell>
                <mxCell id="12" value="" style="shape=image;verticalLabelPosition=bottom;labelBackgroundColor=default;verticalAlign=top;aspect=fixed;imageAspect=0;image=data:image/png,iVBORw0KGgoAAAANSUhEUgAAAXAAAAIICAYAAAB3gLUOAAAAAXNSR0IArs4c6QAAIABJREFUeF7sXQdgG+XZfk7Ttry3nTjOdHbIImG0EGgZAVooI0BbNgmjlAKljMLfplBoSwu0lL3bEMqmrIS9ISEhIXtvb8d7yEvS/X2/00mnZUuyJEvO+7XCinS6++75vnvuved7hwRujAAjwAgwAgmJgJSQveZOMwKMACPACIAJnCcBI8AIMAIJigATeIIOHHebEWAEGAEmcJ4DjAAjwAgkKAJM4Ak6cNxtRoARYASYwHkOMAKMACOQoAgwgSfowHG3GQFGgBFgAuc5wAgwAoxAgiLABJ6gA8fdZgQYAUaACZznACPACDACCYoAE3iCDhx3mxFgBBgBJnCeA4wAI8AIJCgCTOAJOnDcbUaAEWAEmMB5DjACjAAjkKAIMIEn6MBxtxkBRoARYALnOcAIMAKMQIIiwASeoAPH3WYEGAFGgAmc5wAjwAgwAgmKABN4gg4cd5sRYAQYASZwngOMACPACCQoAkzgCTpw3G1GgBFgBJjAeQ4wAowAI5CgCDCBJ+jAcbcZAUaAEWAC5znACDACjECCIsAEnqADx91mBBgBRoAJnOcAI8AIMAIJigATeIIOHHebEWAEGAEmcJ4DjAAjwAgkKAJM4Ak6cNxtRoARYASYwHkOMAKMACOQoAgwgSfowHG3GQFGgBFgAuc5wAgwAoxAgiLABJ6gA8fdZgQYAUaACZznACPACDACCYoAE3iCDhx3mxFgBBgBJnCeA4wAI8AIJCgCTOAJOnDcbUaAEWAEmMB5DjACjAAjkKAIMIEn6MBxtxkBRoARYALnOcAIMAKMQIIiwASeoAPH3WYEGAFGgAmc5wAjwAgwAgmKABN4gg4cd5sRYAQYASZwngOMACPACCQoAkzgCTpw3G1GgBFgBJjAeQ4wAowAI5CgCDCBJ+jAcbcZAUaAEWAC5znACDACjECCIsAEnqADx91mBBgBRoAJnOcAI8AIMAIJigATeIIOHHebEWAEGAEmcJ4DjAAjwAgkKAJM4Ak6cNxtRoARYASYwHkOMAKMACOQoAgwgSfowHG3GQFGgBFgAuc5wAgwAoxAgiLABJ6gA8fdZgQYAUaACZznACPACDACCYoAE3iCDhx3mxFgBBgBJnCeA4wAI8AIJCgCTOAJOnDcbUaAEWAEmMB5DjACjAAjkKAIMIEn6MBxtxkBRoARYALnORCPCEjz5y8zVZu3J9uSU80tcpfeBJ3eoTPr9Ha7wWjr0tlSDAbZoZfgsEmSQ3IYbHpbj84uO4zmXqnXLvfqe2y6HpOcqtd3pyO9c8XkLd1YvNgRjyfLfWIEwkWACTxc5Ph3LgQmnbPYZLWUppgcXRZdt94CvZRml5EtSXKOHnKWLMmZsowU2S4lSxJSJDhSZEmXKstypiRJmYBsgYwUQEoG5BQAyZChA2TXMfplXtm9rffQKN9IMiB3S4BVlmWrDHTqgA4ZaAXQBAltEn0uwQoHOsV2OrkDdqlFhtyok6VG2YwGezfajWZjh9XW0VHx8g1d0HaS5wQjEGMEmMBjDHjiHE6W5s37g75iarbeVKM36o2SUXbIqTZJP1yn15XYHdJ4GZguwTFdAkYCRLh9NKJPwaSBidbj117bDpzA1b1TR4IdBWXDQPcGGbDqgI2yDuskh7xBgnTApneU63qM1VJKb1dXj603Ha32LZhkx8sL7MEelbdjBIJFgAk8WKSG8HaTznnJ1JvWPtzUJZc64JggS9IMHeQRAFIdEtIkWc6RgWxhGWubiwiDYMQhSOCeU8KJgQxIgE2WpGbIcqMMqUWSZKssCyt/h0OW18mybrtdn7Sv4uXLG4fwtOJTiwECTOAxAHnQDyHL0ugrHk83t5vyHXAM1+tQ7JAdJZIkjQHkWQAmAkjytUw9idmHppnANUPrJnC/9zg/dz5JRoMMaa0syRvJepdk6YAMqUKyd9V0OlIbqt66wjroc4c7ENcIMIHH9fCE37mxlzydZ5alWbDJJ8uSfDZkOU8WModMUod/uSMwQytSgnd3mMAHROC+oAqdntQi50veKeuk/+gc9s86e1O+Y0IP/3oYqr9kAk/okV2sm3Rxab7skKdIDvv3oMNEWcZwCVIZIOUAsqRlXaeiG/iMmcC9sOlbAw8koQRrgfu/K3r+WjMkDkDaD8i7Ics1EqTvHJL0tam3Z9eOt26sT+hpzJ0PGwEm8LChi+0PZy16zNjbmZzVK9uG63TSBMAxT5ZxGoCiPlflNAzABO58jghCsldGN64IvI9hlrdKsvwW9NIq2PQ7DI7u6uK29uZPP11si+0s5aPFGgEm8FgjHsLxhp9zX3KmJW2uQ9adK8nyKbJws0M6ZJj9Wn/+9s0E7iX9RM4LJcYWeD/eM66BJtfGVshSsyzhHTjkF3MKkteuefyK3hCmHm+aIAgwgcfLQC1erJu+r3RErywfKcmYK0OeBuAIredHYMm5D5NyMAlcksgjg3ywAck91cQ71z89p6CymfqZ4tLhbvQPOqFA09bzZL1RkYU/oJPANWCqboKySvXCY0Zxm6G/4iUM8r5M99AXMUOUUIIlcDdc7lPtkKD7EpJjC+zSKlnu+WZOUumBl9m1MV6u/rD7wQQeNnQD++G8xZ8YGnZUpRmSukb02KUzZRm/kIAcj6vP6xBxQ+AexKzQqSTpIBH7+plRysdOKncSOW2rvOi3zvdO7tZJOuh1EnSuF625KtuKTXTKG53mpiD4lv4nOFohXIWDHXA4ZDgcDtjFX7uyTOjc1k3Qym8V4nbvy0XemrGQnfuhpUYH7Uwcj/467w8aovdP+T531QCTyXVLUb7vU/rx82XAhw2x3woAjxtgX9YlJe2rbKpvAUsuA7uoB+HXTOAxBn3qpU+PtttxriTjdEgoBjBMiTr0br4XZKwIXBCxwpAKKbvtaOdbz2lj0OtgNOphMhnF3ySTESnJZpjNJiSZDNDrFXInwlVI3knO9G8iaedfDyKP4rgopK2QtYNeDgcEKWstbvEd+YTIsNkd6O7ugbWzG13dPejqtqGnpxc9vTb09PaKG4SLYdWbAGEm9kH7dsBhd7iseQ8m7oeUPb6OIIFr4HVARrUMVOsk3ZuSZHtxz+s37FQiV7nFOwJM4FEeocmXPZkt2QyzIcnHEmk7IE8Ogqv9mluRJHAXMTstYMX4VciVONag18NgUF5mk0GQs/hrNMBoNCDJbITZbESS2QQi8EO10Zj09trQ1UXETq9e9PYQsSuv7p5edPX0wtZrh81mh91udz0V0M2BnhDEX7qJCCtby5vRs8ADz0HhyrhTBt6Ew7HSIZlWlL/5y+r+7P9DdfwH+7yZwCM+ArI06ZyXjfoU61QAt8uQf6z1u/a6JPt4NI6gBa5KHjq3zKFqzUTkZqMBlhQz0ixJyM5KR1amBXrdoUvKEZ8Smh0SoTc0taGhsQ0dHZ3o6OyGTZC6opEIi7/XBofdrsg9WkKPjgUecA4qhxM6zEqdzvZ7q1X6qvaojk5OChbNGRLavpnAQ8Mr4NZHX/pUWptMWra0QJZpAVIa7m/jqBK4StTCilYImIjaZDQiOcmEVEsS0tOSxXvFsiar2ii0Zm6DgwCRJBG2sNxtNvT22tFu7UJLazvaOrrQ2dkFu43kFwdkuwy7zaaRYrR9Dk0DD+Yp0EXg7o3J33y9TsZ7NvQuLX/z5qrBQY2PqiLAV274c0EqO/+xHKPZNFsCTpeBRZIa4diHpRRJAle1aqEvCx3aIAiZZA1LshmWVDOyM1ORbDaFf5b8y0FFgCzw1nYrGhvb0W7tRCdJNa5XtyK90IsI3ttLpo9FzDAJ3P0zWbLLwNuSLL/k0Nu+KZ9u3cuWeeynChN4GJiXXfivYSad/AcACyQgRYas99hNlAhcccOgBUDFuiY9OiMjBUX5WcjNSnN5c7BFHcagJshP1IVXklp6bHZUVdej7mALWts6xIKpvccGm61X403j/zlw4ATusQerDLlK1km/KH/9+g8g8QJorKYTE3iQSI8/76liU5LhQkA+SQa+D0BD2l6MHRECd7pOC48NHVKSzIKsM9ItSDYbkWpJFguJ3BgBQoA8YdpJU7d2wdrVg4aGFjS3tAvvGTtp6sJK13jLeMPmX4EJvHbps73rg30APpZ0jiX7mmd/iU+P42jQKE5RJvA+wJ12wV8tDmP2RMlhuAqQL1H96fpYXlT2Fi6BOz1CjAYDkpJMSEtNQnZmGgpyM4RmzY0RCBUBIvSq6kY0Nrejvd0Kq9UKG7k+OgOVXPuLHIFrL4F9dgm/l+zSRxVvt/7Pk4UrIoU6fv1tzwTuB6F58z4xNI7av1AGfg2ghNQK36RQ2h+Gb4EL32dISE42IS83A0UF2cIrxGTUu6SS/gaRv2cEgkGg12YXLo9t7VaUVxzEwcYWdItFUptfo8PPIqb7MIEtcB8b5n9BagclSBsdOlxX8cYNG4PpK28THAJM4BqcJl/y9CSdrL9AknChDJmCbPxO2IFY4HSlSDodLClJyMpMRXpqMrKz0pCSdGgsNBJ22qAZJUpSCXhx2J1/hV+0DLsrilIJZ9dGWIoHHa9FO/eiruLTTkFCYoFXjeh0ylEUOKT9TAkm0ilBRc7fHAoXBlnhjc1taGlpx8GDzWhubkOntUvILe4HyQCPkyEQuBejf+SQ5ReQrHut4uUbuKBFcDwdcKtDYZ72CRGFtNfv3V8Kne4eCfKZAU0MzYQNlcBp7VGn0yMlxYz83AyMLMlP+OAXd34Qd0QjfUZucGTp2cglzmYX7nHkOWHt6kWntUe4ysV7I9InCSsl2SRcLunmShGmRgpuoohTo0GE+rvTAahh/u5w/3g/x0D9a2puw959Naira0RnV5cIPPLbwidwVWPsdEB/s87R9dyBd7pbWF4Jb8YcugQuy9L0S5850g49eZMcCcDiCWFgWSRYAifdOi8nXcgiFChDZOAKUw9vvGL6K+GjbHegV4SN22Ht6kaHtRsdHd2wa8LP7XaHCEaxCX/lPqNNYtr/aB6MLHWKVqU0ARSJqljvynt6ukq1mMXCs8mkF+6d2rwt0exXpPZNUaPtHV1oam7FvgM1aGygCnF9WTGe4943v3vsp0IG3jc4uu7Yu+z2/ZHq/6Gyn0OOwKn+ozG16zhZkq+WZVCUZIAWOoGTpZ1kNiM7w4KcnHQU5GbGdZAMPULbbXZBzmQpd/f2oofCwHtsaBdE3SWsaG4DR4Cs+NTUJCQTqRvVICpKUWCA0aCH3qAPmGNx4Ecf+B46O7tRXlGLmromQeq93d7ZacMkcHfXev6X2/4xSdY/u//t69cOvMeHxh4OKQI/bOG/ymQblskSxojh7dNYDJ7AibizMlIxfuwwoWnHa+u122G1dqO1vRN19a1oaeWSi/EyVmTJ52SloiA3HSkpSUK2idenNTLE9x2oxpbNe9DZ1e2EcMAEruxH5BnTfWaXHOdUcaWhfqfnIUHgUy9/dhYc+tskOOZT8V7XVBsAgVOukOysVBQXZCMzwxI3PtlkVVOkXkdnD1parOjs7hGeB+QbTJY1t8RAgCQaktwospb099SUJGSkpwhdniSZeLhwSVKhhc+D9S3Ys7cc7e2dLnCDllD8DYcSQdoMCW/09vYurnn3VvIt5+YHgXiYB1EaGFmafvGzpQ69/ibIuEq9vXsY3iESOF1UlCY1JzsdI0vyxMU1WI0uHtKeSf4Qi4Sd3Whq6UBjc4fLi2Cw+sbHjS4CtMCam50mko8RoaskP9gJyGrrGrFnbyUaGpqFEeFxeQX+hy9YHjU3ZEiQ/yjD8GjF2zdQ7pVDY5ElyCk0JAn8nHNe0u9I77pVlqUbATnDjYWXZ2uQBE6PsjmZikRCF89gXiiUva6hqR3VNU0ilFoUKrArbl/cDj0EaG6S/ELGBSUrG16UjYy0FKGrD0YjeeV/VjNqahuxYfMu4ZYo2gAI3HkeDf/L6nlHRfKqh/Dyy7ww4wRlSBE4uQQ2l1ec5pBFnhIqSebVQiFwCE+C4vwsEWBDngWxbNTT7u5etLZ1ornViq6ubrS0dfKiYiwHIYGPJdIDp5KWbhbpgWn+xjpvO/n319TWo7KqHhUVtSIfuh8279cC124gA2sA6c+V7e3/5QpCgYsLJtrUlSb+fEmh0STfB+C8wJ3vn8DJkqFMfqNKC1CYlxkzHEgSITc80qpb2qyoqG4Uj6HcGIFIIUCLpEUFWcJSp2hfstxj1egp8bsNO1BVeRDd3erCZ4Cje0ko/raSIL1oc+Dm6mU3HtKuh0PAAl+sm3Lp6EX/q1XwBziQ3/eE7JvA87LTMWZUEVJTTDEJY6fedHX1ouZgMw42tIrFxm5eaIwVpxyyxyF/daquZDYbUFKUg6wMS8xy7ZBRcrChCevX7wC5JvptQRC405JvkGTdfWkp7X/b8vLiQ9LaSWgCn3bpS+Mhdf8VkH8kBrTf5Q1fAqfHSoqOHDE8F+mpKVG/qMkThCzs5jYrGhrbxeIjN0ZgMBEgQs/OtAgvl6x0i7DQo52SmCzyvfsqsXdvpShe4VVJTq0P3f9FLS5p+SPZLv1f5bs3rjzUankmJoGf85J+Rpr1DLtkeAGQDS7mDoHAafEnM82CwyaXitDoaDWamLTQ2NbRiT0H6tDcwr7X0cKa9xsZBOjaIIOmOD9T1D2NdhRpeXkN1q7bLgpFq4YYXcpe5lZAa935hU2WHb+srM18Cmuu8I4yigwwcbiXhCPwaRf82wKj9IQkYYHsysntZO4gCJyCbvJzM0U+kmgG3VAEI8kiFDBDJbLYBzsOZz93qU8E6FqxJCeJCFLybhGWuVJMNeKNcuTUVDdg46adIgI4DAJ3Ur70uVHuvvBQCcuPzmhEfHiVHc649F9HOiTdUhkY5XmI/gmc5l1mukX4b+dmp0elh6Rhk6fIwcZW1B5sEVn2uDECQwUBSnlcXJAlUkWQl4taGSqS50eeKlu27MG+8hqnRt7PNeTPPVGS2yWHtKi8NuOVoW6NJwiBy9Jhly29BJAfBWD0HdK+CZySDh02eSSyMlKiEp7c1WPD7v01OFjfyqQdyauZ9xWXCJDEQvlcxo4qQl5OWlSsckqOtnrNVhw48L86EH21AP7lpFwCun9XvnMjFWIZsi3uCZwkE8kk3QuABkIkzQ6WwOlxr7QkDyXFORGPmuzptaGqtllUOmlp7fBchBmy04VPjBHwRIDC/KlwNlnmtAgaSYmFXGspre2WrXtRV9/kH/rABC62l4EvoDctrHrzuu1DcezimsBnLXo+1+6w/0uWcYoW/P4InE4qPS0FUyeOEPkkItVIEiGvkdr6FpRXNihlqbgxAoyAQIDC+keNyBduiZHM10JX2dZte7F9x373QqeKeT8ErmwmH4SkO73y7d+s7N+tJbEGM24JfMLFz4xM0hs+lOHMHKjBtS8Cp8e7ieOGiSCcSAUqEE+3tHVgx54aWDt7ONdIYs1x7m2MESCvrpzsVIwtLRSJuCLVyG985apNqDuoKeQTFIGLHnRAki+ufPvmVyLVn3jYT1wS+IxLnz9S1tn/LcsY6w+kQAROPqxlo4uE9R2JRgsqNQdbUFvfjJZWd6a1SOyb98EIDHUEKGdQfl4GivIykJFhiUgGRfIf37W7HFu27VWs8eAJ3GmMS7+tXHbjn4eKv3i8Ebg087IlY+yS9BUg5wcKzPEmcJ0OGFaYjfGjhyESXk5UhaauoQXbd1b1Hxs01K9CPj9GIAIIZKRbMH5MESzJkclz3tbWgS++Woe2Nm1chZsZAoqbsqDuf6anWm8cCtGbcUXgMy5beoxDkt8EkCFurQFGQfsxPa5NnVAidLeBJsCnu3t5TQOqappEiDs3RoARiBwC5HZIC53jRhWI/OYDbWSBr9+4E3v3VPoE/fRF4IBsl4BnK6ydVyZ6Qqy4IXCSTRw6x6v/K6tU5HzW6ZfAM9KSMWnccBFgMJAmLO76FhyobODQ9oEAyb9lBIJEoCAvEyXF2REJptux8wA2btolCmmrrR8CF5tJMh6vmNt5FRYvTth8zHFB4DMu/U+xQ2f/DtAmo+rbAqeE9tMnlQ7Y6qbCreu2HPBd3Q5yIvJmjAAjED4CwwqzMGZk4YBT3TY1t+HjT1a5UtYGQ+DOXi+pnNN5caKS+KAT+MzLXhprl3reh7/oygCjQGHwo0fkDyjhDhVG2LW3Fk0t7Rx8E/71x79kBAaMQFKSUfiRjyjOHdA1TUmxvvlmI4jMQyBwhyRLf6xYftPvB3wig7CDQSXwWYveSrHZW96GhON8z93XAicNrXR4niDvcBcrSecmz5Jde2tgdyTsk9MgTBU+JCMQXQRIHx87shAkjYbbOjo68dXX69DY3OZ/F4LZfeldB+ma8mW/eTjRvFMGjcCp7NnOjO43ZUgeQTpu1H0JnFaxS4pzwx1bkNX93SY/wQBh75F/yAgwApFEgNLYUtGJcSMLw7bGe3p78eln36KxyQ+JByBwQO7SSfbDy9+5bVMkzyfa+xo0Aj9s4XNXQsY/AQTI5eomcBpU8u8eXpQTFh6UznV/ZQPKqxo0ZZ3C2hX/iBFgBGKAANX1HDOyAJnp4cV0UAnCFd9sBBVa9mgBCZxWNaVmu87wvZq3btgcg1OMyCEGhcCnLfr3XJ1Dv0KG3MfxFQIn10DKIDimtCCsE+7q7sW2XZWiWjs3RoARSBwEyHCbOHYY8nLSw7LGKXLzg4++gbXTWVjZpZ70lQJD+jhZTjpl1/JrE6LSyqAQ+IzLn/vWAczqeyopBF46LBdjRxeFFcVFlW82bivnXNyJc81yTxkBHwSIwCeVDYdeFzpddXX34MOPV6G93Rnw05cFrh5Zlh6pXG69Boh/98LQERnIBFu8WDejYuz9AK7tf/lQRl5WGqZMGBFyThPKYlZe3SgWKrkxAoxA4iNgsSRhStlwkYc81Ea5Uyhqk/L1K+uXfSehk2W0A9LJVctv+irUY8V6+5gS+MzLnztCBr4EoO+PwC0pJsw5bGzI5E0ZArftrBKFgrkxAozA0EGAyGrG1FFh6eLlFbX4euUGyKLISlBZRKttNt242vd/E9faawwJXJamL3z+I0mWhctgXwROj0qzDhuNdEto7kSUBH7Ttgrh282ZXofOhctnwgioCBgNepSNKUJBbkZIoJAjw6pvN2PfPioQ0T+BC5qXcVf18ptvD+lAMd44ZgR+2MLnLtVBekpl1r4IvGxUIUYMC81dkMh7y45K1DcG8P+MMbB8OEaAEYgOAkrK6GJQOH4oBEZP5++/vwLNLf1zhFNpOdjjMB1W/971/ZQFis55BrPXUM4/mP353Wbexc8ktZrMq2VZntIfgZsMBnxv7viQKnvQ3XXNxr1oa9esNofdW/4hI8AIJAICk8qUvP+htKrqg/j8i7X9/sRlo8uOj6uW3/rDoMz2fvca+Q1iQuCHXb70TJ2El0j77ovADQY95k4fE1IVHaqSs3lnhahHyY0RYAQOHQSIL9RMpMGeNTk4rP52M/bsrezzJ24Clzslm/2oyg9uWxfsMWK5XdQJfNaix1LscuoeCVAcuZ3itD8JpbggU2QXDKXt2leLA5X1ofyEt2UEGIEhhMCc6WNCykhK/uHvvv81urt7AqKgIXBIkB+vXH7rFfEIWdQJfPqi58+QZPl118kHIHDStY6aVYbkJGPQONXVt2LzjgrQXZUbI8AIHJoIWFKScPj00SHJrmvWbsXOXQeCInAAvb0OedLB927dFW8Ix4LAl0iy/PP+CJwWLWnxMtjWYe3G6vV7uD5lsIDxdozAEEagMC9D1MINtqgLWd/L3/sKXV3+rXCtBa4oB9Jfq969+aZ4gzCqBE7yiUNOrQWQ2heBU+08uoMGW6WDLO71Ww+gsak93vDk/jACjMAgIEDEPWPKyJB8xNdv2CGq3ftrPgQuYX3VsptnxFu2wqgS+PSFz10tQXrIAyA/EkpqihlzZ4wN+u5ZWdOE7burBmGa8CEZAUYgXhGg8opHzBwLWtwMpjU2teL9D1YEReAyYNPrbSMr3r6979XPYA4cwW2iRuDz5i02tIwb+wUgHdEfgU8uG46i/ODcgcjrZPX63SAJhRsjwAgwAloEKOld6fDgYkjI/fiDj1ahqanFB0QfC5yCD2XdQzXv3vS/HCnx06JG4NMu+He+PklPrjfOGpfOk/aywA16HeYdOSloRGrrW7B5e0XQ2/OGjAAjcOggkJRswlEzxwV9wgcq6rBixTofRwh/BA7AVlWXlYI1V8RNxfOoEfjMy1+YKMO+DhJMfVngVNty9pRRQQFOFXS+WLUdPZSUhhsjwAgwAn4QmFw2DMMKsoPCprunB28to8VMzyDAAAQOnYRpFctu2RjUzmOwUdQIfPrCpT+TgOd8n00UaFQ/8LGl+Zg4Jjjvk/qmdnyzzv+iQwyw4kMwAoxAAiBAGQuPOXxcUDnE7Q4Z7330LWprPWNJAhE4JJxRteyWN+IFhugR+OVLn5YkXNIfgR8+tRTDC7OCwmPbnhps30NOLdwYAUaAEfCPgMGgw7w5ZUGlniWPtq9WbcPWbXs8hQL1X94xJjJurXr3lj/HC/bRI/CFS7+TgOn9EfgPjhiP7ExLUHh8sXon6hrZdTAosHgjRuAQRYAKnn9v5ljk56YFgYCMtZsOYPW3mzxiSgJa4DKerXr3Fl/DNIgjRWOT6BA4FW6oHEeikm9Ypdci5hk/mBZ09OV/P9iAbta/ozEPeJ+MwJBCYGrZMEwaG1wZxq27a/DF1xvQrdHBAxG4LOPL6ndv+X68gBUVAp/wi9dykns6/Sco8SLwn506Czq9rl88untseOW9uMwn02/feQNGgBGILQKjhmXjqJmjgzronvJ6fPzFerS1utPMBrTAIe2sWn5zWVA7jsFGUSHwmZctGSvrdDv99l9D4FS44aIfHx7UaTa1WPHGpwlTLDqoc+KNGAFGIDoIFOam4eSjJwS1831Vjfjgi41oanBXsA9M4GiqWn5LcC4uQR19YBtFhcDzYeS6AAAgAElEQVSnXfbvKXqd3r+rjYbATQYdLj59TlBncLCxnQk8KKR4I0aAEcjLtuD0eVOCAmJ/dSPe/XwTGuoOurYPTOByV9XyW0MrFRZUL8LbKCoEPn3h0ukS8F1/FjgtNlx1zpFB9byxxYqX3t8Q1La8ESPACBzaCAzLT8ePjg0uQHB3RT3e/3ILDtbU9U/gEhxVy24JLlY/BkMQFQI/7LL/zNDpHP7LXnhp4L9YcAQoGrO/1t1rx+OvrupvM/6eEWAEGAFMHJWHH84dGxQSm/fU4uMV21FX43ZR7kNCkauW39I/YQV15IFvNOgEvujMw5GWYg7qTB57bTWsnYGTsAe1E96IEWAEhjwCx84YiZmThgV1nis3HsDKdXtQW80ELgALxQK/YP5hGJYfXIXpVz/ajN2V7oWGoEaHN2IEGIFDCgFKLXveiVNRUhAMr8hY/vVObNpZidqqmv4lFIAtcEJJDaX/ybyJmDw6P6gJtmJjOT75lkPpgwKLN2IEDlEEkkwGXHb6TGSkJvWLAFWqf+XDzdhdXscErqIVigV+3KzRmDeztF+gaYPy2hY8/Zb/tdGgdsAbMQKMwJBHID/LgivPnB1UfQGbzYGn3lqD2oMtqK1mCzxkCWV6WRHOOX5iUJPKZnfgwZdXoaGlM6jteSNGgBE49BD42clTMaE0uJzgja2dePK/a9HeYWUCD8cCJ/376rNmwaALbj11V3kjnn57PRcyPvSuSz5jRqBfBIpyUnHtucHFltDOPly1Bys3VcJq7WQCD4fAC3LScPIRozFtTHA6uN3uwD9fXo3Kg+6w135HlTdgBBiBQwKBM+dNwJFThwd1rj29dvx16Qr09tqZwLWIhaKBE4EPL0jDz344KSh/cDrOhl11eOadDWyFBzVNeSNG4NBAgKzv686bA7MxuDibneWNeHbZBkAGE/hACDwjzYyf/mAiaPEh2LZk+UZ8s4ULGweLF2/HCAxlBIx6HW696GjkZ6UEfZqvfrIVq7ZWM4F7IxaqBZ5qMWHqqFyccsSYoMFvau3EHc98ic5uLq8WNGi8ISMwRBE4YfZIkHwiBbmW1tTWib8tXYkuSk8tLPAu1sDD1cCJwGkJ8/JTpqIgO3grfPuBBjzw8hp09TCJD9Hrkk+LEegXgYmlOfj1+XOCchuknTkcMp57fxPWbKsm7mYCj4QFTgQ+YUQ2zj0utFS773y9Gy99vL3fQeYNGAFGYOghoNfr8Ler5yE7o/+gHfXsyQ357udWoKvLxgTub0qEI6EQgRsNOlw2fzKG5wVTCkk5MhUlfenjbXj7693wLl839KYrnxEjwAioCGSlJeGWn89BSX560KBQ5OWDr63Bpr31IhxccAZJKJ0sobhADJfAaQfJJgNuOm+W+Bts67U78MAra8WCBJN4sKjxdoxA4iJgSTLi2rNnYsa44NyP1TNdsakKTy5bD5lyecji/0zgkZJQ1P2cMLMEJ80ZGdLsopDYJ9/egPdX7w/pd7wxI8AIJBYC9KT++4uPxKRRwUVbqmdHMSQ3PvQJGlu7XMQNsfoGdHAgj3sSDMQCp70Y9MCl86dgUmlolYsoZ/iS97aCdHGSVrgxAozA0EKA3ASvO2cmpowOjbyJG/7+4rfYsFupuiMTcWsogglcM08GSuA6SQbpW79ZMAtpyaaQZiCNyTPLN+G/n+8CSSvcGAFGYGggkJOejLsXHo0RBcFr3uqZf/DtPvGErhK3Kp2o33dYKRcK5wMXeAyUwEtyLcI/02Q04KYFs5BkDF4PVwfkiw0VuGvpKtBjEzdGgBFIbASmjMrB/114JLLTgvc2Uc/4601VeOD1teix2RWrW6N9q2Y4+YHXcDZCBbKBEjhZ4N+bXIz61k4UZllw/vFl0AXpoK+dpvtqWnH3c6uws6I5sWcv954ROEQRoOv+zO+PxS/OOEyVq0NC4kBtGxY/uxINrZ2QVeYWBK6yOO1OQqe1E9VM4JEhcEmSkZpkxImzRkB2yOi2O3DOMWODdtT3HuH/e+prfLauQit5hTQJeGNGgBGIPQLJZgMeuu44jBueFdbBaxo7cNk970OCThC2QtoqcSuLl6qUwgSugXigFjhVq6c2LMeCoyYVQidJGF+ShfFhDiTlEf9qUzX+8sJqsQLNjRFgBOIbgR/OGoGFp05BaRh6N51ZbVMHbnviCxyo74AEyUXgkix5uBozgfuZB2ETuERQu+6L4v300bkoG56J1GQjykqyUJqfBpXgQ52CtY1W3L10Nb7ZWgMidW6MACMQXwjkZSbjnGPH4ZL5k8O+zqsbOvCbRz5FVX07oNM5Cdx5nk4jXD1rIYlzNkLPSRAqgadZzC59y5vAyfo+YcZwDMtPRYrZCBrgCcOzwh5cyoOwfnc9rn3wU3R09sbX7OXeMAKHKAJ03R85qRB/XvR9pKYYw0ah/GAbrvzb+7B29SrySD8ErppxIplVVbXruC4PQ9/IQC5qTCipwBXkpCPNYgpI4FRhOsWsx4+PHI3s9CRB3HkZySgblgG9Thf2QNe3dOL1z3fjX+9vgZUzGoaNI/+QERgoAhTvcfHJk3DcjBLow3BWUJ/Z12yvwX0vrgZZ4K7neD8Erg0RUYlaVOThqvTKUEbCAifipkbqFS01TCjNxrFTh8OgVz4nSWVqaY7InzKQVtNoxe1PfYUNexpYVhkIkPxbRiBEBMgg+8n3xuDq0w8L+4laGIMOGV9trMDdS1eCAnZEmLy6QOlF4GINU63eSLlQnH1mAtcM3kAJ3K1xC7d7MRRFuamYXJqD8cMzXUeiyhskp2SQBT+ARgE/5bVt+L+nV2DrgcYB7Il/yggwAv0hQK6BV5w2BWd8b6yQRAfaHvrvWrz5pTtwz5vAVTNQPY42RtuVC6WDLXDXOIRD4NqFSXIjVJuWwCkSa3RhOobnpoo7Nn1Hj1yjCtNRmJUStpuheizKVLZs5V68/OlObN7fKO7s3BgBRiAyCFACqtOOHIVLTp6M/KyBEzctUj7837VYublKjc9RzD0vCxygEmtON0LnqahXNhO4n7ENhcALc9OhFnRQH2g8yJxkFAmgeneqBj6xJEvo4Cq509/cjCSMLc4Kuq5mf1Pymy3VuOPfq1DXbOW8Kv2Bxd8zAn0gQJlFZ43Px58WHg0i8YE2kkF2lDfihoc+QnePXSFtVTLxIXAib5JZ+yBwO9fE9BiT0Anc6CRjZTcqgWt1cC2B63VA2bBM5GdQ/TunzCIBSSYDxhZnINMSeritv0lFroab9jTg2fe34PP1lQOdd/x7RuCQQiAtxYRfnD4NR0wuwoj84HP89wUSVd/6x8vf4suNFSLdhtbadlnVHhZ4AAL3CKmXnEWN2QtFYD9wAlf0EXWtgRYytQRO/6YippNG5CDD4iR/58Z0ry3OScWw3FQYKa1hhNqeqhY8/e5mfLWxCi0dPRHaK++GERhaCJCkOXZYJn4wqwQXnzQpYk/EJG9u2FWHp97ZgO0VjcJ5W3Cwhqz9EzgxgkZC0RK3YBglK6GSzIoJPHwCd3mdKJgKS9w5t/0ROH1FHkfTR+chLdno8xuDXodpo3KRbB74I5t6idHYU97xlz7ZgUfe2ih8TbkxAoyAggA9/d579THCeAond1EgHOlJ+NE31uKdFXtARK7o1gMkcHJBVn2ZmcA9oQ/VAk9LdXuRCNL2JnDSwLMtLg1ccS1UpJYko16E2KueKCrpq7sh3XxUQQbMIVT4CeaCJN/xFZurRAGJLzZWc2HlYEDjbYYUAnStUX7uc48fj7kTCzChJHtA7oDe4FBO//e+2Y3Xv9yB8ro2VxbB0AhcK6G4yUXsw4PAO7gqvToAkSRwEVwvyQEJnMjcRHJKaQ5Ic/MmcBp1nV7CqIJMZKcnC+kl0q29sxePvLEe63bVY3dVM3psHKYfaYx5f/GBABlN6SkmUHrX844bj6OmFntcc5HoJS1S7qluxpL3NuKbrVUe6V9di5VBW+AqgXvUb1BMQHGZKrH1HZ3sRugau4ESuLp46bpfSg4UZbu9ULQWOL0X7oR6CZNKcpCZanb1wxWW79TTibxHF2chK031YInEdHPvg/IN17d04fkPt+GNr/dwqH5k4eW9DTIC5K5703mzMW54JrLSzAN22/V3Oh2dPbh7ydfYeqBeeJi4OFblWlcGweAkFEmnELjWS0XZlQxo3IRFRR6OxFSGJFwCV+QT34RWigXeN4ETi5sMOowpzECu8E5RlRjZc0FUAjJSzMjPsiAnXdkuGo10uxWbqrFhbz3eXbVfJNZhr/JoIM37jBYCJE/OHl+AIyYX4phpwzA8LzKeJP7629LehXdW7MQ7K3ajpaNbbEKWeOQJXKFyDwlFrYnJBB4+gXta3V6BPEESON0AaGGzbFg2cjV+4h4eLRqNhSI5xw3LEb6p2uNH44KghPJ/e3EtNu1tEL7lvSyzRANm3ucAEKDEcZYkA4blpuHEw0eI/CTRbHSVt1t78MlaKne2zkWsav6oyBK4Hz9wjdLJFrhmpEOxwIvyKJCHHse8oy+VHTodfVCY438RU5VQVJJWSbw4NxUj8zOUBy6tS6KGwMW+JQgCH5GfibQUt/wSrYlLuRr217RiR0Uznl6+CeV17RwoFC2web9BIWBJNuKYqcU4+9hxKMhKQVGOJeoGTVe3DUs/2IQVm8pxsKXTmaPbKYs4qSAyBE5rXqroqsDhklOYwP3Pj9AJ3OSxeu12H3STeCgELoZLAgoyU1CanwGjkXICO/flReCu6E9KkJViQl4G3ShSBpTpMKirxrkRTeRlq/ZhR3kz1uyoxYG6NrbOQwGQtw0JATJYUpKMOIzy7Jdk4YhJhZgzoTCkfYS7sSzLOFDbilVbK/HmlzvQ1tnj9ixxxrQLco04geudoomyYw8CJ0BkKCXVOJ1s6BJKUV6a0wJ3EiylCnNa41oiD4fA6fcpZgOmjspzBRR4h+lrCVxrqZNFnpeVKqoBxbKR69QH3x7As+9uwYGDbejptXNOllgOwBA7Fk1fSrucnmzEtDG5+PW5s4Sfdiwb+W43t3Xh3hdWYOv+ejdBO9nUTdrRsMDVRUz3Mqb6Tim1pjB6Z4eVCVydFKFZ4E4Cd9rIykKm089btZqBkCQU1QJX5BcZRpMe44qykJmq5BNXm8tLRV3w1EgttA15rZCsUpiTBktS9OUV74uqs8eGbfsb0dDaJaoIfb6hUpSEI5LnxggEQoBiHkbkpeKUI0ZhVFE6SvJSMbIwI6I+2sGgT8bH+6t2CVdAQdwOL4IeFAJ3+bC5rHG6oygEXuM6LdcVxgUdvIbaCYgqP5EGLiryaMjah8AlCYXZKX4Defxp4N4ETrlsiKyH56RheF66K0qsPwLXfm9JMqGQik+kmGHQRy5EP5gLQbsN+ZxT8NB3uw+ipqEDe6pbQJ/xomioSCb+9mSMmI0GFGWnYERhupAMj59Rgtnj8yMaCRkKUna7AwfqWrBuZy1e+WSzeIJ0+2475QtVIokpgbvPwm3+qIWOyQInCYUJXKAUmgXeF4E7XQolRITAiZCTTHpMLs2DyWjwqb+plVDEg4D7Hu2yXijXgyXZjNLCHJgimGsllItE3ZbS3XY5JZbKg+14/O2NWLf7IJraFDcsbkMPAUoRQZk4T5k7Ej89YYJ4SqSiJuRRNZiNHgrXbqvEE2+uRXtXjzAolCrwGs1ZfR9rAidfcFG8wa2Bq2GYqjuhooEzgQ+cwIUfuKdHiqSTUZhlQZazpJq/QB6tF0ogC1zxOpGFJjgsJw3FOe4CyWoIv79ITkHmPtILVQUyw5JiQm56KsymyOVcGeiF2NHVK9wVqdqQtbsX63fVY92uOpGEi7xguMU3ApRHhNZuhuelYu7EQpBHVWqSUtR7dFHspZBAaPXa7Fi3swbfbqvE6m1VsHY661A6FyLjj8DpuV+lcTUIUxFaO60dTODqQIdrgXuWUXOTpk6SURBBAle52GzQo6wkV/EDd5rcoRC4Vq+nR9ni3EykJJlFFsRo+5WHS0FUC/TT78qxanstmlp70NzRJSz29q5e0OMvWfWssIeLbnC/UxcWKfCMIocz08xISzahKCcFx00vEaRtGmSL2t+Z0Lzo7rGhqr4N322vxOufbwN5lpD1rS4GqnNHlC6LKwvc+UTgSkAtOa1y5Uw7rbyI6Rrz0Ag8A2mpZk0+BdmdD9y5x2gROBEwheBnWswYXZgNvcHtbhhIQnF/7pRYvBZcybonAs/JSEN2hiVm7ojBUYfvVvSo29rRLQo70+IoWe/fbq/FZ+srhI86ZVzs6lF0TG6hI0CSG7ntUcbMWWX5OOaw4RhZmC5quyqL5CakJnu60YZ+lOj+gm7qjW2deO7dddhf04SGlk6PG338EzhlHlQNE40wqqmJyQSumUNhE7ik1sBUdqZaw9EkcDWAiNwFSVIpyE6F0blI6U8D74/AXd87PVoUmSUZqSlmpJijkz8iupcvhJ5J/ul7q1tQWd+O7l6HWJxq7ehBbbMVtQ0dqG3pRE+vAza7XRSH9l28j3YvY7N/ImTSoQ0GHZKNepGNjwJfKACGnuTIcib5gzw/RhVnigXGSKZWjc1ZAm3WbmzYWY3yOvLbrkBDc6ezpo1T11atbsoJFe8WuKjI4z+ZlWqYMIEPgMDTKZ2sk619JQwKj4+OhKJq4irpKqXb0lCSpxROjgSBe/iZA8hOT0VuZjoMRgN0omL20Gt0UTS1dWFvFUWcNmLr/kZU1Lejq8chbgaknVIhaSJ6u12G3eEQ1r/I9ewgQnC+p39rF7y8ofJ+LPADpiuWQJKETz+lgSZ5S3kviZqqLlKmBUGjXljGJqMkPDzGFKWLNKmjijMwujhDZOIbao1gJPmsraMb1Q2twtKubnDm7vEgZ7fXhiKRKC3RCZyueyv7gbundUgWeH4G0qmqvD8Cp4vMKa4VZKdEbBHTdVE7FzW1BF6YlYoRBVlRI3BxLAnCFZEWPpNMRuRkpMNIXjExDhoabCIiEqAMjpR1jspj9fY6XMQuiN6pyQvrSROp5+q3lsD9LDKridFUzVn12CDrmd6T54bZpBd/yao+1Brp2Vv31eHT7/YI8q6oaxWY+/McUT4bYgSuDrgsOwmcvVAEJJEgcEFmslKOlN4UZJMXCkkQ7swG6nvtAqQavOP2SlF2onyueKH0ReAFmakoLYw+gatzR/WoIYswIy0VyUlmmI1GJJlNwkLnxghEAgF6yqG1jj2VDWhu68S3Wyuxu7JRLEJ6Ljw6vTNcaVu1C5RDicA1d39ZYgtcO8kGRuBqOlllj7EmcMqFMqooO+oWuDeBKzcXN4rqAmtedjbSLBboBzF4KBIEwvuIPQJi8bG1A++t2I6vNx6AXStJqdLUIUng5JHiZhf6B0somvkZMoGTF4rmhqglslgTeG56CkYX58QFgWv1c71eh2SzWRB5UlISLCkpQoY51GSX2NNg/B+RLp0e4d7Xgu+2VQrX0PrmDhyoaVL0aRdZu3Vr92dD3QI3QNLpnGH82hhMjbUkCJz9wF0zPRQCL6Y0rhavUmgabEUySEkWq/2RCuTpS0LJTkvG2GG5cUfggaJEzWYzMtLSYDAYYTDoYTQouc2Z2OOfeEPtIckdYrHR2o3GVivaO3tQXtOElZv2C3lEWSZw5htRlEcljP2QJnC9k8DdaLtC+9WPmMA9p2JIBJ6XCSpq7OF94vyHqgDHksAzLUkoK8lLGAL3zHUuQS8pgj9Z5+np6UhJVuQXJvRQ6TI+tu/q6UVzmxUrN+7Dxl3VwnOHaq529dgU/drbhY8JXHgyOe9fkHRGSDrJ+Zk7lN7TgcmpgVdWuQbd9T0ns/K6ELySWRV7Ebj3giT9OpYETuXWxo/IT0gCF1g54dZGidJHBr0BJpMZBgN5u5C7HC2UJjn/zRb7YNE1EXJvrw11Te3YX9OAtvZu9NhsqGtsR3ltk4h8VMlITUKpdeFjAneTtWsxNkgC1ybtEBo4E7gCZlgWuJcboeo1EmsCT082YUJpwZAjcPVxWvPU6BJEaeITwadaLEhJToFOrxcRpGS56CSdyxuGrfjgaV61jsn7o7vXJjTq7t5e8beprRPb99Vg695qYU33mfDJafDQGDGBaxNjBVvU2L8F7hnlQRp4O6or2Y0wdAIXfuBmHz9wDwLXOTXwNCWf90CTWfWlgVPSoEkjlQol0QjkUW5IbiLQZicOJVe5q29eOcwDWeD9Ebhq5nm4Vut0gsCJzFXTXq83ICU5GUlmM0wmk/hejMkhqLuTl4caedrR2YXqgy2orGtEdX0LbDaHCEiioCWSQSglAVnb2nHwtp61+US0i4xsgXvmWvHQ+jXWtn8LnDRwvSKhOC8OrSqi5mvhRUyNcRKSBd4Xgas+2xKURcwYELjFbMTkUUzgLktd6y6regxrovBUcqGvSJYRL4NBSDPk2+6y2iWKeFSsefFX7/zr/Ey98dDhtNGTyg3PT4hlkMYwWcKij6q7nEeSJVnk9OjpJevYhu7uXnT3UO6XXmEtq8m9HM5I0c6eXrS2daK53YrGlg6xrTZhU3+LhlqCVvrkj5i8Fx7dui1b4OFY4AqBa+epGhSm/YwJPIIE7h1sQ1d07AjcgMmjitgCd46nj7XinPVaS92bmLQXhuu93/25E1R45ECkCM1eG6ydXejo6kJ7R6ewZB2yAw67LKQdaor1Lwki7HUoped6qYCAdnFPJW/VE8PLK0Ptn6enhkr6Sqf70pyZwOM/lN6TwN3pGZjAA1hB4VrgqqHlqrKjKXUWKwKnRESTRxY5pRo3/fjLB65dKPTwonHqLx4SjAarRJFQVPJyWeP9WOD+SN1NkMq3RLKqRSwI12ZTcqOQPkxasc0mZAlhOTt9mIX+63DmTBH5UxywEWFT0iw/BOtLup45VbRkzQQ+1P3AVQvcOQf8Pj1yKL0HlYdM4BTI46ULe2q5sbPAFQIvVDRd94OX34IO8UzgmodNpxnplY1NkCNNamfiKBIDKOWm03oViaXoO0oy5VByKbvlCPUxX2FY4mRVD7aLbIR2Qcw2mx02QciKUOnhk+wVqh3QkvXjy6zsS0PKmovSv88zE7i/Jwn1RurSjvuQdBI5Fwp5XfmuAanSlHLSVi6p5ubwUAh8WEGGqInpj8DdBR6AvKzkmGjgySYDpoxKfAJvbGpAa2uTa1C8ZQDtxetDeiq5+1i3TmstGO3Wi2CZwAMVPfCfe4QXMRXpStz6/c63YL1Q9KDq84rrg3qrUkPp3WPCBK6xwQdO4IqnhtYKjyWB0yKmWIBLYAu8sbEeza1N4hw8vBtcF4SmXmGfkXra8GsmcN+FRzeOvIjpGaofLxV5hAYuCjq4YzBdTx3ONHdiEZPdCBUWD5fAFddBCbLT+2RwCFwvNHDKFZ3QBN7UgOaWRibwQV7EJClKhLdrrUg1Wo0+c2bddFGLj2TEXigDtsDJDdZF4C5FUaTKU4mcCXwAFnh6apL4ter7PagEbtQLLxQmcOdE99CX2QL3tsBtlMe8pwtd3V2o2r8Hlft3ovLAXjTXVbnXDLwFWNd6jwS90YScwhIUFI9CybjJyM4rgt5ggsGoVG9yrTtwII9XwFMIEooHgSss47bAlaeGThGJWe2WHNV3HErvsb7pyqzj9L/HsIJMpKea+yZwSUYe+YGnRj+QJ0kQeKESiZjAEkpTUwOa2AJXRtCrsk8oXij0296eXjQ11mHP9s1obWpAd3c3air2o3zvDvR0Wb0meGT+qdMbkD9sFApHjIU52YIkSzpGTpiBjOx86PTGgDm8OZkVvHKhKMmsxD1U1RPVpxxNmTUm8LAtcP8E7kpkJUxzJnDvbIRKijlF1/NxYQTQ3NwoCJy0/ETVwMlNkDxZuru70N3VDZutF2Tx2p0uhC6XRDFHlKAhulh1OqVcHZGgyNJoNMBgpMLBop6aO8bWyzdcuCva7Ghvb4G1vQ3bN6/HR2+9hM6OtsiwcoT2UlA6Hkef8lOkZ+UjJTVTWPEuq5KTWfkQOM0FD4lK+1TpHJNO1sDD9UJxE7hyHSqE5BnurnihZMbAAqfyWlNGFoLyb8eDBU5ueN1dXag7WIfV33yDNatXo7q6GrLscOc41kxIZfFXgs1ug91uE6SWnJyM0pGlGDtuDCZOnIi09HQRKUkvD9e+YNzxAnoFeLsJerr5BeOFYu+1oaWlBZ9/9AG2bFwPh10h79aWFrS3toBcFENpOp0eScnJSLGkItmS6krklZRiwcRpszHpsFmwpGWI3C/7d+/A+/99AV2dHThYU4muzuhY1qH0P5htswtKkJqZi7knnoe8YaNA5xxYTz/08oETHiIfON2cXZNQxcG9qCm8UHgRM5xFTIXA1erwWi3c7UaoWOCZTn/xaOZCMRt0QgOnGomxJHCyqDs7rfhu7RpUHChHXW0NPvv0E2zbutWlgwZzQYeyTVpaGmbNnoUx48bAnJSMzIwMjBtfhsysLFDOE0V+iJ4XCkkRO7ZuRVVFOTat/w7rvl0VSvd5Wy8EDOZkzDzmRygYMR7FYyZD75RaDuV84ETgVMlae1NTZCZt2Bn5gXexBq7Op1C8UIYXOPOBO01uQZvO924rXEZeZgoy06JfEzOWBE76ak93F1av+gbXXrlIRCPGS0uxWLDo6qsw+/DDhRWrlnTzCJvXaIk+LnQB/MBJ9mhrbcWzTzyKVV99ES+nG5V+uAwQP7lc1CCqqBzYKSn98PzrMHryXKGZ+96MlSMfCjUxVQtcOWGHh1Gi4s8ErpmJ4RG44raneliJOei8SZLFLSzwGBC4yaDDlChb4F1dnXjikYewacN6fLvqm7gibn+EQmQ+rqwMqWmpOOLoozB79hyYkpL6ToPqReD0dPHCkiXYu2sHdu3YHjXeiuWOKRtjXl4ejjrqKMydOxfFxcVCsqKbHemu9H1KSgqoahK9p0Y3aYpsbW9vR2dnp3hP0hARaXNzM7766it8+umnqK2tjci8SOuyItIAACAASURBVE7NQMn4mZh70vlIScvxWPw8ZAhcr3M+xXqmZ3DPFSroQBIKe6EITEIi8ELfRUwVWA8LPDs2EgoROIXSGw0UwSWmuPjvQHOhkJ67Yd13WP7OW3hx6ZKoySKxIrCRo0bh1B+fjpy8PIwtK0NSUrIAyfW47gzNr6+vx1eff4YXl/wrIc+ZiJgqG02ePBnZ2dkYMWIEfv7znwvCHkiWxGDGiYj9jTfewCuvvCLIfe/evdi5c2fIawHqsSbMPRETDz8BucWjNAu5h0AulIAE7l5tUwo6MIGHQeBZSE9VrBMBJ/GlKqFoojGVRczoSygmvQ6TRhbAZFRSUHp4ePhIO+7HBB9PEFffZezYthULL/oZ2tvaRG6QodSIxMhCLyoehl/f+ltkZWcLbw/yFHn6sUfx5aefoKuzc0CnTCRKhZyJQMnaHTt2LEpLS2GxWMR+u7t7cPBgnbBaN23aJF60GEoae6gLn8rNWhJE/eSTT2L69Oli8TM1VVkEHcxmtVpBLzq/hQsXYteuXSF3R2cwonjcDJx4/vXC3/yQkFC0BK6kZBdBPG7zzJkLhSvyKPMpNAs8CxkWhcBdhCkKBGj+LSSU2HihGPWSsMBNBg2Be/VFS+z+Mguq32/ftgVPPPIgPnxvecgXGv2ACGP8+PE44YQTUFJSIh7NiUhGjhyJwqIi5OflISMjw/V4LiYk6eo9Pejq6kJjYyNqamqE1wqRGxEaPbK3trZizZo1WLFihbDswiG5QCdEBD591mysXrlC3LBCaSQznHTyyTjm+98XhD1z5kzxovfhNrphkuW6bt06VFVVCWw+++wzfPTRRwIjtR177LH48Y9/LCztefPmCdkj3hv1/9VXX8WGDRvw8MMPC1km2JaSno2yGcdi+nFnQ29UzrWv/OQJncyKCJwyrgnmdgfxKASuXNxKJCZb4KETeEEmMpyBPAJe4c/rmamAPo8lgVNFHiLw4CQUrcuj0m+xSPfUo3j6sUeCvZ7EeRcWForX0Ucfjdtuu028j0Xr6OjAc889J15tbW1oamoSpB/tRVW6IdHNiF733Xcfpk2bFovTdR2DrNk333wT5557btTlkFic2AsvvIC7775byCzam1Nfx07JyMPJF92KrPwSQWb+YwbUhFJO7w1Nml/at4sbvdxQ4ycXCoXSa7ypBCDaq5vSyXIuFNc8Cc0CJw08ydP3W1LjNN3kSPnAieijXVKNLPCJpYUgf3Dv+7UmAlrjp+52R6K+bVi3FrffdAMqDuwP6poleeDKK6/EFVdcgaKiIrEoNtiNCJysVSK4559/XkgJoVh3/fWfznnRokW4+uqrMXr0aJcU0t/v+Pv+EaCnKZJWnnjiCdx77739/4Ce9IxmFI2biR+c+ytI5D7qx7socS1wpSamQuCKPuvOLuMmdSZwzVQJjcBJAzc7CVxdMNSQIoWlSEBeZnJMCNygIwIvEATuT/92P3S5PWZoO5Imnnn8ITz8j/uCumhOO+00IY0QcSfC4zotRv773//G/v378fnnn4vHdjrnUBp5aVxyySW4/vrrkZOTE8pP43JbKlhMuc6pSPHemiZUHGyBtYdKsVGOdAq0gihQQZ/19BJWyrxOMRthMZuUotE6pdScUa/D8LwMjC3OQW5GCozCk0U7A0OHgG7Ef/rTnwSZk1TWXysYORGzTvgZCkZM8AkGSngC14TSq/llCA93MitexAzTAlcWMT2iL50rmS4vlJgTeD7MRmXBytPqdt5gnGequjx2tLfjZ2f9CBUH9vV5jVC9SJIJyE2MtOxEb//4xz/w5z//WWjqZK0HahQwdNNNN+H2229P6FNus3ajpaMLa3dVYcmHa7GrstErHCRyp6fXSTh6ciku+MF0lBZmIzXZhCSTUmc01EZyyqmnnipcFGkdpK9GC9A/vPA2FI+ZCmgLIQirPAElFINRkcec/Rd/NTE8TOB+ZkNoFrgzElP1QhET1IsoY0rgwIQRZIEbXCqZ1jddkLpmUbOuphrXLLwQe3f37RFw+OGHgwjviCOOGBJ6qzrsZM3QI/u2bdvw2GOPYfny5S7LnC6cW2+9Fb/85S8HpOeLhVmq7mN34GBzB6obWlHfahWl2MR46CSkJZuRk56CYbnpsCSZYNDrhVU7UCtWe55bDtRh6Ufr8N63O2FXKwyHyqZhbE/zrSAzFSPyMzE8Nx0LT52DgqzUkMl8/fr1Ym3lnXfe6bcXZXNOwhGnXSaKIbh18UQkcIOGwJ1aPhN43+MfKoEr2rbCih4Lh6qlKwicNHBKSORWsdT3KsGqVrxQuZxufOI95TBy3SDcyZ/EZ84FU+U9oNcpBJ6kIXAtaWvf79uzG7+8/ALU1rhXr72RIXe0m2++Wei9oTayFKg8WVVDG3ZXN8Da1StIq761A3uqm1BV34K6lg60WrvR2d0rgkeUx3OjILHinDQMz8vUkJpO3JjyMy0oLchEarIZZOlF0p+ZLLz7779feH2Qtk8eHaE0Or9t5QdxoK4FDa0d+GLjPmHxhkuYJbnpmDOhBJNKC5BsNggsSKZINhtDJkD1PHZV1uOxd1bji0370NUzOG6heekpuPzUwzGuOBeHjVZy9wTTSPZ64IEHxIu8c/pqeSMm4bjzbkBSaqbLgnUtTGoWLON6EZOcEbyeJIgMBIdrFjbZD1wzE0Ij8Czh3+0ZPu+2wEV8pssCjwGBS0Tg+TCbVAtcOTH3g6ssiP7A/n0470cn9OmCN2nSJKxcuRIkIYTSiBQ+WLsTf33pC0HMVBQgXALzd1x6DHflO5cknDqnDJeePBsFWWmuxdtQ+huJbWsa23DLk+9i0/46pQ6nbx7mSBxGkDadO1nnV/9oLs46Zqq46YXTaJwu+evL2FpeH87PI/IbOh+6Gd196Qn4/hRKZhWcxEKyCj0Vkk95X01nMGHBTU/AZLYkqITiReDOk2UC72PUI0Hgnha5uogZGwIfX5KPJLOXBq55OmhsOIhFFyzo09PkrrvuEvJBMNYtkdXW/XV49cvN2LK/Tligg9XyMlIwbXSR0FxnjSvGCbPGKU8jYWiv/Z3D/tomPPPeWqzZUYny+pb+No/a9yRLHDamCHPKhuPkOWWu9Y9gDkgLmR99txuPvPWNWMgczFaYlYpjpo3C5fNnIz+z/zUW8lihhWlaSO/LZTQ1Mx8nXrIYlsw8xZMjgdwIdQaauxRKr3qhKCPkQ+BWK6or2A9cgDNQAvcXHBMrLxQyYASBuyxwdyg92TYtzU342ZmnoL6u1u+1SoE1L730Ek488cR+r2VaFNuwpwb3vPQ59tf17yXQ7w6jtAEV0rj0pNkYPyIPIwsykZthCVt+EJp5VQOefW8N3lm1I0o9Hthuf/6Dw8SNa2JJvisiN5g93vfyF3jx843o7g0t7W0w+w51m8tOmoVzjp2Kwuz+n/5I7jrrrLOwZ8+ewIehJ7Ur70FWYWmCEThZ4PoABO4O++5gAnePfTgErrXwFF3acyEzlgReNjxf6KXeejyRzw2/uBQrv/jM70SnwJSNGzdiwoQJ/Vqs//loHZ58bw0a26weq+KhXqix3j7DkoS0FDPOnzcNZx8zJSRrlRYib3p8OVZuKx807ThYvGhtgG5UC+fPxlnfn9LveAqrTpZR19yBa/75BnZWNQZ7qKhtl55ixiUnzcLFJ87st/+UeuDMM8/Exx9/HLA/xqQUzF/0Z6RnF3pk9ItnDVwnNPBABO4+1Q7OhRIegZcUZiEjTQnkUR9ufHKDS0Au+YFboh/IQ2vuZR4WuNvr5MmH/o6nH33A7wSnsHcK0aZcHX21lVsP4MH/rhBab6I30l/PmzcNv1nw/T4JgiSiVz/fhPte/RKdg7ToNxCsyS97wTFT8dPjDxMLv/01a3cvHnvnG/zn4/XosYXmK9/fvsP5vmxYDn71k6Nw1OSRHknZvPdFEbm/+tWv8MwzzwT08U9Jz8GJl90JS3quy4UyMQhcDePRFB7ReKPQuXNBB+eMCMUCH1GYhXRB4NqIRlW2UD1T5JgROPWjbHieWBiipvartroKZ88/1u/EppSh9Bg6bty4gNdXd68N97/6FV74dEM412Bc/mZccQ5e/t1P++xbc3sXbnj0HeFJkuiNZLV7Lj8Zs8qGCS+f/tpXm/bht898IHzH46GRT/mVP5rbZ9/pKeKiiy7Cf/7zn4CJ10hTPuOGR5FM3ilxHkrvssBFT536vcb7RB0XtsA1MzR0AlciMdWmli10BfIg9gSeZDa6JJSmhnpcvOBHaDjo32qmhaALLrgg4DVaXteMGx5bhp2VDfFwHUekD/R4/tLt5/epsa7dWYXbn31fuEEOpUb+2L/48VycOKusT4uWzpnO/ZcPvond1YMvqVB/xhRl4/6rThU+5X21O+64A7///e8DbpJdPA4nXf5H8eSVEBa44G9/+cAVllEI3G1kuMxJrkrvNQecgKgPlooF7iRwNQWrR/Y/xQqOlYRCxxo7LNflWkZdeeqRf+AZP9IJ+V3fcsstII+TQG3d7ir87l8fCr/modIyLUl45sazMKoo2+8pkRX34drduHPpx8JHfSg2MjJOmzsRF/5wOsYNz+3zFMnd8I9LP8Y732yPWuRmKBiTvn/HRT/EqXMn9Pkzipy95557AnqoDBs/B0ef9UvoDGaPJFhurnQSprqipeZYcbKjR+Is5z/E6pf6veyuY+mbZEuRRChdgTieJixe+xnVOxUauLqVRySm+7mfCVwzFUK1wDPSvPzA/RJ4ikg7G+1AHhrS0UU5sCQr4f2V5ftw3mk/8DvRKSf11q1bRdFgf43c5H7255fQ3tkTyvUV19uS7v23hfNx/MwxAfv5ybo9+PVjy6Lmyx1PANEc+dOlJ+LE2WX9+mA/uexbPPTmirggccLw/GOn4sZzjxXBXIHa5Zdfjqeeeirg97NOuQzjZp8UvwQuihprCdxddEQlfsUC53SyrkEOicCLspR0slrSdr1XyqzR/TU3g5JZxYbARxZmi9Bsqup+8y8XYtXXn/tM4NzcXKxatQqjRlF1E9+2aW8NfvnQW2hqjw/9M1Kkt2j+4bj69CMC7u7FTzfgnpe+APlHHyqNZITDy4bhrktORF6mUmTCXyNMPli7C7979kORGmCwG/X7+MNG4S8L54si3v4aRW5SFDGlSQjUvnfuzRg2fpYri6G4YrW5RwbTAncSuIusPSxwZzUi2SmhVLEfuBjjSBC4St0SzQSJCDw2ofRkgZcWZIM03r27d+Dy889Ab4+vDHDnnXcGTM7U3N6JS+99DXviRPeMFFGMKc7GkpvOQUqABbyVW8tx7cNvoScO/KAjdc6h7Ifyk/zxohMwe/zwPrXx/361BX958bO48cg5cmIJ/n7VaSL62F+jHPHHHX881nz7rd/vM/JH4KRFf9FIFfFE4AZIdHNSQ/9dBK5NKqtq4EzgAydwKujgXkFwSiZATgwt8JI8KjKRhAXz56G2usJn0pLXCVW78ZcGlnJ5nHPn89hXG7+BOaGQkrot3dDevvNCpFv8V8fZsLsal9z72iFlefvDkeSIX515NC784Yw+YV69vQJXPfCGSNAVD60w04I377wQJmcWTu8+UY4bqo60ZcsWv90tO/IMzPjhT13yUPxY4EZI+v6zEbIboWZYQ7bAvf3AaV+aepgko8SSwCkv8+7N3+GGKy70mazk771s2TKRy9tfe+6j73DfK18NOf33Fz+ai8tPnePhLaSef21TOy6/7zWUHxw6C7UDJdUzjpqIm8891uWO6m9/n67bg98+8z7Ibzwe2venlOL+q04LKKesXr1aVIvyF3ZP9TVPvup+EW4fXxIKWeBOAneudGrcv103HCbwsAk821WoQSmWQMztm3c7lgRenJOBx/62GO+++arPdUVWyJdfful34XJ3VQPOuuP5eLgWI9qHiSPy8J/fnud3n2RBLrr/9SHh5x1R0ADMHFuEvy46RaS5DdTeWrkNf1jyUdxY4sdOG4m/XXGKKCjhrz344IO49tprRdSpd5s5/zKMnX1SnBE4LWI6S6qRzB8gHzgTeLgELiIxvdLJDjKBZyYZcPHpx6C3x9d75MUXX8SCBQt8Ji/NZ/L3/XJzcKXUIk0W0dofVYt5/LozRPCKv0b5se999UuRQZCbLwKjCrOEv7zRWSTbewtC7cM1O3HzU+/FBYaUzfCC46fj+rO/53c4qcoPBaw1NPjGNKRkFeG0a/4RZwTuLKkmuNvtB66enGoqUjrZKvYDV2AJTULJRia5ETqbktvbywKXJOSkJ8XMC2X5C0/h7Ref8ZnAVLE8UPrNzftqcfFfX0FvnGiakSLTOeOH4ZFrz/Cbb5rO+ed/filu3OIidc6R3k9Rdhoev/4nKMnL8LtrShX80Bsr8Mx7a+IGy9/9/Hic+b3JAa1wKtLhrx130Z3IGzE+jrxQ+iNwxc+NamJWcVX6MAi8OFvJB+6XwJ2+KBJiRuA9XVbcff3FqK+p9Jmf//znP3HNNdf4fE4ywvE3PYnWjqEVtEJ1QT/960IkJ/nmy6ZH6F8++NaQe+KINHmr+0tLNuG/f7igTznlzuc+FimF46HR2L979yXISvMf45CVleW3zmbpYcdh7o+viiMCV/zAqXla4KqDsuJKaO3o5EhMdeKFZIF7Ezh5oWjzogiLPHYEXlu5H3+6/mLYen3lEwraoUyD3u3rzQdw9T/fiIfrLqJ9OP2oifjDhT/0u883vt6CxUs+SqhMihEFJ4ydUSrel//vpwHlFEovTE9x8RJ2P6W0AM/edLbfRc3zzz8fL7zwgg8KOcPLcPxFfwBE9GMcRGL68QNX62Nqn/M5ElMzlOESuLuIgyaxVYwJ/KM3/oPXn33QZ2JOnz4d3333nd/LlirJvPvtzjAu6fj9CUVcvnDbuSKxl3ejBFUL/vi8SJ3KLTQECrNTseSmBQEDftq7enDOHc+junHw88ckm4xYeusCjPaTMuHvf/87rr/+ep+TN6Wk47RrH4JehNfHE4GTWaisYApnFArp1nhwMoGHSeClxeSFkuQR+OC2wJX6lVS0ljTw9BiE0t92+RloafCtiPPee+/5LdLQ2tGFY379RGhXcQJsferhZbjrMsWjwLu99uVm3PFc4LzRCXB6g9pFitp8/PozAwb7rNxyAFc+EB9PdLeedyzOnTfNBy9yKZwzZ45fHH98/RMwWzLigsD1OvIDp4o8MhxOLzdX3hQXgcvOUPoa1/lwMiudY63f0fVKZuWfwBVkXRa5U0KJNoEfrCrHHdf4usvl5+ejvLwcJpNvCtEH//s1nnx3zaASQqQPTmlT//WbszG+xNf6pqrwZ9/xPFqsQytFQKQx7G9/pxxehjsuPiGgz/Wz76/BP17/etAlqrkThuOx637iczpWqxUWi/+0AYeffg1GTj0mLghcRxKKXinooDaFwNVMWcqn7EYYEQtczQOu7MyVTjZGBP7l+//Fi4/+1WeyHnvssaJSCWUf1DbKZ3HhX14e1BqW/RFFON9TAYAltyzwW23n8XdW4+G3VoazW/6NFwJk3S44dqrfYhhUzJr08O0Vg1cwmbpr0Omw4oEr/er2U6dO9euVNWzKMTjqjGvimMCdOVC0Eoq1A9UVbIGLKRqKBq5Y4EqlHfqPdxkzxRJXFjGjbYH/5+G/4OsP3/Qhmuuuuw7333+/z+cNrVacsfg50OLTUGp3XPhD/PioiX5P6czFz2HPIBfvHSpY0xPm3xbNxw9m+M/sSBGap9727KAnRCM/9jI/KXMvu+wyPP300z7DkZxdgtOuvjcOCdyd/0S889DAuSKPayBDJfDMtCTPbIQe9TBlJ4EnR53A77/tKuzZ6lsxJ5D+/fnGvbj2obeHCp+I8yjKSsXbd10ECuDxbh+u3YUbH18+pM53sE+mODsNT994VsDCGJTd8U8v+K/BGqu+33fFfBw/Y6zP4ShX+M033+zbDUmPc377PGSyxtQc4LTVYOQDFxKKUpVeba6c45rPWELRDGNIBD6M/MD9EbhzAVOY5jJy0qNP4DddOB+d7a0eE5IKFVP0WVqab3Xv3zy2DB98tztW11FMjnP+cdNEDg/vRr7up/z2GdS1WGPSj0PpIGOKsrD01vNAaw/+2sL7XsXqHYNXku7mBd/H+cdP9+naa6+9JqrZ+2tn/OZfMJiT4ovA1RsKl1Tr+/IaGIETcVMKWbUepnLrjjaBN9ZWYfFV5/ic2KxZs/CtnzSaFHF59HWPDrnUqQ9e8yN8b8pIHxw2OSNN4yV73lAieHLZ/OUZR4oK8v7a/tpmXPCXlwatutGiUw7H1T/2zQFPRbznzZvnt8+nXfcEklLTB5/AqSo9FXRQzW5nLhTPxA8Sl1TTjmJ4BK5Y3NSc3K28F/+NPoGv/OgdPP/Q3T6TkUKGH3jAtxL9rsoGnH3n0EpclZpkwnt/vsRv0dtH3lyJx5atHkq8GVfnIkr3/fpMzBznP+fMP17/Cs+859+xK9on8tPjpuEmP09l69evB8VH+Gvzf/EgLFl5g0/gVFJNJXCvXChuxiEvlHauSq8OZGgEniUkFA/S1lR4ihWBP3vfH7D2y/d95iIt0lxyySU+nw9FPTiQfOKQZcy/5RnUtnDgTjTJcurIAvz75nP8eqXQcSnAZ2dV7Atjn3n0JPzuAt+ygpQbnPID+WsnXfl3pOUWDT6Be7gROgOLVLIRUopii3e0d6C6ir1QBBihEbiSzMqnKr1qjTvVlOwoe6H8buGZaG6o9ZiL5Db44Ycf4rjjjvOZo5R4iPx0h0qjQgSv/O5noOx53u3LTftwzYNvDZVTjevzCCRXUKff+3YHbn7yvZj3n3KbL/aTUoFSSxCB+0ste9KV9yMttzjOCFyBTiVt8kJRpRQmcM20GjCBq+TtpHVJkhFNAu/t7sL/XX4GrB2e4ctUcWflypV+HxP/uPQTvPLFpphfTNE64LDcdJH21OJVLo0m+O+e/QCUt5pb9BGgtLPP37oA44b5VrqnrIXn3/0CdsTYN/yMoyZh8YW+FnhfBH7iFfchPW9YHBA4FXTQO0PoPcuoaQmckllxOlnn/B4Igaue4LQrtyYeXQJvbWrAndech+5OTw8LijTbuHGj38LFlPv7i01DJ/f3bBHe/RPQgpq2UYm48+9+EbsG4dE9+nQZn0f4wfQxuPfKU/x2jqofnXb7v2KatvjcY6fi1vN9Fys3b96MKVOm+O3nSVf9HWk58SOhqAmsFAvc2YQF7kwna7WiqsLt6cOh9MGG0gs3Qq+CDi4LXI3MJAKPnhthXeUB/OXXF/sUL05PT8fevXuRnZ3tM0nPv+sFbC33zZkSn5TQf6+u+8lRuNiPFwQVaD7xlmfioop6/2cxdLa494pT/Ab4UGX7a/75JlZsLY/ZyV50wgxcf5ZvgYdVq1Zh7ty5fvtxyjUPISUzNw4scCWUXkvgZBqqgTwqUVNqACbwMCzwkZRO1ieQR7lPelrg0SPw8j07cN8ti2C3edYmpJzH1dXVfosXn3DzUzg4hHyiX1/8c7/69yufb8Ifn/8kZmTBB1IQoDJ2S25e4DdXyoY9Nbjkb6+AJJVYtKt/NBeLTvVNXPXBBx/4TfBGfTrtV48hKS0zDglcE+ut0cCZwDUzKRQJZWRxjlKRx8nWHrnA1cLGEpCdFr1Q+t1bN+Cf/3cNHA67x/WQl5eHuro6v9fInGseHjJWKVUkX/6nS/1mx1tw5/PYURl7z4dYEFM8H4OkrHsXzcdxAcLsb3j0HXy8bk9MTuG28+fhnGOn+hxryZIluPBC38LftOHpNz4DY1JK/BC4Kp0473meFrgMhcCrXefIEkqQEoqbwL3LqClYKiXWokvgW9d9g0fu/LVY6NC22bNng9JmejfKffL9Gx6PycUTi4NQZry7/aSOpVwvP7jpqVh0gY/hB4Gs1CRRxSfDkuTz7YotB3BVjFLO3nP5yThx9jifPvzlnntwi79QegBn//YFQOesBq8hT1cYu9/PnLm6VZJVEwY6Q/A9w/Kd2zrzmbhSxNJ+NZ/pdEbo9IpZKHbrTeBUvlFWS6qxG6EY5NAscGdNTJcFLoG8TtRGCX/oq6w0c9RyoWxe8zUeu+s3PhN0/vz5WLZsmc/n+2ubcPrvnxsypHPLecfgvHmH+ZzPmh2VuOy+14bMeSbiiSy+4Ac44+hJPl3v6bXjuN88iY4u38pRkT7Pp399FmaOK/bZLVWnpzKD3k0ymHH2LUviJJmVPwJ3OhJqKtQrNTGZwEMncFrETEvy8gNXnL9dGrggcJJQjOIxX5VZ1PeqlS4SGooX/V7zXqe+p91qtHUR9Slj3def4Om/3e4zEX/6059i6dKlPp9v2V+Hn/7pxUhfJ4OyP8Lr4WtPx5GTRvgc/+XPNuKu/3w6KP3igyoITCjJxQu3ne8Xjve/3YGbYuAX/s4fLwK5mXq3E088EaSDezdL7kiccuU9cUjgMiTSvVWLXuORwgSuGcWQLPBhigbuXrAk5vWSU6JM4Ks+Xo7nHvyjz0S86qqr8PDDD/t8vnpbBRb+/fUhwTH0hPPa7/0H8Nz1/Cd4+fOh4+ueqAN23xWn4PgAWvj83z4b1fJrpMWvfOAqmIxKYWBtKykpQUVFhc/nw6ccgyPjJh+4wSWhqDqKfwK3/j97VwEmxbF1z7o77u4uwd0J7u4SAgQnuEtwiWFBg0sgQCBAcEggCcGDBXdZfJG1/7/V3TM9XTU7sjO7s/umvu+9sDPd1dXd1Wdu3zr3HKcrvXInrQJwtXhVAgP4sV+3Yv1C3siBPP9mz57NTdCj526iz7fJozLR1dUFR2b3EOqfdJy2AWduGFanJlUQTMrjJi3uNcNbChkpw3/4Fbv+vGK308uYMhDbJ3bk+o+KioKHh4fwuAWqtEPecg0cJAJ3g6vOkUcupddE4PSuT56YzkIe+XZaAuBZM4QhSJVCkdIh+ghc+TskwAeBvvZJoRgD8IEDB2LWrFncRd47FQAAIABJREFUJD1y7gb6JhMd8Ewpg/DzRJ5JQOXR5fovBJkKOFviXgFfLw9sGtMG6cL4NMahM9fR7/uddhtglcJZMadXPa7/69evI3t2sRFF+dYjkTZ7YQcHcMOCNSeAW5lCcQQAP7p7KzYs4iPwQYMGYebMmTyAn72Bvt8lDyOHFhUKYERbXuvlxsPnaDwu+SzU2g3hEqjjXvU+Qc96fNEM2fpVHbIEb97ZZzGzW50S6NOwDHeWBw4cQNWqVYVn70imxuSJyUXgLvpCHpa7jQXeOgt59PcyXhG4apGSBeNyRG7PCNwYgBtNoZy/hT7f8NZrCfQs2/QwU7rURN1PcnN97vjjX4xavs+mx3J2ZngFyPMoS9oQUOl8ydwZkDFVMLw99KYOr999wJ0nL3H2vwcgPfav+zbgpA6oxwk//oYtRy/a5fKS5Vv1Yrwbz7Jly9ClSxfumG6ePmg4YCHcPLwdLwLXOATJf0oATikUZym9dD+tBnA1c0SeGgkB4H/8tgNrvp3KTcZu3bph8eLF3Oenrt5Dl1nJg15njGEwa+MRrPrttMWgkC9TSnySJyNCA30NmEVKRxHvI0EpqAu3Hye647rFJxfPHYiKV6VwNmRPG8oAm4SrbNEOnrmBAd/v0Gt82KJTAB5urlgxtDnyZU7F9ThixAhMnco/M77BqVGn12y4unk4CIDTIqabfG3kHLjqbBRuuBPAVRfFUgDXltIbVGNSFO4KUFFDgJ1y4KeO7sPy2WO5SdqyZUusW7eO+/zS7SdoNYX/3EbPTYJ1Q8yCk19/Ljxez7k/4cQlnmGg3jgs0BcpAn1RNn8m9Kj7CXy8xItaxk5o/6n/8N3OE7j7+CXeR0Yl2Hkn5IHIJCN3xpSY0aM2QgN87XLoq3efot20jfhg42tIY183shUypAzixt22bVusWcMbmoSmz4mqnSbAxYVAUw+YClAmTiGPa5wATqwUAvAHzgjcugjcGIATxY0acbXtCeDn/jyCxVOHcZO0du3a2LWLN/G99fgFGo5ZZZeHMSE7TRXkhz3T+NdgsotrM2UdrhopoadX/q51SyB1sD8IxOPTyCzizuOXWLjzJH45eTk+XTncvkWzpcGkLrWEHGpbDvbuk5doNXkd3ti4qIfu7bbx7eDv48UNt2zZsvj999+5z9PlKoHyLYfKXGsHAXB3fUWoQTWnqjrTCeC2jMB1VZlSpxSRUyGPvSLwi6d+x4JJg7nJWLhwYZw+zacRqPqNGBpJvdGr/OaxbbnToPMjQKD8q9KKZk+LUnkyoF31osIH2hbXgvLuc7ccx9NXSds42d3VFZ/V+4SpO7q7Uabbvu324xdM8tfWVZmUDls9opUwFUYKnWT2rW05SzdA0RrtHAfA3d1AC5k64FZRCGns6hSKMwKX76a1KRSlklInbCVX1LMI3I4AfuXcKXw7rh9iFREF+TxSpEiBJ0/EkrFl+y1I8hS7QlnTMAsvbSMJ2ZaT1uHZ6wj22r9kYGNkShVsXxSSeyf9lUZjV+G1nVgV9j4Jemv8qmtN1CqRy96H0vX/3/1naPvVBrz/aNs0VLfaxdGnUVnuPOKiEJZuOhCZ8pV2SABnEikiAI8hS7UIPLjv1ANnN9tiAA/Ul9IbWKvJU8fFJQbEQrFXBH7zykXMG9kL0dGGD0BwcDCrNCNjB21rOGYlbj3WR6gJ9rTa8EBUPv/9Fw25Hp+8eItp6w+iQ43iKJQtjQ2PaF5X1x+Eo8WktYiKllWJzNst0beiuTupcw3G6lHSf6YGFRMTi39vP8bpaw9w8/FzkGED5WS9Pd3Z+kLm1MHMnSd/llTw9hSvMdgLwFcObS68/99++y369OkjPLX6/RbCJzDEgQDcHS6urjxwy+pWin7d27dv8eCeU43QcgDPSKX0MoBLEiYG0rKKQYw9I/CHd29ixuAunKGDv78/Ll++jHTpeCGfbrO34K8r90w9nw79PdHDiCZmy0age/Phc9x89JwDYAI1SttkTx8mfC1Xj+Ofq/dYtevb90mnkKgOqTp2qRkneJOS5YlLd3D0/C3sOHEJ0dExZrNH6pXOg0mdanC369q9Z2hHEbgNFzHJWu/onB7Cc6levTp+++03bhwePkFoPFhibUnl6g6QA3f3gItKFVEanJw6UZkaR7BKTCeAWw7gGVQALue7WfRikAe3bwrlZfhTTOrTGh/eG+Zevb29cerUKeTNm5ebrKOW7cGOE0l70a1+6TyYKAAEawD95+MXMWXNQUTHxjKjAVqcFDXS1qC88Oi2VVC/DH9d1ftMXnMQGw+fs2Y4Cb4PmUIfndsTPkaiZBrQ6t9OY/bmYyBXHWtas4oFMKoNX3RFEXyH6ZtA9ne2akWyp8XyIc247t68eYNs2bIJU4vpcpdG+RYDHQ7AyZyc/aDo5qSsRqgzdHCR9cCdKZR4ALhegVBty6j4Z5CcbICvp13UCD++f4/R3RvhncbU2N3dHVRxVr48byf1zdbfsWT3X7Z6XhKlH2Neh+YMhhbOVu8/jQs3H4PUGY0Bdlx9UTTer3FZVCyUVbgZ5cOpGvRVxAdzhpSo2wxpXgFtqxURjuHl2/f44tvtOHNdL1dKP2IVC2RBqbwZ4SELRZFE7PbjF3HhtnjdpX31IhjUrAJ3jHM3HqLTjM1W/zCIBt28YgGMFPxYXL16FcWKFQMBubYVrdUZOT+R3ugcKQJ3dZEBnFyM5SYZOugJy05HHtXdtDgHTmqEKjErIYAHeiHAxz4ATkMf06MJXjzlhZt++uknNGrUiJusW46ex4Qfk7bVWJeaxfBFk3JmAx/xjM/feIRZm47i4m2xU5G2MyoGCSRDgthYBsREUVQ30vn4uk99FM+ZXjgOilpnbDxi9hgTY0PKV28Y1Vq40EvgTU7y95+9ZkNLHxaIzrWKo2mF/EZTLct2/415W49zp9KvcRl0rlWC+/zkpbsg3r4tDdbGta+KRuXyc8eigKZGjRqIjtZE+y4uqNRmFFJnk5x7HAvAXfTjYaNzemLG+ZxYCuCU31anTLQATn9TBO7vYx8xKzqZZbPG4Z9jvLbx5MmTQVVn2nbi3zvoOW9rYuCFzY5pTF9DdID9//yHaRsOgxY4zYm2wwJ9sKBfIwT6esOLlYfH4kNkNKJiYvDnv7cxae0hXY6cCoA2GxFruvtU5jg7MCsld/owrBvVWgjI09YfxtoDZ9glzZEuDMuHNDVJwwx/HYGqQ3gnpIkdqwvTTtuO/4uxK20re7BxVGvkzJCCmwpTpkzByJEjuc9d3T1Qu+cs+IdKi96OCOCK7onOncfpiSnGElsBuF4j3P4AfnTXVmxYzAtaNW/eHBs2bOBOlDjS9UevtBmYJkZHfRuUYQU5cbVdJy5jxb5TuHTnqdlDpNTIj8NaxFmZSQ/RtmMXMXXdQQbsTcrnx5h2vDgSLYrSAt2lO+K0gtmDsuOGI1tXQvNKhbgjPH/zDg1GEyVSSgGZu+awat8/7C1H2xb2a4hSeXnjje9//gMLf+Gt/6w95WA/b+yb1gXuglL/cuXK4fhx/u3A3csHjQYuAQG54wE4X4mp9sQknHGKWalmS1IE8Ie3b2BK/3bcnCfJzGvXrnGfE3ug1BffJzmqm/pEhjQrj7bViwqfc8o/T159APvPWG6cW7VINsz+7FOz8IN0ZbrP+Ynpke+b3hWeAtBYte8UZm06ZlZ/Cb0RvR3un9YVIYKK1CW/nMQ3P5/QDSlbmhCsGdGKUQSNtccv3rAfrMcv3nKb/DyhvTBNM3TxLuz5m5+j1l6LlpUKYHhrfrH01atXCAriy+rpOOnylUWFpv11aRyHisDlRUyFfmLgj8kUrWJBNML7d52WamzOWAPgjOqjYxBqDY4lFoo9UyiIicGAVtUQHWUoy0m5+RcvXiAwkNdi7jF7C04mYSphnwal0a1uSe45Jx42eWE+f/3OKgzImT4Mq75sESdQKR0/ffkWLSetxbPX72DMm/PRizeoNWyZVWOx906h/j7YP7MbdxhiPBCXXStHQGmU775ogFTB/tw+tBg5aOEvQvCmp+PkN58LBbBooZfkf23VqLiLiry0jdaDmjRpIjxMpfZjkCZLgaQB4FJlPQNufSXmWzxwArh0by0B8GyMB+7D2CU8gMtA7uJi9xw4HX5Cn9Z4cv82N0GPHDkiZKIs2nES3+3QR1i2eoASqp9ONYqhf1N+EfPCzUesss/aRi4/ZMbbwARNkPo/efkOen+9nVHgcqQLxYbRbYSSqXWGL8OD5zzzwdox2mo/Y3IEpM/dZPxqUEStbSQS1ePTkgzESU/mfvgrkEDamgNnGAVT1HKmC8XGMbzsATFXyvT73uh+lp4nFcxtHt2GqUlq22effYaFC3kJCTcPLzQdthLkbKOM3mEjcLYaIzva6wZLYlZOANfdb8sAPIVUyKMDcN0LDlsUUvLg9l7EpON8P2kQLp76g5u48+fPR9++fbnPT127hy4zk66sbNPyBTC6ndjMoen41WYtVsYFEHF5OdJ+FH3XHr6cLWxSozTKjokdWNWttpH+OhW/OFormCU1Vg1rwQ2LUlDNJ65BuJVvMdoOG5fLh7Htq3HH+e9+OJpO4I23rb1OuTOkYOsXWqlb5tBUrpxQwCosY25U7zzRoNrRMQFcKpoySKHQhWJqhE4AjyeAa9MmUndMH8UFCPa3LwuFjrNh0Uwc2c2bFXfo0AErVqzgnoknL98yVcKkajtGJd9UOahtdx6/QNMJa0BuL/FpVNRS95NcGNisvIHnJoHByr3/MHbGQ1VUTfnv1cNaCNkPszcfZfs4WiORr2WCghdi6zSftAYv3ry3yZBHtq6M5pUkip66/XbqGgYt4hUzrT1op5rF0F9ALSXaIAlYUR5c27IXr4kSn3ZzYAB3gfRiI2GMmoWifPA2wgngVgK4XIkp19BLgK1/jZSi8NgEAfDffl6Hrcu/5iZolSpVsG/fPlBFl7oRu4DytwrH19qHJrH2q140O2b2rMsd/v6zV2g2YY3Nfpio+rJc/swonTcjLt95gr2nruGdQHiJ7vXXveuhfIEs3Ji2HL2ACT/uT6xLZfS4hbOlYaYH2kZvF80nrgUxUWzRqCqSqiO1benuvzB/Ky/rau0xN41ugxzpw7jdd+zYgfr16wu7Ld20PzLnL+uwAE7ra1IRph7A2T9VNEIngKturWUplDCEBOpfmZWIm0JvHY0wgQD88tm/8M24ftwkzZUrFy5cuACqzFQ3ytt2nLGJVSImxVahQBZWRKNtJKhEr/+JUQH5RaMy6FKbpzb+feUeW1h1tJYnY0pmeqBtVMBDaShbSOMSj55MjTMKjBXGrfwNW4/bxk4tS+pgbB3fXgzSpUvjxAnxek/jIT/A0ycgaQC4Wo3QCeDix8laAFcbOFDPOgCPjUWwnQt56FivX4RjRBce0Hx8fJj2sZcXL2w//IdfsevPK46GK2aN55M8GbCof2NuW0oNtbBh9GjWYOSNqhXOhlm9eAoi/ajUGu54TBSqrNw5uSN3ih8+RqHRuB/xIFyqwIxPC/LzxsbRrYXMFSrRP3zuZny61+3bqUZR9G/Ky0Y8fPgQadPy0T/tGJYpP2p0GqtjczjiIqYkZqVnnOje750AbjsAV8tvKikUBuBMoTBhAJxy7V92rIe3r3hK1h9//IFSpXhX8M1HzmPi6qRZUl80RzosG9yUu4nhryIYBc4W0aOlyJImxB+7p3bmdqO8eekvFtjcNszS8Wm3JymAY/M+E6ortpq0Fpfuml8AZWwsxFRZP6oVgv35xd1O0zfh9HW9il58zufbPvVRTpC+2r17N+rUEatWlm7cF1kKVnBgAHdj9m4SlGg8MVViVlTI4zR0kGePJRF49owpEByopxFKkbd+QVMxNU6IRUwC8BXzJuHPg/yi0JAhQzB9+nTu+bj16AUajk2a9moFs6ZmfG1to7wt5fZFxSTxAQhz9qX7fWhWd0k/RdM+m7MFf1x2PAnf3VM6IU1oADfeGesPY7VcRm/OuRvbhsw01o1oBV9vXg+8ybgfcd1GHPCDM7sJfySGDRuGadOmccMj5/naPb5CQFi6JAjgikyewkJxArjuBlsN4CoHHn3+mxA9YRYxCcD/OrwHy+eM5yZrpkyZcOuWmMZWdfAShNtosSo+D7ql++bNmBJrjeRvW05eh4c2eP23dEy0Pb0V0NuBts3dcgzL95yypku77jOxQ3XUL8tL49pKL4e45lTB6SWrFqpPpuawpTb5oa1WJBtmGamezZEjB/777z/uGvoFp0LdXjNBQK6sETpeCoWPwPUhot5SLYJVYjr1wNlNtgrA5elB6RPOlScBAfzB7euYOrATYrRqawDTQCabNW3r9912HDprmzykXZFG03mu9GGscEbbaPGy1eTEY9cYU8Lb/ecVDPvh14S8RGYdq2rhbJgtyNuT6Fepvt/HW6ebuNlrRrSEm4YFRYOrOHBRvBebKX1JxTvZ0oVy53vy5Elh6pA2zFy4Kso1+oxR9JIGgOuIKPqCIzmtIgG4s5TeOgBnlZiSHY/OF1MBdPpvAgL4q+dPMGVAJ7x5+YKbzOTCXbp0ae7zJbv+xDfb+AIgs57+RNyISt43CgCcXGMoAic6YWK0zjWLoZ+Ai3zt/jNGb3S0FuLvg91TO8mqi4aj6zxzM/65pjcKsGbsBbKkZsU1ovZJn+/izdfPnCoIm8e2Exowd+7cGcuXLxceu27vOQhOkd7hAZxMjaXCIqVpFjRjASeAq26xpRF4SKBGTlbVly4HTiwUb/vJySr0xcgP7zF1QCc8fnCHm7RUzENFPdp28Mx19P9+pzXPZqLuQ6XrmwTl2QTg5Ep/L5EAvFbxnJjWvTZ3bagsnRQgSb3QkRqJU9EPoYjmZ4u0j7FiIboGRXt9o3Kase6qULHV5C61uIVYqk4sWbIk/v33X65j/7AMaNBnNvvckSNwN3c3uCgALgtX0ZgN3hicAG54f20F4Ory+qAEAnBaQJ0/bhAun+E5r4MGDcLMmTO5yUymslS5mNSaMR0PKlBiAP40cSLwMnkzMcEnrTEwiWs1Hv+jzaobbXW/aJxkDk2FSvb4cS+aPR2WDeHZQrYCcCqeqlCQd0W6c+cOsmbNyps3AMhTph6K1ZSCmSQB4CoWihjA3+H+XaelGruh8QZwA2EryqDEggG4HQ0dlAicAPzQ7p+wYeEs7mEkazUSttK29x+jULbfgnhrh9gKUMztx2gEnsgAXihbGiwf3AwkiqVulJtvMXGNQfm9uedq7+3aVy+KQc14DvWbdx9QefCSeMkO0/Ugh3hRK/H5tzotGWvOMX1YALZN6CBMnxhjn9BxKrUehvS5iiV5AEesJE3o1ANXzR5rAVxt4EDdqXngCQng4Y8fYnRP3tCVCnlevnwpLOjp+802HDnPKxla81Al1D60OLZ+VGvucASURCO0RRGKNedCkqvEe9Yu2kW8/4jWU9bj1mN+fcKa49hynwxhgdg2sb1woXHcin3Y+jufhjD3+HkzpcTq4S2FKo0UOMRHi6dPw9LoVoeXFCaPSNL+joqK4obp6u6FZkMWw91TonomyQicgFvl7ucEcGsBPJNUSs8xT9SVmC5AkL9ngkXgdCojujTGy+e8CwxpolSrxqvC7fnrKoYu2W3uM+kQ2+XLlJLR07SNysAJwNVCUwk54AwpAllJNxn/qhu96ZDZAS1mOmL7YWBjFM+VgRvazYfP0WTCasQYkYo1dS602EwsFA83qSBF3eJDYSXFwZVDmyFvplRcv9u2bRN6wdKGOUvVwye1O+gWBZMKgLOTZO70cg5cB+CxIC0UJwtFngaWROA5MlEhj7cu2qYu1NrgssZVggP44mkjcfqPQ9zE7t+/P+bMmcN9TtEhvSrHV8HP1MNsy+8dsZCHzi9lkB9+mdIJZIisbqQ902H6RvxrxLXdltfGmr5aVCyIEW0q83PjQyTaTFmHm4+se3PIkjoEa0e2BKk7ahst6pK9nzWNfig3j20rZM90794dS5Ys4bp1dfNAvd6zEBCSJgkBuLt+oVcGb8lSTc9LkSJwJw+c3XCrAFylY08AbljIk/AR+J5Nq7BtNS9eX6JECVBZvZsmGqJSb3JGsfYhteYBjO8+xtgNZKrLSulfRsT3EFbtT56Me6d14TSpyR+z04xNOH/zkVX92nsnipRJ2ErE156y9iA2HDpn1RDShQVg3cjWCPTltXhosdlav1BjfPvIyEhkyZIF9+/z9MfgVJlQp8cUuLp5JhEA94CL0FItVpVCcXHmwNUz0yIAZ6X0cgQuGzjofT1kIE+EFMq5P49hwZQvuQcuc+bM+OeffxASEmLwHf3+kLDQERsJC1n1pFu4U6k8GbGwfyNur8QUs6LBkGPNgZndOACnFETnmZtw5rq+4MLCU7br5m6uLoxPTap+2kb64FQ1KfbbiXtYKQJ92VpFmMAlh/xE/7x81+LzShXsh18mdxIuXq5cuRIdO/ICXXSQ3KU+Rck6HQ141Y6dQlEDuCR+onYekCJxMnSIwP17ThaK5RG4AuBy3kQq5FHpgUtqVghKAEMHKfKXjv38yUOM6sEvZHp7e+PixYuMXqVtC3ecwPc7Tlr8MCXWDhULZsH83rz6IpXQk5a14qae0OPz8/bAgZndOYNjAvAuszbj9H+2EW+yx3lVKpgF8wTXlI5lrfkw/aBtHNMGaQV6K4MX/oJ9//Bl7qbOrWGZvBjfsTq32YcPH1CsWDE2x0Wt4RdfIyA0dRICcHfDCJylweX3e8JzGWrevokweOPQIZCygf5ixN7fNcwwt2fqYtvxe0Oelo0OZFkEnhJ8IY9+eZgZOhCA+3nCL4FohHQZ3F1d0bdlNXx8zwvyU4TSvj2vm/z31XvoOsvxNKuN3dZaJXJiWje+YObe05es4lFkumCjKRJnN6Twd3BW0gRwOjGyhcsg0O4+ev4m+nyz3eJLSIu5m8e0QebUhm991NHk1Qew8ch5i/tcQLz1fJm4/ahoh4p3qIhH21JnK4QaHUcZLgQmFRaK6tVH5+2glpN1Arj+dlsP4NJvI4uCVX6YiQPgLtiy/Fv8+hNfoEPSmr/88gs3wclgtvKQxYh4H2nxA5UYOzQpnx9j2lXlDn3z0XNmRmDMYNfeYw3w8cT+GXwKJTomBlSaftZBUyjKdRneqhJaVi7EXaZ3HyJRa/hSvIr4aPElXDKwMUoIGC5Ld/2F+dssc+TJkTYU60a1FqZPpk6dihEjRgjHV6ZJX2QvXCGJAbgUgSvsEzoxrR44/e2Uk1XdcusAXH6xkS3UqDs1LzzhI3AXPLr9H8b05Uvn6a3gzZs38PXlnbsHLtiJ/aevW/yAJsYO3WqXQJ9GZbhDn7vxEO2nbUyMIbFjJtVFTOWCEW97zfCWXCUpff+rLMhlaS58dJsqaFqxAHdPdp24jOHL9ph9r2juTutaCzVL5OT2oTlNazzh4eHcd7RfowHfwS8oLGkBuBvlwKViHZ1Sonx2sboIXKIRPnCKWUlXxjIAT8FSKOwiy02tB84+IlPjBE6h0IIUoj5icOfGePOKp39RRSZVZmrbtuMXMXblb2Y/UIm54YhWldBCECnu+fsqhi5OPE576mA/7BQssBFFs8O0jVazLhLyWs/7vB4qFeLXSUihkN5ublio4d2uamEMblGROwUSyqK3EnMbLYhuGNUaoYIF0aVLl6Jr167CrtLmKonqbYfqTRFUgOjQi5iuHnBx0wO4ztCYzjJGFrViEbgTwHU33iIAz0QALjZ0kMBbMTX2BC1uqRcalX8rXHFFyVBKwSjKhrGAq17lUC1XqzZQVpfS02HdXFxA8ssTB3TFzWuXuElNAvdDhw7lPv/39mN0nL4pSfDB5/T8FFWKZuPOwdZGueaCi7Jd5lTBjJ8sKuRpO3U9/nvAR4iWHsPe2xfLkY4xfKhYRtu+3/4HFu7806IhlMuXEd9+wTOGqFq2zgixWqDoAA1L58G4jtWFbwe1a9fGr7/ycr0kBtW43zfwC06RpAE8RhazclqqmZh68QVwHdFHlwcnQ4eEB3BSmftu6kicPLKPO+MWLVpg/fr13OfkZtNwzKp4azRb9HRbufG6ES2RR1CFN37lPvx03PrSbyuHo9uNjIKpdJy9Banam3cfmU753UQS2bLkvGghlqpcRZTCVxHvUXfkCtD5mNvShvhjl8BqjrjxJClLkb2pRoYQP0/ogNQh/vy8ff6c+V4SC0XbUmbMgzrdJjHw1tmSJakI3NVw7MoJqhYxIyKcYla6+24tgNMUpHhbiaCpQyVKZjnwBI7ACcD/OLQHC6aN5iY1FTrcuHGD+5yeo04zNjosV1k94MNGrMs6fLUBZxOxWKZk7gwsenVVSnLlQb948x7NJtjG6d0U2Nni+9rFc+Cr7mIvyTW/ncb0jbwwmrHjUg765Ne9hBF9rWHL8OjFG5NDrlMyF6Z2rSXcrlWrVsKAhDYuVqsDCpRtkDQB3F3KgUvl8xpPTPqT5lgMQNovTjVCeWpYCuB6T0wCb8qaqKn20t8JDeAEHt4e7nj75iX6tqqNWFrx0LRr164he/bs3Oc/H7+IMQ6eB6eqvsOzewh+gGJRvv9CvP2QeEyamsVzYLoA+KjAiN5u4iPeZBLlbLgBzWWqzMydMSXX66Pnr5kEsSVROFWnksyAtplrbPxNn/ooLzAtvnnzJnLlygWqwNQ2sktrOug7ePsEJjMAN/TEjKBCHqecrHT7LQHw7JlTGCyoOBqA09vAxME98N+/Z7nJPXLkSEyaNIn7nDQ7SCUuMpoHfRviQ7y6yp85NVYP511eXrx5xzRdErP1/LQketXnnY+u3w9nolBJqTWvWAAj21QRDvnbrcexePffZp/OxtGtkTM9b+k3aMFO/GaC+ZQy2A+/Tu0sVDRctGgRevbsKRxHvvKNUKJmO5nFkQRTKFwErgJulbGDE8BVt98qAFd5YRrooDBKeCwTs0rIFAqlX70+adH3AAAgAElEQVQ83Fk6Z/u65diyitdFyZkzJy5cuAAPD15kqOO0jThzwzFLvulWGTOxdQRzivmf10NFAYNj67ELGLdqv9mA5wgb0pzdPbkzAvx4HRNi1RAjxVwxKmNmz5NWH8CmOIp56HlaOqgJiuZML7wk2bJlE6YD3Ty8ULfHVISkzpQMAJyeZH3iXk8plDRRIt68xf37Tk9MKyNwLQtF+mnU88ATCcDd3dmPx/lTJzF7TH/Ouio4OBinT59m3Fltm77+MNYcOOMIGCIcQ+NyeTG2PV9KTWXqJBiVWI3u+b7pXYW6H8OW7Mbuv64m1tCsPm7tEjkwpUttzqCCOlyx5xTmbDlmVt/GUiDzfzqOpb8aj+TJuIMWhSkg0TbyuyTfS1ELTZcDn3afBBc39yQO4K4GOXA6VxKfk/5L/++CCGclpn4KWBKB58gsldLr1qsMgFvKiZOpsZQDJ0DV65XYk0ZIx6UcOP1uhz99jKHdmiJaI25PC0sHDx5ExYo8P3ffqWsYvGiXWQ9mYmzUqnIhDGtViTv0yUt30GPu1sQYEjtmjrRh2DS2jfD4FQYsxGsLmBuJdhKaAzNGyvCWyJKGL4WndBs5y5sjWzC7Z11ULcqvuSzceRLfb+ctAJVhDGpSDu1rSu456kY5b6plIOd5UavVbRLSZMqj8o9MqikUNYBLEbeih6JE4lIE7pSTZfPAKgBXzSAG22qH+kQCcCWFQguYw3q2xJP7vOrbl19+ia+++oqb/+TfWHXIEqvU5xICeBwVwDvXKo5+jctyl+Duk5eoN3plQlwauxyjeYX8GNmWly2ggx0+ewP9F+w0afgwvRtVUObixrf8178x96fjwnGT5jcZLvt48Wm+8+fPg+SRRdTBsPQ5Ue+zKUTTSCYAHsuibpnjJp2TmkboBHArI/BM6ghcibilvpTCHCkC90jQHDgd24sVYUi/1fu2b8SaRbyRQ6ZMmXD9+nVOH5zG//n8bTh+0TFt1oyp0Z25/oAVIiVGI+bPd0bMgff+fRVDErE6NL7Xg94Wf/yyBfJnSc11RayaTtM34sq9uJ2GjAH4sl//xjwjAD6idWW0qFSQOyZZpZGz1OHDh4Wn9kndzshb5lN9CbpMw0tyPHA3vSs9e5ANDB305fXOFIpqGlgUgWdKidAgH93eSlWlHsApp5LwNEIah6e7m05eNirqA3o2pgiKL5j466+/ULx4ce5B2Pf3NQxe7JhplKqFs2J2r3rcmG88CEfj8YnD9KAoceu4tkgdEsCNa87mo1ix95/44mii7l+5cFbMFVxzGtTxC7fw+dc/xzm+OT3roooghbJg+wks2MmnQaiSddeUTkLqIQF3pUp8Ck0ZQNvRP0qel8q6X1IFcFc3uLi56Z9aAYDTs+70xLQWwDOnRGigCMBlZUI5lRKYCDlwT+a6E6vLz4/r1xF3rvOLaGPGjMH48eO5h4/KnJtPtIzrm1AIkydDCqZIp22vIz6gwsBFCTUMg+MUyZYGy4Y0E5Z5d5i2AWdvOKYTj7kXiwrDKArPkT5MuMugBb/gt9PGtb2/69MAZQvwC+bzthzDsj2nuD4HNCmHjoLcN23YqVMnrFixQhx91+uKfKXqqFInSuSaBHPgcQG4VDnIVjJJPtfpiSlPB4sicCGA68FbicQDfUkPPGEXMcmTUSes5QIsmz8VR/fu4CZ9zZo1hRoSZMLbZup6XHdA7Q5/bw8cntNTyAuuPXxZghsaU4phUf/GoCpMbQt/FYFqX/6gE983FzAdcTuyR9s2vr2wovLMfw/QMQ4G0KqhzVEwWxrutMav+g0/HTM0YMiUMhg/T+Q162nnu3fvImPGjMLL4+MfjEZ9ZsPLjwp39CkHKRJPZgCuxOWxLpIjj7OQR5oTlgF4KoQGeutSE8zAQSVGpQPwRIjAtQB+4tBeLJo5jpv4qVOnxsOHYs73jPWHsPoAXwTkCODyy6SOSJcikBvKuBX7sPX3hNVCyZo6GFvGtdezkVSj+vqn4/ghDpqcI1xLc8dAAd/szz5FlSK8iBjpmYxZvhc7TlwWdrdzUgekTxHEfdd7/jYc06y19GlYBt3qlOC2pYW8GjVq4LffxIqZOYrXQPmGPZiIXLIAcCrkUc5F94MkqRAqC5r0hxPAVVPFMgCnFIq3xsBBU0r//5M+MVIolENUR+BvX71A/3b1hWX1Bw4cQOXKvCP5tXvPWBrFtNSQuRBgu+3mfvYpKguA5OCZ6+j//U7bHciMnjrVLIb+TcpxW5I5RtMJP+JBuGmtDzMO4xCb5Eofhh+HtYQnyV1qGpXWNxizEuGvDZ2gaD3m2Nyewshd60xPfpfEPAnyo8DIsF29epWt17x+/Zr7zsPbD037z4OPXzCbr8kHwMkBTZGOJTaKnJdV5felFIrZNEIpt+oAzS6WaoU6ryrm5u4qriyQCfRKkXlOxgPXFPJwWiguYCkUb7cE5YGTrZoawFn0NG4gLpziObfEBT906JDwllK1nSNKoHauWQz9BKCZ0Ll7ipA2jGyFnBn4MnFyXCcNcKpaTE6tX6My6Fybj5DpHKetP4S1mre2otnTsvUBbaM0Xekvvtd9TKkossmrWZw3bKDom4p2jOW+C5RviJK12xsyNZL6IqZcSi8ydFDSQlIEblEOnDiZym9cogK5PQDctWDH5UXdPT3+Ej5wFgG4nlaYGABOcqZaAP/7+EF8/9Uo7tRcXV1ZbpEkObVt3k/HsOxXfpEpsQGpTN6M+L4frzH9MTIKracknO52jWI5MKOHWLVv6pqDWH/4XGJfKpsfP11oADMq9vP25Pp+9fY9mk5YjScvI3Tf9W5QGt3rluS2vXDzEdp+tUH3eeoQP2we0xb+Pnzp/okTJ1C6NK8xo+zcqO9sVdl88onA6dnUqRHqQmdZmVCGYcmV3uwInG6aGsATDcRtDeD0ruJSoP0PRT28vcWK9WYBuDSl1DxwCcATdhFTBOCP79/BhAFd8f6d/uFiY3Vxwc6dO0F+mdr2+8Xb6DV/m81BIL4dkjvL3mldhXnnhDJ1oNTAj8NaIJcg+n768i1oQTWKLF+SYetepyR6NxQD6rqDZ1kkTo8LzUO6RnkF2u2bDp/DpDUHpefFBZjerTZqCKJv+j4uydgshSujavPeUtWDmmqXDCJwQwCXUyk0pVQVmW8iIvDA/EVMyk1REiHRQdxWAK43wwFc8rddVNTT109cnxsXgKsMHCQAV3wyIadQEhbAqbBEG4FHRX3EqF5t8Owxv2g5ZMgQTJ8+nYOat+8/olx/XgzLETDJGDWNDI2pxJvGbs+WNU0I1o9qzTj32rZgxwks2CGeRvYcU0L1TQ8NReE50vG0wkfP36Dh2FWgFAlJyJINWkiAnm6rjHHUMlr0lByjPsmdAYsGNBYOnxbZ06VLx+n50MaePv5o/eViuLl7GOS9k0sOXAJwFYNGCQ9jJBSmJlmqmR2B042QfwLY7ko3CS4/agsANwBvAK752nxfxMsvUCzOIADw0CBfnXKVNCDpOug6dgECEiECJ0VCLYDTfdu8ahF2b/qRe1DoAaE0CkXj2jbpx/3YdPRCQmGD2cchh/INo9sIhZa+3vo7ftgtzoSZfQATG37VtRZql+TLw2k3Wvy9aqI60VbjSKx+mpbPj9HtxCX2U9ccwPrD51E2XyZ806eB8B61mbIOF28/YcP/tm8DlMvP88Tfv3/PNE/+/lu8LJWzeHVUbNKTLe6pQTv5ALgLmIFxHJWYFgI4uZlro2/l7wQF8fgCOAfehLv5Wn1TxCsg5A/hQ6EF8CzEQlEA3FBiRurchSkCJgaAS8eXGTHywjXdt+fPHmN495aIieEX1vbt28dKlLXtzpMXaDR2NaJjEvT+msQl+rEhazWR6cDtxy/QbMIauy0gZksTgs1j2wlTOFSZ2Pvrnx1jqd/kVbR+Aw93VxCdM2Uwb3NGQlc1hi3F1C61UCZfJu4g9HZEejsfIqNRqWAWzO1dX6fgqd6Y5iSl9qh8Xtuo2rLJF3MQEJJSzhNrys2TQwpFphEyhJWzcVotFKrEtCCFQjdLHXVrwTzBHvL4ALgavFnuW/lf3pbzi3gHhv1uPoD7GETgyqB0/3WJZSkU3wTOgRsDcAqwpw7theuX+Yi6adOm2LSJ1xIhFkWryescsqinW+0S6NOojPB2bTx0DpPXSjlWW7d+jcqic21egoCAi3LfzzRUOlsf31H6M6bNTuP75cQl1Pkkt/CtbuGOE/h+x0lGF6QUi8jrkvog2uCpU+JF9BK12qJwRSntIi30JT8A11uq6cl/OgAn5IqJlS3VzE6hkNaDNoViLCK36zSzFsBpPzp1agbgTSCep/mcIj7BqcTyaFwErnfkkQYjRdzSv6TmaBE4AfjPa37A9vV8KXLu3LnZq6qfH299NfHH/djsgGmUYAKA0W1A/GFti4yKQddZm3HWDuYUm4zkf/++cg/d5/xkllGvXZ+OBOqcrj+tA4gAmB4XQUaOWbHVHLaU2cu1rlwIQ1tWFIL8N998i759+wjPhKLvZv3nwi9Iom8mRwB3dfdgqSf1ucm/UXpueCwQYRmNkKrftCkT0aKmjk5vr6lkDYDHCd4MwJvNKuITkkasUm8EwGXCoA6wHR3Ar108h2nDe3P3hVISly9fBrn1aNvZ6w/QIZGU/kxNoIZl82Jc+2pCECCXnvbTNtrUi7JgltRYNYy3dKNxjl2xD9sSuBLU1PWx9/d9GpZGtzo8TdDYcY+eu4m+325HqmB//DK5I9zclHhKv8fHjx9RuHBhXLokLXJqW9HqrVC8SjNdmup/AsClnyquSMlCAA82wkJJcBC3FMBNgTeLxnM3mV7YNyz9UeGsMbKIqR6IOgKXFgSVHHjCFvLElUKJjorEgI6N8O4NX9FGQkHLli3jTp9WwltNXovLd+OWDbU3WIj69/f2xE/j2wmV62h7Mqj4csluEDvFFm35oKYokjMd19XTV29Rb+RKvI/k87W2OK6j9uHj6c4MkDOn5k0fRGMe8N0OHDh7g+XH63wiXgSeOHEiSGhN1IJTZUDTL2bDxcX1fwbAleJJUZWphQBON0lJoYjy3wmWTrEEwM0CbwLwXI2/KuyXIuOReAG4TClUWCmOlgOncf2yeQ22rFwgPM3Hjx8jZUrejXzN/jOYvkGswZzY4FIsRzrGZBCJ/9OPz9Ldf4OoffE1a04fFghKn4iOo+R1E/taJMbxG9FbUAfe5k47llNX7qHrnC3ImS6MvcWIrNIuXryI/PnzGz2Nsg26I3/p2jK9TtosuUfgcQI4WaqZX8gTqkmhJBqImwvgRhcs5VS1QR48V8Mphf1SZRajlIkInAXc8qgUHjh9RiwUXy/HicBpiC/Cn2LEZ23w8cN77kFZvXo12rThrcEoHdFqynrQQp0jtiHNK6BttSJGh7Zwx0mmPa14ClpzDtWLZsfMnnW5XemakBrfxVuPrek2ye9DdQc7JnVAujBeYEw5uajoGHSduZmZPxyY2Q0kUStqXbp0xbJlS4Xf+YWkRevB86Xom/Gj/3cBnIFNDPDWMkceIu6rQVuUOjH2mU3nqTkAbgq8lchc2c41Z4NJhfxTZxULg8QF4Arvmv1XnxVXFjEdDcCjIj9iytBeuC3QCG/Xrh1WrVrF3Sx6ANtOXY/Ld5/a9EbaqrNAXy8WhRfMysuW0jFIMW/77/9i6tpDVqc5Fg8Qy8Y+ffGW2ab9r6VP1PcubWgAq7oMI2qtoFGBD4ldta5SWCj+Rbvs2bMHdevWRXQ0HyS4uXuiXvfxSJVRSrv8bwK4tKipV+yyGMBp1decqNvuIG4KwC0Gb5oUOepPKByQJruYe6YB8FykB64r5FF0wBU+ijSDJQD3gK9XwlZixpUDVy7M1rVLsX3dcu5RCwoKwp07dxAQwLvLHLtwC30cmONMbJRVXzYXOuMoJ/rP1fuYsHo/bjx8btFvR8aUQfh5YgchX3n2piNYue+0Rf0lx4071SiK/k3LC08tOjqGudj3aVAa3gKfSxJlKlmyJP79VywHnD5HYdTpPBIuLlLla1wAHh0dhVfPHuHNy6eIjYqS1MBdXODp5YegVBnh4SVVhtKyiEHRjy4dI+uNaJQNDbjYStm+3IEBV1vyH9a4AinHkt4cqEBH3kT/JqH6TM1CMbBUU5MAEStH4Prqat1KjzJY/d2Ivb9rGOVGRXluNWAb44kr29hk6sYF4Grw1kbZumhbzf9W0ik56o0rFJA25wHhCIUATmqEukoZPX1Q7sCRAfxdxGv0af2p8FSnTp2KYcOGcd/RnW84eiVuP3lpk5toj04ypQxkRTYeghJ35XjvPkRi/k/Hsfag+XrnveqVQs96n3BDfvPuAyoPXoyoaNssktrjmiRUn5RKmdy5BuN/i5oxaiFtu2jRInz22WfiFJerKzqNXgFPb199QYsmhfLg1iX8+esavH56BzHRUSAQp//q3TRc4OLqysruvXyDULH1UASlzOjAAO4GV1cpzcTSfjqdF+XXQbrCUgrFbAAnY1Nz0iYiELdp2X1cAK7Oa4s430Y/y/7pmMKB6XLvNwvAqRIzyNeA66rjfysA7goE+Lg7ZAROPy7fTB2NU7/zKf/s2bPjzJkzQk74jA2HsXr/mYTCBKuOQ9oa33/RUEhRUzqkZ4KMkLcdv4itxy7GWTlJwLRoQCOUyMW77pAz+xff8W5HVg08GexE+idrRrRAyiC+QtPY6ZHLfLFixRAZGSncJFWm3MiQqzgiP0QgNiYKsTExeB/xCs8e3sbLpw8QGy3ez9TlDE6bDblK10fWAuU0+XQHiMDdiAcuQZVkyCxH7vQBQSkFjiQnG2GRHjjlF81loZiKyk1d3ji/NwbgXHGOqGDH2GfZ64wqFJghr9jyQxuBZ0nFTI3VxQo6AFeCclrEdGAAP3n0ABZM5516vL298ccffzAurrZduv0Eraeuc3ibMCp3/2FQU6GQkvacXr/7gBnrD+P8rce4++QlV4JP0fyvUzsjVCDKNG39Yaw94Ng/aPF60qzYOU2IPzNmCPDlpWFF3TVr1gybN2+24ki22MUFhaq1Q+7SdeHi6qaXbxUoGyZoCsXVA66MIy8Qs1Kldix05CHNaGPRtancuE1VDEUAHmd6RJUyMQry2WqPKBSUMf8+8yJwIwAugzcbIOXAfRwzB04R+KuXz9G/Pa+rTUPv27cv5s+fz10KmsR9vuatsGzxKNmyD3IlWjKgMYrk4Dnbxo7zITIKtNgW/joC5288BkXXl+8+QYaUgfhxeCth/rvR2FW4+eiFLYeeLPoyl1q4ZcsWtGjRQrhwmXAXwgXZi9dE8bpdZGEsB4jAXd3gyszJ+Ty9+jMLAZweBnMicHNB3uq8oRbA41q01AJ2XABe0DoAVwwclFJ6RdyKaISOC+A0EZbOm4ajv/3CPSvu7u64desWk/LUtj8v32U64cRMccTm4+mBEa0roV7pvMJybluN+fr9Z2g6wTFt52x1jtb2Q2tDQ1tUYKwTY+3+/fsoWLAgwsPDrT2MzfZzdfdChTYjkCpTXjlloSJ7GCxYanRX7LWIaR8AT28EwM3Ji4uA32oAUAO4dtGSowdqom+66cI8ebZawwoGZSq419wIPCxYT5mSIm5ZTpZ0INjfjg/gHz68Q+9WnyJGQN2aMmUKhg8fzl0O0rOgysy7T1/Z7AGyVUeUr+7XuCw61ixmqy6N9kMROzXSBP8YHYNnL99i7uZj+PPKPbx48y7ZKxKKLgylm0L8fTCpUzUUz5WRmToYa2PHjgVVXcaHm6/tmwKPwMBAeHp6shwyOU3RZ8SsInris2fPhOqGUj8uaDRkOdy9vIXmEAmZQnFzp0VMJaWjYrTIJyz9bsRaaqlGizhqLRRLOOFx5cQtfta064VaQI6LiWI0As9ac2jB4MyF95gF4FlTIyxIEao3lJMlEJHxG/6+jruIyQYZG4tpI/vj8nmeBleqVCmWCxe1tfvPYJqDVWZS1DegSVm0q1ZUqEFN5/Ho0SOEhYWxh9pejXLqf/x7B5NWH8DLt3yxlL2Om9j9FsmeFgOalEOBrKnhJi/AxTWmN2/e4PDhw5gzZw5IOtbaVqVKFVAePUOGDKyKmBbhg4OD2T3WLQTGxuLdu3c4ePAgmjRpgg8fPggPV7JBH2QuVMHBAVyviWKhJ2ZGVQRO568F5biErrRRuvZvi26fGsBNLVya+l4XsWetMaRgcJYiv1oG4NL7lZLzJhDRDy4W/g6eQqGx7v9lK1YtmCM87X/++QdFivAVjqQt0mD0Ctx7xmuqWHQnbbhxk/L5MaJ1ZVD+W9SuXLmCChUqwMvLC+PGjUP16tWRKROvV22rIb37GIkRP+zBgTPXbdWlQ/ZDAUu90rkxvFVlocyAOYMmMKf7s3//fpw7d45Fy4zrHRvLQJieK4qqc+XKxdIutMBOkTapZyogbc5xaBvimpctWxYvXvBrFxnylUPpJl84AIBLPz46mQD55CRGihxGx7rIaoRmy8nSZDc3v22KhRKvRU1tzptOz1gUbow2qF70ZPtnqT6oYEjWYrvNA/BUCAvUW0Ux4NbJySq5cKmU3sfBSunZiaukb2NjotGtaQ1hGiVjxowsFy5y61m08yS+2y42MDL3YbLVdnVK5MLUbrWMdvfy5UukSpUKpHSnbiVKlMDu3bsRGhoqPMf4jo8ewC8X/4I9p/6Lb1cOu3+jcvmYImRSaj179mTcc23z8A1Cw4GLHADAVXKy9KzKy4VSEZBckQkgwjIaIdkembuIGRcrxRi4mz0FRAU6cS1WmorC2fdZqg0oGJKtxC6zADxLKoTJlZhSxB3L64EjaQA4gfn2jauxeeVifkJ7eODo0aP45BO+iOVh+GvUHbUCMTZS+jP77ms2LJkrPaZ3r2OUMkiOLuRqbsyai7qjtAqljChnmjlzZhahFSpUCClSpIg3sJM/5Ofzt+HUtfvWnqLD7lcgS2os6NdQ6CbvsIOWy/Zr1RL/4DcZsQauLm76ivVEWMSkgiOmB67jgVO2U/bZYqbGUrMQwLPYCcA1Bf6m77wC4HHlvk2xT7jvs1QbUMBSAJfS3XLErYpqdYuYPo4fgROA379zC+MG9BQKXPXq1Qvfffed8K4klAu8sSmRO0MK/DCoiVEAoddkypGePm1dqfunn36KHTviX6hz/9krtJ68Hi8jkk9O3NPDDSuGNEfeTLx6pXK/oqKjmT8o0TNp0bdiwaxWp1lMw4L5Wxw7doz5bYpaw8HL4OHl60AArjjRy0hjPYBnNaMS0xQjxVje3CIQJ3wkkqQ5VZdcqsSIK49r5qr9C4RmL8lz6hhGSyCtJJBysQhcU8jDAFzKget54EkDwGNjYzB1xEBcESxm0mLQtWvXWGSqba8jPjAT34fP35j/9NhoSyqs2TymbZzFOg0bNsTPP/9s1REpx3rjxg2WXjHWvt9+Atv/+JfpkY9rXx1Z0xrXxV617x/M2iSWm7dqgIm8E7nSkxa4sTWHXScvM8kCspgjaz5Kw2VLHYLv+jWIU68mIU5r1qxZGDx4sPBQTUeuhQskvXGZJSj9W5XG0OehpQDO4HsbaKFQBE6l/9IxNbx0AwB/g/t3zS6lz2YFgMe1eGnsO5O3kPCRaASmUilmpU4UmmHmKl8UDM1Raqfw6ByAp2QpFKUSU4m4aV8dcYoV8jienKw2B67kwx/dv4sRvTshWmAiS2YPS5cu5dIJdFnm/3QMy/aIvQtN3kkrN/Bwc8XyIc2QPwvJO/CNFsF69+6NhQsXWnUEf39/HDhwAJQjFzUy5h25dA8Onb2he50lIGtWPj8TdBLJpVLKqfYIXkDMqgE6wE4TOlRDg7L5hCMZvWwvdpy4JKRS0qJniVzpUTpvRlQomBU505PKqfWN7Nku3nyMi7cfg7RpHr94g/ql86J4LqI9843YKJRSO3uW18LxDUmHur3nOEQO3CiAszhRAnULWSjZBSkUUxF1XEyVuGiIcd5QBcAJoM1ZpDSLVpi5yhcFLAZwmeeq5MGVUasjcEeTkzUG4PT5nInDcfok7+tMuWCyuKJcsbaR/+SnI5fj8cu31j+FFuxJLjAE3iJHeuqGct5ETRs6dKgFveo3JbYDVaHSQpeofYyMxldrD2LL8YvC7/s2LI2uRmzGBi/ciX3/JH1WCnHfj83rCQ+5WlB9IX796yqGLdltNg/ez9sDZJZRrWh2lMydAcH+kkicmkHOCspjgfDX73Dx1iOcunofl+48wdt3H/H2Q6TOhzRtSAAWDWiMjKmCjN77vXv3onbt2oiJ4etQMuYvj1KN+zoegCtKiaoFTSsAPEc8qIOWAr1JAPcwwTzRMlWM/a2L0jNX6VsgNEdpccJTG4FnTYUUOjlZKepWJOZ1B2JaKB4Oz0JRM1L+On4YX08V21m1a98eq1auFN4Y0toevcJ6Lq8lSDu+fTU0/H/mg7G2YMECUN7e2kZKjFTEJGLeUJ/ztx7Hst1/GwUoqgTdMKoVMqYiC0LDdun2Y2aMkdRb/sypsHp4S8GPeTQ+HbkiXj/mdN2luEiBcEWCVW/iILp+baoUZv6coSp2mHY7oigSlZRYSaJWon5vZClc0QEBXCVmpaxgWh6Bk+EtAbEpKqE535tTEGR0mtOd9RSkUKxd1GT7Zarcu0BYzrLbhUfVAHjurHoWipT5pqbWBad/SykUR6cRaimFo/v3wJ0bYtrbqVOnULRoUe4SUUqhzZT1uPXYfrogVNVHsq7d6ho30SVRpNatWxtVtosLON3c3NC+fXuWdqEoXNT2/n0VI5btAb11xNUal82HsR14al10bCyqDV6CF0m8wKdm8RyM+aNtJAbWZMJq0FtKQjX6MWlfvShqlcgZJ2OIirjIMILmsKhROf2nfb+Bl1+gwwC4pEIoIbY6J698IGmhmM0DJwA3VhJvDJC128cViZvNDSe8JKkzS3PgcVINM1Xund9cAM+lAnAlVlADofRZ0qb9JZwAACAASURBVANwuqC3b1zF6H49hCXOXbp0wQ8//CB8AJ6/foeaw5bG23vS2INfqWAWzPm8HpRKV+12VKBBdEcqCrG0UUHI7Nmz0b17d6MgcPnOE3SYvhEfzAAnWuBbPZz3faTClBaT1jJmRlJurSoXwrBWlbhTOHfjITrN2IxoQXrC1ufr6+WBoS0qon6ZPCYrPx88eMBooU+fGnOUckGJBr2RtVBFh9BCkRYxJclYMYBLISPTAzcfwMnOyFKWCR1GG7VbEqELb7sC4HEV76jZJybTJ5SOyVTp8/xhucqJKQuCFIqeB67QCKWxKi9+SRXAo6I+YuyAz3DnJp+rpciUFveIJy1q09YdxNqD52z9rKJiwSyY1bOuUaMG4nhTdEWmzJY04gLTAm3VqlVZoY+x9uxVBLrO2my28mDm1MFYO6IVCGTUjQC81eR1DmtNZ+6161K7OL5oxM8BEjrrOXerLidtbn+WbOfn7Yl+jcqgatHsSPH/7B9T7ffff0fHjh1x9epVo5uGZsiFqh3HM8cfg2pH2iOReOAiAGfoonISYgBuvqkxOW1YEkGbs4BpCsyVhI/BtSeM9I5HCkUI/BYDeLAvi7KVZsBIYQvFZKmWtFIo0gIncP70X5g+eogwCi9QoABOnDgBX1/e/5BSKW2nrMdNG6ZSCAzJjzJVsNgkgEC7Zs2azIQirkb6GCQLEBISwiRM69SpA7KQM9XIDozUF09evmtqU933eTKmZPZuWmcgAvCWk9Yyc9+k3LrXKYneDUtzp0AaMFS0RB6ktmo0J9OnCES2tKGoVyoPA25j1EX1Manqdvv27ejWrZuwbF7Z1ts/BFU6jkdAaBqH0QPnI3AV0hCNUKYXWujIQwBuTu7aXOqgueX23FSge0p17JakUNRsFeG/M1bslT9F7vLbhBNPG4Fnk3ngqo11AB6rl5dNaouYCoDTdJk3dSz+PMY79tAi04YNG5iAkKj9e/sJOs3YxAo34ttCAnywbkQrpA4RgzelS/Lly8fU5kQtderUmDt3LivaICaNolJn7rhotveauxV/XBL3b6yfIS3Ko21Vfq2AALzZxDX4737iS6iaew1E2xmzmLty5wnafrXBJmm0VEF+6NOwNErny8QUDt3d3CySB6b5SXrjcakdElWvYtvRSJ0lPztNSXsk8fXAdQCu1QNnGWn9Yq6FAJ7Hwhy4MYBWR92mInDhYpEC4DZNoWSs2Cuf1QBOglYqFUIdjdDXAz6e0sRTfkOVfysL7fr8jqSKJf0dywiSekaLXmOcpwGq+tZp5+rTOroFVpXZhDpfb/BvOQKn41+5eB4ThvYVPudU5PLXX38hZ05aFzFs9MCsP3QO09YdMptKJjoIcann9aqHUnlJRI1vRAOjBUv6MVEaRdl9+vRhkXa1atVYhG2MTWIKwOgHiPjMe05dM7WpwfeflsqFiZ1qCnP1dG0ajf3Rrou9Fg3Wyo37NiyDrnXEHHmSDvjn2n389yAc5D9KC5sPwl8zid3IqGi21O/v7YFAX2+kDQtAymA/eHt4wNvLnf1Q50qfgukMeXmQGbiaTGh6sHR9aY1m8uTJuHnzZpw7uHl4o1SjvsiYp4RMP3AgAPcgOVxJ80TviSm/1VAEbp2lWl4LeODWROFxLXga3Au6q/T+bmkELsqL66LxjBV65k+Rp+JW4V2PKwJXgTftq4tiXQB/H/ckC+B0LovmTsPhfWJ9L4pwNm7caPQhITnVTUfOm37qjGwxrn1VNConRUaiH4lBgwYxvjc10jDp2rUrRo0axdQG49NI2+XCrUcYvWIvbj60jFWTLiwQPw5rjtAAPr1EY6LUQoPRq3D3qeMaQ5tz7Ya3roSWlQqZs2mCbEM/5hcuXGDVlXv2iBWh1QPx8PZD8dpdkblQeX1O2ZEicAJwFwJwraWahDBKgebbtxZVYhL31ty8trEiHUv3V7YXArhtI/AKPfKnyFPpJ7MAXGahqPPe6ohaErciAE+6EThdh/fvIjCsdxc8ffyIuyxEuyNFN2KmiBpFYsOW7MLBs3FHQqJ9+zUugw41ihllFyxfvhw9evRgdEHSfz506BDSpxdX3lmCIK/evsfQxbtw6toDzhvTVD+ZUgZhxdAWCAmg5RlxIwCvN3IF7oc7jgyvqfMSfT+tay3UKkmkhsRvRA+kNY2TJ0/i/XvTWjOePv6o3G4UQtNmMyiVpzNxpBSKLgLXvcfqgZslUWIsdqUnALeERmgOWFtCM9RNFsJKWn42NwI3ix+e0QIAJx644kovveQpcrKqVEcyAHD6Efr1581YufAb4ZNK9DsyfaCFTVGLeB+JsSv3Yq8FcqrtqxfBwKbljb4+79q1izFOqOXOnZsdn1In1jSaff/de4YTl+7gyLmb+OvqPaus4nKlD8PkLjWRM32KOIdBAF53xPJE0Y6x5voY22dR/0b4JI84tWXL4xjriyJTEhnbuXMnVqxYYRZwU18pM+dD2cZ94BeUglLJSQTAlasg5751i5gWAzi9zpoDytakT8zplwNwS0vp4+SBZyjfPX/KvJW3CCcNV8iTmrnS6znJAjnZZALg9Ls/ddRQnPvnL+GlIRAlGh+BuajRwzZ781Gs3n8mTulZYhb0aVAGnWoZt0Ojxco8efIgIiKCHYqEqurXr282ZtBbATnmvP8QhR/3nWI/LOFv3pm9v3ZD+oHLlDIYSwc3RVigOG2i3ocAvNawZXiSQLIDVp+YiR03jmqNnBni/rGy9bFfv36N58+fY/P/L0yOHTMG9Le5zdXNAzk/qYNi1dswkShqjg/giqGDfh2QwZBKzMrCRUwC8MSKwA0WMynoJVqCMTVCc/VRDPbPUL57PksAnDwxDWmE8sKhPKuSQwpFWXC9d/sWRnzRE5GRhoYIygNE+XBaTDS26ESFHX9fvY9Jq/fj9mM+/0sR7Mg2VVAwaxqjdmhU/kz884sXJQ2SNGnS4O7du6BUTlwt/FUE1hw4AyrEuf/sNR4+f413H6JsQnXrUL0IPm9QRiheJRoTAXj1oUuZ831SbnundWEKjPZu169fB0kjkDMULUqSuQilzSxpwamzoFT97kiRnqRA9E+s4wO4ahFTPmGGMDH6WngC8Af3zVYjpNdkcyJlLbPE3H1EFEVtNM/OxBiAG1ukNOtziwA8m+SJqV4j17E5dEI8sUk+B65mzxzcuwtL5s9GTIy4THrgwIFs9d/b23gOmGRFj1+4hQOnryMyOhqe7u5MxIiU6bScafVDShV0LVu2ZJZbSqOqS+Kji1pUdAx+2PUXNh05hycvbQ+WxXKkRe8GZVAsV3qDOWAKWAjAqw1ZgudvTOdqTfWVWN/TW+eJr3sJ7xfZndF9IbU/eiMj6ib5VJIIGtUNKD6V9AYV8e4dnoeHs+KrV69esTQIfU6l7uRdST/O5uS0jV0Hb/8gZMpbBsVrtYWbh5e0WKk3t3H8CJwtYuorMek8GUJqInALATwxI3BdcQDhZoCZOXBj/G8O1DOU65Y/Zb4qm4UTQptCEQG4fCSlY7rcSX0RU0t//GbGZBw78JtR7BgzZgzzm7SU/hUXGBHDgMB706ZNBptlyZKF6XUba7cevcBn837CoxdvbeIaRMDl4e6Kb/s0QIncZPBteWMAPngJnidhLZQMYQHYMbkTd/IUGRvTkLH8Slm/h4uLKzLkLY0KTXvD3d2L8bp13O4kCOAkHav88CgRuIKEFkbgBS2IwG3NQlH3x4IeAnBLWShx58DLdctnOYBL5GqF9628Hijc6+QG4K9ePMfkkUNw+4ZYEpWAm/REvv76a5s8zJQ2adu2LVusEjVyVjFW1k/bUyR+/UE4zt98hAs3H2HXn1dA+tHmNrqP5Przaek8IPsw+l9cbwpKv7SwWrJkSS69QwBeNYmLWVUulAVzP+fXHf777z/kyEFpisRrOYpXR67i1ZEifTbAxVWnJZJUAVzKZWgNHfSFPBEkZnXP7BQKAXhCR+CiQh+Gl4GqCJzOUgFnq0E9gwUAnicbLWJqDR30OfDkCuB0Xg/u3cHoAX3w5o3xRSSyIiMbtvi4vpN2BemUHD9+3CgiEEgeOXLEbO43ASi5CD149ooVm1DVKDnGKNV69AMU4u+NwlnTsPRI2tAA+HqLlQlFg6K3BUojbd26lbFjPDwMtVDo+FUGL8HLJByBd6tdHH0EOiiks02SBgnd/INTIWXGnChesx38g1MaMkvkFERSA3BX8sSkFIoBgCtvEhQxSpooFho6EHHf0ny2AvhxVVxa2icH4AqdUAFybdpElAPXUhBdM5Ttki9l/mqG7+nKbNSkUOICcOXglBMnsfqkWonJ3ia4ClLpgty+cQ1De/eI81mlas21a9fqKH+WPNg//fQTOnToYFJZkAC3c+fORhUSzT2m8kpqWd2fYe/kv0k/KLTwRpWgxgC88qDFeBXxwdyhOdx2X3WthdoCDnh8ddgtPdGwDLlQrmE3BIWlhbuHJI2kvKerBZ+SYgqFB/AY+dwUdJFiaSsA3FgEbm55vKVgLaIk6gDcVLQdV8pEAXDdNrYAcF3+m1VnxsIviRfyGANwOrc/jhzCnCkT4nzuXF1dmftJu3btWNl7XI1s0NavXw8q0tm3b1+cGhbafpo3b47FixebJU5lKVCY2p7GTRri06ZNw+3bt9nmxYsXZwBOi3bqRhF4UgfwjaPbCG3QqAqSvCbt0Vxc3ZAhZxGkzJANAaHpkDFXEXj5EhFNWehTqQbqsw5JNoVCtEfJlV7+SZId6XWrgLIqoYVqhBSB2zqFYilnnP1QKCkUhQeu4CYXVeukQczIl8cLwNWRqnyVkzuA08U+dfIPBuIfPpiOKImV0LlLF3Ro3x4+PpJtFqUcaN9FixZjzZrVLKKwtpHuCUX85cqVA0X/9m6kdkeMCcrRU9StbskVwMlKbffUTkKpgCZNmoDenKxtJODk6e0HLx9fuLq6MWf4HEUrIHOe4vAJCIGbm4feWJiVmEtNxyxRZF+TA4C7usHVTYq2lbJ5NUmZJQQoAic52ftmGzoUjkcKRU0RjG86JZawg3RA1YAdl9qgWQCfoWyXvJakUBgPXHnnZjpUWh64xELxTqJiVuyX0kgKhX6c2Kn/v771pYvnMHbIQIsiZuJuE4BT7pkiWFs15nyeLRuL+EeOHMnloG11HKr+mzlzJi5fvizkJZMZMulQiyLwSgMX4fU7MZ/eVuOzVz+h/j7YOqE9An0N9Wboh5jy37/9ZshQSp8tP8rUao7Ijx/YjzXT9oiNYbrbrm7ucHF1h7uHB9w9veHu4QUPb194evnChc0P6eVYTf3TOcMndwB3d2M/YnpDB30ZPV/IYxGAmxOBxxegjaVZdMdWANxUCkUbkYsidF0f6ct2zpcqf3WxOpMgBy4V8uibGsAZsFMlprd7sgZwdpousfjvyhV8O2s6bt+yXPfEXLAhfnnDxg2wc8cvePPatOsO8Y6p5J6kZEkvpUyZMkJTZlPHJ9Ch4iFaTCVPxdWrVyM8PG452LgAvOLARXiTRAE8Y8ogrB/ZGr7ehouzRCEkNhApVKpbiSqNUaF+e8NIWRA1S9ZhhtGmHqzlz+X9pLghmUfgCoCrr4nyyqHjgcfKEbjZLJQiKncdW9AEtekT9YKnqKhHCOBxVV3GVanJLWxaDOAqFoqU12GJb50ELPE3/1cAXHlCZ02ZiJPHj9k0qqa+s2bNihlzp7PikL///BvjxoxHlBV64wEBAQzMyYmnRo0aTEtceRtQgIHeCC5dusTSAaRsR/Q4crq3pCXXCDw3GVUMbQ5PD8PqVyq4oSKea9cMpXdrtfkC+UpUdgK4DogVg2Y5/aN8LhfoKCkTV3c3uLmSO5Bs3qDir8dDD1wBcBG4iqJmYwubJiNsVa5dGM2rI/A4ud0W5MBd05ftnNeiCJyjEUo3RbeQ6RLDdI+TcwpFicCV82aynmdP4/u5s/HooT4ysAT81Nv6+fuhe89uqFS5EsubM0ZBTCwuXbqMmdNm4v69+9Z2rduP0i5K4ZH0iq9fKrK282LFiiVLFkqxHOmwZGATTu6A1i4yZ86MZ88MnYZa9JkISqNIP46GkbRBbtcZgbMKSwXA3SgCZ/Zu6rcSeV5ar4ViKYAbA/q4GCtmsVQIN0h+ztwUCV0XUbrF4DPbAjhF4xSB/28BuLQmQCAbgz07d+L3Y0dw8dw5iyPYbNmyolixomjboQ18/fxUCzn6ogYq8pk3ez7+PHkS0VG2y6NbC9rq/YoWLcrK/EU88KRcyFO9aHbM7CkpQaobUSipZF77ptJu0EykpKIaJ4DLc9i8CNwQwPW/fAzC4wfg6hy4ORG2NmduFkAbMY6QR48YEYDHexHTEgDPS4U8qhw4wy0XeRFTMtZhC4B+Pv8bOXDdm4cM4Lq3EMSygp9jBw/i+6+/NomNpUuXQo/PuyF9unSSahzHLFBVpckByZPHTzF6+EijtmomD2qHDYgHTgCuLS1nYlZDfoiXAqIdhmt2l11qFccXjXkzY/IjpXPWtk5fzkNIakl21hmBSxeBhbWqaFvHpuEicFeDCFyJzm0I4OZE2NptLAFwYwumOgC31SImi9CtB3C1BrjshynnxP/XAVzNYiERrA/v3+PZkycID38mKRvGAmEpQpEyZQoE+PvDkyoXZYaL+hVb/28ewAkYIiOjcO7sWcb8+HXnLsZ4SIiWIVNmlKlYGds2rAXRCpVWuHBhBuBadyAC8BpDl+JZElUjHNeuKhqV512SVq1axQqvDJqLCxiAp5J0Y5wAbiGAUw5c5dEpBHBWSm82C4VMWunBsJXaoKVgbrCISSkUawFcWKlpOYDr1Qgp+HZxlTgpCjOFFjWdAK71ApWmoQTseg0ZNc/TGgDXRTGxwLt373D08BH8tncfXr96hXt379oM0D08PZE2XXqkSJUaTdu0R7oMGfD+3XsM7tUNb1XSAoUKFWIOMSIAT8p64KR7TnlwbRMV8RBNsOOX8xCcIq0TwC1cxGQplLgAnLCGVWJaZKlmawCPKx1jkoViKYCbTLFYDOAkJ6uTjpVSJk4AlwFa7Q2q8OMV0S87A7gS7VEUTlExSZU+exaOq5cvY9/evbilKboxFakHBAejXsPGyJOvAEJSpIB/QCDcWIWlVCn3PuIdkxV49VLvn0mMDAJwrbQuReC1hy/D4xfWFyyZGq89v98/o6uwiKdixYpMk0bd3D290HHoXASGpnYCuK0AXNZAYYv5BOCvLdIDVwA8LhaKpVG1qBJTm1vnKItKDtySCNykPkr6Mp3ypSpQQ29xrp6NGh445cDDtDRCLYBTDtzb7X+KhaIsYuoiamEhkH0jcP51XeYMy/n0qKhoVv1J4P72bQRev3zJ/k2zjN6i/P0D2P88PL3g6e0Fd3dVBaCWq0wA/u4dhvXthRfhegYGWcwRgBNzRt2SsqVagI8Xjszh9W+ItePv769zSVLOl6oqOw6dA/9gybnHmUKxLoWiXE9Zykp2qtdXYlqgB24OgFsaVdsVwC3jgdsQwKVFTSeAiys5ExfA+YVRmWsr8WdU5drSo6Pj4ir/lj+UwopYfHj3HiP69cazp491WE388j///JOZGGgBPKmaGufLlBJrRrTiAnyyOQsNDeU+9/ELRIchs+EbKH3nBHBLAdxdnovKTJNs4LSLmEkAwOn2K0DP/uvgEbickXUF/L3+t1ko/wsA/vH9B4wa0AePH+l57+TbSVWJWp9QilYbjFmFO094Wzl7pj5s0XfNYjkwvUcdrisqesqbNy/3uV9QKDoMng1vP0mXxgnglgC4LGalWsTUccIZjVB63Y+wTAslyUXgap64TVMoebKmRgpFC0VloaaUKkjFIbHwcwK4XiMmgXPg+oVNwxSKrSPwjx8+YsygL/Dw/j0diOXMmZMZPVPlp2EmLhZNxq/GjYfPbYGpCdpH51rF0U9AITx06BAqV5aqLdUtKDQV2g+eBQ9vyTvTCeCWADjpxLjKdENpJusBXO/raQcA1+bAlejZnNy4kn5JkBw4DcxAzdCSRUwG4CF+ejEr5TdRlQcnAPfxcodvMhaz0lZiJoUcuK0BPPLDR4wbMgD37kpSstRIUIuUCkkhUQvgLSauxdX7hhWLCYrEVh5sVNsqaFaBfHENG0kAt2rFp1ZCUqVH+0EzJT9KJ4BbVsjj6gEXN0nIS4Julda5QSHPG0tMjY2xULR577gWOY0V9lhUFGRNCkWtfRJvGiEZOlAELnupyYU7SsynFPLEwNvDjZk68KkE+SVIRaeTtFQUel0s+3nRLwaquOaygBTdWqVgyEBIS+W9rdD1tNQ9nQGzti+hAqF0Xvq+JAEr9djUY1Fe8LixJdMIPPJjJCZ8OQh3bun9OamsnJzUQ0JCOABvM2U9/r3zxEoYTbzd5vX6FJUKS1WV6jZv3jz079+f+zxFusxoN3AGUxx0ArhSEm9eIY+7h94FiquHYAAuPZNv3xCAP9Jdex0C8XIQsfd3DbM1jdDSaN0kD5xORKsRbrZWiiUReO6sqeQIXM/9VkBRB2AusfBwc0Wgr6cTwA1+AJLXIiaJak0aPgQ3r+uFnDJkyIDTp09z6oeUA28/bSPz6ExKjX68lw9uhsLZJU63uhkzckiTKSfaDpgmLbw5I3CLInB3TxnAlSp6XUVyrLSISbATC+ZY9dA6AOeofUbK321JOdSlWExpoRjLd2u1U6zWQsmdLTVShki5PWpStKmv/pP44VKUGhrg5QTwZAzgpMMydfQwXLt8STcf0qRJg7NnzzJ9EHWjwKjzzE04/Z++ei4pADnN563j2iJzasM3Cho7uSFt2sQ7EWbNXwpNun3pBHADOQjTETiBhZvipaoDcJXcrjxhaC69fvUajx7o2U8mInDSOtCmQEQpEVtVahqlJJoCcHW6xNx/W1RKz1IoOgCX0wmsHFOWk5Xfe+jgQX6ecHeXAJ2BvcyNVqiG+ipEZwpFuibS9eReHbUr8kYiOz7as+8iZkx0DKaPG4VLF87psJiAm7TDU6eWiliURg9d9zlb8NcV/YJnUgBwMtjdP6Mbgv3Je9KwkQ+oVgectihaqQGqNurkBHCLAdwVbh6yFZ+ie67qQw/SwMsXr/DkkT4dZwaAW63hbSRCtwrsGS6q0iU0X5Ro2pLiHoOI3BI98Hw50iA0SCrSkKJvGXIInGUxKyWV4uvtDh8vNyeAJ9McOMnbzpo4FufP/KNDNuJFnz9/HmnTGqYc6AHrNW8r/vj3TlLAbd0YvTzc8Pu8XpyMLG2QIkUKTkaWPq/W/DMUKVvTCeAWAjj5f7q6y0kETQpF944vJzZePH+Jp0+e6gMEdaRgOMMoBx4fOVmLFilNpWPUAG52hC2fj5IjV0BfB/hpP2mbO03huluET5amErNgzrQICvTW6UgzIUJFjVCnh0K5Xhd4ursiwNfdCeDJFMDpVWH25PE4e0rvRkP0QXLxoVy4tn3x7XYcPmc/5yJ7/DIUzpoGK75sznVNkr7BwaRqwbcWfSYhY/Z8TgC3EMBZ9M3e5CUWCvOjV/rQcQml0DH8WTj7nw63jQF4LCLv7x5WwgxPTHPogqYMHUzqhSsAruV5mwLzOHPgqYs1y5aueOPt5gB4gZxpERKoL5NWXv11Ebkq50vBeXCAB3tFYN87Uyh2FbOia2zIObZvCoUerm9mTMVffxzXTR3SQKECF2KjaNvghb9g3z//2QNn7dZnx+pFMKBZBa5/Un8kKzVR+2zCUvgFBDsB3AIAJykHkm5QEFCtRkgStGqeG6l7hoe/wItwfU2BsRRKbGzs2we7h5cxMwduLY3Q1H4GLBStqbEx8Dbbci04R+VUWat0P2AOgOfJmgrpUgUhUjYSMARweQFTMf4F4OvjDh8PaShOAE9eLBR6qpZ+/zUO79ujmzpk03blyhXGB9e2EUt/xS8nr9gNbO3R8eyedVG1aHau64ULF+Kzzz7jPieH+QEz1ksrZk4WikrXO+5FTDJ4hqvC/5YDETkaYUkAUiGMkfog8wwSaXv98rXJCDw2Jurhg19H1dQAuE3TIqpaI1GEbpB7J7yk+lxtOkQL4pblw/2CPYu2+e4fmaRjOCk1KZQs6UJAglaKOa2aI62mEUokQxJJAoL9PNn1dwJ48gPwDatW4JethkyMf//9F1RSr21T1h7EhkP6BU97AK6t+9w3rQtSBOlZV0r/PXv2xKJFi7jDpUibBZ2GznYCOHsdVFVRxmXoEAso9EGd4QPty5bXpF9B9v9yKX3kx494/Pgp3kVEmATwmKjI8w/3jm5jRgrFKHNEPoiiJy6KtkWMFuF2agA3lTYxBuLCdErhLiv2uLq5p+dmpAbAU4X6o2SBjAzASWFOGoT6BUdf7EJ9EXDTYqaXh6sTwBNITla5GzoHc45Tq3q4lCjRCjEruu27t2/DuuVLDKYNyauWL1+em0rfbvsDi3f9aWuMtVt/VIh2bC4fZdN1LVeuHDPR0LYchUqjUeehTgC3AMBd3dxAC5gM8HXzUS7a0f1NEbiUFycJhwf3HhjY2BlLoUR/eLvn0f6Jg+yYQlEDtakcOcNLisC1ICwCZWM64EIAL9hh0Tx3L7/qpgDcx9sD1UrlQMSHSJZGUX5FlP0kZoq0iMkAXE6dBPvrqzKdNEL7GDqwZ8bAQNf+OfDfjxzCwrkzDabN5s2b0aRJE24qrdz7D2ZvPmo3wLV1x5lSBuHniRq3HUjGGSVKlGCLtdpWqnoTVPi0nRPAzQRwwglXNw99JK0BcJdYdSl9LAPtDx8jcf+uoam3MQD/+PbZoqeHZ5CnodXVk6aYJSZSKGqAZ3hJKkGWpEjM2jZX06/a+4VmHGYKwGkAlUpmg6+PB95ESFZaunSJIm6lyoFLvyKxLAInlx6lyEdfOi9H8M5S+iTHAyeUunD2DGaMH2Uwbb777jv06tWLm0rbf7+I0St+szXO2q2/otnTYtmQZlz/4eHhIPPm27f1GjDKRjVafI7CGBjfIQAAIABJREFUZao7AdxMAKc1AxcGZ3KOXAXgMnRIUse0RXQsPkRG4s3rN3j+zFAUzRiAf3h2Y9izkwt3GkmhxMU8ocPbIm2iPoZVAG5OtO6Svmzn/CnzV1vvwrLWqqZJodA3lAcvmCsNIt5FIjKaonAJfXXROAfgMSwiD/TzANE8nRF48onA79+9ixH9DMF6+PDhmDJlCgd8R8/dRJ9vxWQnu6FwPDquUSwHZghkZO/cuQOyjiNHem1r9tk4ZMldyAngZgC4OnUib65LxurErFR59OjIaIY3VMBDdn4GMKX8odFCeXP3ZNtX57acMZFCEZkzmGKWGOh8q/oXAb+OBEnY5y/QPYmTJqjU3MQVuafIXytNhtLttri4uhqSWwUA7u3pjsqfZGOgTCCuhOA8gMdKi5fyzyP9O9DfA27yhsr2TjErQ0Bnl8sMV3qtTCnbLYFTKPQgfdbOkCfdrl07kNmvtl24+QhtvxIbP8UDZ+22a8caxTCgaTmuf1qkJechkYF0t9ELEByaygngJgCcFsRc3eXUCU14yeoStL6gzGN9BC59R7nv6JhYPLj7ANHR0WYB+OMTS8pGhV97ZeEipjavrQZl5d9xAbwoXcNOTA3gNl3E9AhO752vyeTNrm4ehvwvAYBTeXHZIpkQEuSLtxEfES1vowfwGCnHQ8vIGmsxlkrxdjOI2J0AnnQBnGZlj9ZNQcwApVWoUAGHDx/mgO9h+GvUHrHcboBr647Hd6iGhmXzcd2S/gnpoGibm6c3+k39Ea6kZ+2kERplobC8twzeijgVl0LR8yLYtYyMjEJ0VAzevH5rUMCjC7wFEXhs1LvjD/aOJy+8+DBHRJG2NdE5G6EC4GalRQSLnXHmw/O1njfEyz9FZ8OfNulK6uWqpG/TpwpEsXzpGTfz1TslF66XWtXlYTQATvv6ernCm5XYqyRknTnwJJkDp9kxsn9v3L+jzweTDsrDh3qXHmU+RUbHoFSf7xh7KSm0VUObo2C2NNxQhwwZgpkzDRduaaOchcuhYSciPMjKSUo+1+CtyFDrhl6ZdO/X6qpDgYqhFJkqgqqqty3ubU15g5OzxzK7Q7nqxE9Xv+VJ/epZH0bHI5+YFClLf+j/LX3GcELIetLzwKWKSwUhVFZ+etag1D+jEQIxMbH4GBmJ6KhY3Lt7H7ExWjRSFfro51bsyzt/d3x7fuMpKxch2W+wGQuU5myjm/B0SkRKNWth0kjqxGi6JShfjfTZynXea8AHF0Tg7JfExQUVimVGcIAP3hEjhV5pZC0U5QDKT45ezEqvVOjv6w4PJnTlXMTUpp7+r70zAbekKO/+22c/d9/v7Hc2ZsFhANk1iEERkHyyaKKinyAJiY+oEIy4BCJBJMSEKKgfRoNEo/KpIYHIJhghDhgBgbAqO8Nsd+bOzN3PPWt3fGvprq6uXs6559xz70z188wz53ZXV3e/XfWrf7/1VtVCcqHgvd7wt9fAE4+4Q+pw8eQUnxpUQOCpn/k27F4AK9PjV+Yvr/8IoLtQ3jBE8qGHHvLsP+fPLofVG96oAR4AcIw4QXY4zZAUOkgkOd2IO8Wi6rtsMvW91xk+L74Am5Ac4Ka5c+f9V54OxWLZB+Bcl0ZV0zLQqwG8fasc4A1R4MjSzeffdHM8mTlOsCL56W3zAJYMtMPRhy4DyzJheqYkxIXTFsYGOHsnHNYkwtAAaMvGIRWP0ThyrcAXrAL/4Xduhnv+wz2Vzvbt22HpUu+wggv/4d/g0QUwI+GmoQH43mff64F0Pp8nK9HLPthEMg0XfeHbkEzTaSa0C8U7kMeIJ8AgylvEtwhwNhKTf7mABWalAsVShbAF5//GRURUmwzwSmH6J7t//oXPVqG+awF01M5PF8Bxue9qFXjkTs51Z1/9vta+VX8VBeCoUt5+whqyfFq5bMJ0vmS7RQjA2ehLnhfdJ6zIYwB0tiSkTk29Is9CU+C/uO9euPkbGGrrbI888gjgdKvy9sXv3w8/3vKMshLOp50Xnn40XHQmTqHh3nCu88MPP9yzv2/xCvjQJ68DjKzQAPdOiRyL4WAdYai8gDR78I4wkIfasAKlQoX0sY3tH4NxYei8/AJkgE8PP/Un40/8AD8LoyhszI6HDPLfUc7jaYLUuMtfiCBGgKsUeGRIC64Vzznd607qHzrpwgfscEIfFwo3YGs2CScdvRKSiTjM5HFwD4YMOgqcjeexl0CzvVVccWNkSibO5g1n7hS9pNqCiULB0vn079bA/PI1V9oRBFg2/Abz3HL/k/C3P/R2cM4neKMwufHiM+G4Dcs9t/Wd73wHzj//fM/+Q4QRmBrgboDHifJmDmWOM3SjcKXNPu9F3zrmgK4Ts2JBsVyGXTt2K6N++IsQAW6W848N33fNhwGKGKoSNjqyXqD2u46rrCBw8RtNVuCYqFpV7jvUfuN7v/yJTMcADe4NATgmecOaAVi7ooe8NQwrrFgsCkVwnWA6fIn48eSNAwdob4lDMs4Wf9AAX1AA3/baa3Dlpy4BnCWOb9dddx1ceumlHtA9/Jtt8JEbbnfBfj7BG++lLZuCH13+fljSi4Oe3dvHP/5x+NrXvubZf9q5n4DDjv19JwxOR6EQG8ViuMo8VnyLuWEpFIh7mwNccJnQfQZxnZTKZQLt4V0jUPjdAtpBmwDwyszO5y4affK7W2YZfVIN2IMaCQ/AcWmQsMmsZuMjh87Fm9pXnfHpOw0jNhAF4Ph+TjpqJXS2Z4jBc8yVwu+cdSazlez5Kj70RRJ3OM6pwn3i2GekAb6gAD41MQl/fuGHXHNTfOxjH4OvftXtVsH3/dKOvfCBa38MhRL2Lc3PbXl/J9z+1/9XuYjDSSedpAiRNOCSv7sFksm0BjihM1XgVHk7MyXxCBV7jIMNcFuW076DigmlUon8Ht0/DmNjGMYdvPEcrHJ5964Hv3I65EYKIVEkmKHsNhFnKQwDeJROTM9NI+8Q4GGAnqU7JRU79Ny/vyzd2nt+FIDjXXa0puAtR60kixmXKxXIF2gFxafk/cpkNkK+uAGzOB1aby/lQ0IMs2k+8ZV7YiwCe3HxCDFEUQxJZGqftfWuObj1qvSSf9KjfuSoAFoGeWl2BhgJk+2bAJ+75KMwvMNZbee0006Du+++21OAx6Zm4MzPfw/Gp90j6cIq6Fwe/6sP/D6cc+ImzyUnJycB1/zMCbPgYaL1R/4evOs8Fj4ozJ53sE4nS+K8UXmTcsMBbtHpdVXljRGCENG0oFIqAUYKTk/nYM+e/SRIImyj7herPL310Q9PPHerKnRQBm6Y3zoKoMPyUAI8HeAu4RFp1bpTPMBP9g21vOGsq+42ID7Am6qwNnBxXxscc+hS4s/OF2nvMVfZvEOTKm6ekzCbIVHd1IWSShjQmo2zKWiZy4UDWgPc9elpKw/hc9TZ1/jJrMi1LIA7brsVbv2eM0hnyZIlsGOHev3Lj95wG/zyufm5tFpvRwvce+0FEMfPSmlD1wm6UFybYcBZF3waDjmMBm7ZIwkPUhcKxGKAHZZ8aCUFKy0ktgK348e5xGICwbJolIkFkC8UYefOPYDL9glR3r4IwlTlwtTde/7zC5+KqLyrVdhRgc7TKe8VnzhVg7+7GrDbMF9zxuVndCze8Hf4NiK1gRbAuqFe2LS2n7SpBOJl7h5y5kpxTT/LFbkYRkh8ZwAdWezcFBS8VuCegRPzBeATE+Nw8QUfdBVav3nBXx3eD+dc+X173oswdTWXxz9w8uHwqT96i+eSxWIR1q9fD6/9zt8vbolkCi684kZo6+g56AFuhwnyOHC2kg4towhwfoASwP5CYQYtF1F5W+QLfvuO3VDBRWO4QggpBBYY1tiL//l/ci/+9FUh6jlqZAnXqGFQjxo2aEtU+bY5wKt1oQS5VHyPtfSvbVn7zs/+czyZ3hwV4NiDjwBfu7yHkLdQLEOxRM8m08xKLhWXQueDethTxw0DshkDMik+4Ee7UBxFI897Qo0213Oh8PqF/+OkVsM7tttl9oILLoCbbrpJWfUuuO5WePxF95Sgcwlq1bVSiTj88PL3wapFFMbihuGDxx9/PJlKVtzWbj4Bzvnjy4SvIo6rg2dFHuy0Mkj4JPtq4UugsdGdtsgQyqdcjitlCu9KxYSdYqdlBIBbAJXi2Lar9/7yazjRDodwtS6TqHCOks63KKOFcAaY2UShYOZRO0Eh2TnU+ob3fOFnlhHrDq5gznhhhPhxhy2BJf3txP88ky9DEecOd81Y6FbWroE8bKQn9Y1bJDqlXXCpcOjzFX7sv4UGwFkpyL0KjvaB198HzoXVt79+PTx4/8/sYjIwMACownGlenn71188DVf/4IFmM9u+Pvpt//zsN8GH3kFHUsrbFVdcAVdffbVrdyyegI9/8WZIZ9sOWoADie92L8bgDKWnMWd8ZR1ZdfMolDJ2WDJ4v75tmChwe4sC8ErxyZEtN3y4lBvBjhUR4GE+6igwrlaV+6pvzikWp+EaM6NykVTrNvFV4oec88VzW3qGrogKcEyHPsQj1i+CVUtxCU8LCsQnTu0lhhHyh3IBnDXkNB1Njy7JVpxDJSVEr+hOTNsN4RoMwV7UXKzIIyrwxx95GL72JQdyOKnTnXfeCdihKW+5QpG4UYZHp+YFxNct7YPvXPYeyKadxQX4je3cuRPWrVsH09PTrntds+kYeM+Fn5PcWgeJAsdZvJnqdocDss5tGjNMbENwLM0yyBU4Ud4Vi0Sv7dg5Qnzfri0E4JZp7tn/9G3vy+94eLdi1OVcqXDxOoHlGemFAPcDtqjMw9wmYZEqeCMsv1T80HO/8sVkS+eZynUzyS0LM/awR0jEY/DGDYOwYhEqcd6xabqGznOA0wE/FNZsEkMGeuZ2Ye0aAjybMiCBMeMa4PMK4Djd56V/eh7kph0oY9jd/fffb6/QJJbuLU+/Bpf+4132AtnNIvnS3g4ycGfFgHsmZX4/F198Mdxwww2e23v3n10Oaw896uACOFFaMaa65cmsuPhkq+gwJNDOS9awsSSmZUKlVCa2w+lKdg3vhUJBMUw+BODTu5//xNhj38ZVQlRKOQzgYQo96Lis3vn1QwHOnU0yrMOAPSu4dyzb3LnyHZfeZsQS3unZfADOn+SojYOwemkXAS5GpuQLFTbMnvu2SfcG2UR1TlspJwqFHGeKvC0dh0yGDfxxDS2lOWkXijBzXQPXxBQVONbRH33nJvjpHbe5CvF9990Hb3+7d7W+csWEC/7+VnjqVe/MhXMF83gsBt//zB/BhhX9ykvi3Cf9/f0wNeX+Uli65g3wwYuvduL1WQE+kKNQENwYHuj4rznAcY8QUSKVNxfAkbSmCWUb3iXYtm03medbufkC3LCKk8PXj2z5h2+x84I6LDHJbI6LjUNQXqHFVoR0tQAPU9xc1fu6Xha/8Q9X9h9xxs1qiHsVOH8ahOna5d1wxLoBiBm4rp0FM8WKPaWNvCiy405RA5wC2oBkHIgaTyeFTk7WFGiANwfgr7zwPFz7+c9ApewM1HnnO99JXCmqDecIxw7NnfsmQwt/vROsX9YHX7rwNBgaVHfvYLw3zjz4xBNPuC6dTGXgA5d8EQaXrT4oAE4+xNHX7YI0ZRqRV1xV84A/lWBgC6NhZIlZpoJtcjIHI3vHoFxGFvhsPgCvFKbuHN7yD5+D4jQWtCBfdrUqvNr0TphdhALqB1c8NSj2O+x4ELxd11x5yl+c1Dl0+PUABsajC5s/wPnLWYazF24cgGwqTnqcp4sV8r8IcD4JFlfjKgWO8tq5YRo33pIxIBkTFDkPT5RWgtedmI3rxEQFnpuahis+eRGM7d9nl414PA6PPvooWUdStT307Fa45MY7yDw6c7GlknF413Eb4JPvORFwkW6/Def8xrm/5e2QzceRyBMyp7VnDm/mKjgQ4sCZuwSATtDFNzLLOP/iwJ3CfOTiF5l70A6NMEGA41fK2Pg0gbf4xaJ8DwqAm6X8w7se+OpHobQXOy1Vrowo+4KGv1frWvFtf+RnYt17vrAO67isxXfuUe5Dp3zqzV0rNn8DDEN4s+EAx4dpyybh7ccsh2wmQV58rlAmMxmKqptHI8kuFLLSvd9AHgMgFQdoz8TYACDno06MftEAbyzA8Z3+8F9ugnt/4naj4BSsuJZkV5fXz4wwePLlHXDhV25vuD/8qEOWwNXnvwMGe9oAo6X8tjvuuAPOOeccMqRb3Nq7++EjV3wdcDFe2X1EWHaAjMQ0cKV4viK8BFHuQrGdvgLM3QBnjZkFUMbOSlyMwgTYsXMvTJGRuA73oipwyzT37Xn8n88s73keVzXmoEXT+wHZb3h8LeeIrhT+OzK8uSh1xKm6MzOKawXz8J3MSjomA9yAVCqx7owrz832rsBV7NnU39EAjhfOpGKw+ZB+WLu0k7C6gH5xHLXJR9QLUSgE4q6oFMGtIq32Q9NakEkYZDh+gneMCuGLGuCNB/j09BR85mMXujoz8b1jKN5VV13lC80Hn3kNvvTDX8DrI+N1FeIdLWk447j1cMobD4HNqxcBdq4HbVu2bIGzzz4b9u1zviJ4+rMu+AvYeMSb7R6zA0qBk3qCyx3SJeHos1G1TYJKRKUtKXCWnLpF+URVZDUdE8o4yZllQS5XgOHhUWEenOoAblaKz448/q8fKY88ias6+MFbBdlqFXmUPKpynfDyI0qGRrhT/BS6F+IAsfXnXHt+pmcZfmM6MUOKmuFtouiedcu74PC1fYDrZGInxnShQofOsqe05xRnecpRJ1S107xslU3CWGgW2RT1kWN9tV0uLgXPzrWH6cv5ufOm13EGI8nzsvAoGt7oyPdGjrti4YW8SOYsCkf6LOUVyQsLR8PMhzBCcg+skn/3m1+HX/zsHk9puOuuu+D000/35SfOkfK5b/8UnnxlGKbYUn3V0hy/1Aa6WqG/sxXOO+VIOPGwlZBJ+btKxPzvvfdeEvbIlbRd8QwDjvy90+HUP7rQ5TI4IABOFBKC26nGNogF4/Ch8FyBc2jzJHbYKhvIg/0gqLrx3+j+Sdizb4INjbfPsHMPU+CWWd66/+n/+HB+x8N7FGob86nGJSK7SKIAW+VWqbZo2vNCiUAPUtJK8LqCNrwTY3F5EjpYKNXWnRg6+ZNntfSvvIqsYOzzFvwAjunbW5LwliOWQHdHmlQMqsYx1NCJSMGOT7kFI4xnAMcKy1s2G5rkBAQmm1slHYMkglwDXP3pL/o1xU9in89jVwUX/cDs9+uvvQpXXfYJTwHHwT3YKYhzpfhtWOF37J2AB558Bb55xyMwmQ+eSpQ2rAYcuWYxvOuEjYCdk0v6Osi0sBhlEmVD+PzN3/wNXHvttYCTVsnbkqF18MFLriauE9Hnu5ABbkAMLPTjC3Nzu9boZEZwDXkX3rWjyh3VTShnmmRGQbQpjsTesXMfzPD4bhcMoilws1J8bfTJ28/PDz+6N0KHZVQ41wP6UYqWK43stJM7H1XA9viwQwAelAfejKfBWHf2NR/M9i77FFiGUuYEARwzxEE/h67qhs1reolaLpsWzBRMukQbX8GHmcEBNX0KXj0dNwttTO10eD4DPPrIsc8KOz1xYJAL5raKF1W3VuBiZ5XzWU0/rTm8XBATKvgtN38Tfn7PTzyFfGhoCO655x7YsGFDaAXAUMPdo5PwwvZ98NruURibykPFNAE7Ivs6Wkjs9tBgF/R2tEKLYhBO6AUA4Le//S1cc8018P3vf1+5aMCi5WvgfR+9AlraOt2NH5OgLkU6733gKHEQ3LyHiVqITzjl6ZB0QriFZ2efuazRd77+LPJuEN74RT06NgUj+yZI56VaaocD3CzMbNn7+L9cVtr/Eraq9XCFqNS2376g6JYoRcuTRtXrIkI8VDWzHMP85Croy/B2uVuGTv30yZ3LDr3OgJgUnSJ2VfDnEWSd8IiZZBzedsxS6O1Mk6+5fMEkQ/DFzQGz4xahCoymMoRp40mnJ3NbcLcKiWrBUZ2ZGGSSFgW5dqHYvk6nMrORETUqcBKRkpsmKnzfCH71ujeEOEam9PX1KQf51FQ7qjwJ5zX5yU9+QlbYkec44Vllsq1w4ee+Ah3dfc48M4IveMEocDJADkMBY87q8WI3IvN34/PIzl2nEecuFl4onIE8GNuN64TiuTgg57XX95IFGTxbdAVuVoq5LcMPfOXPoTSGn2BR4Y2XlN0pqn0c2lHhLSr7Kkuak1wFcMotrytktmBXQT5Anadiy976J0f2rD72OsOID4pPGKbAxbTYwbRyURscu6mfLHiMI7ZQjZcrqKqdMEEObWoQCmVqCJqOR7VgaRU7Qen8KjRxLGaRyBUSS85cgG6/tVbgs1HgaOOHH/oF/NMNOKGld0N4f+tb34Kzzjqr5gpRy4kImuuvv55MtPXcc8/5ZjG4fDW8/yOXQ2snjRO3JwpbSAAniwgzte1w17NIOT4bny2QE40bxmIrxRNc84mqWL3DMGBciQndJaVSBXbuGYOJyRkSHqzcIgK8OLH7qyO/uunbUBrDMCC/UY9hoK4FzhzUfg2Bz4NFK4l+AA+CeBS1zcFMuBYyVF9O42o8lh37oQ3dG0+6OpZIHWoXAM+zqRW4mCydjMPRG/pg9dJWEjVQKqE/DTtEnM8x0b3i6hxkGXnhztnNwcz+x/kJ4gAtSQNSCYAEdQt6Okhpo6E7MWmtCHehcOj94OZvwAM/VQ/kwTQXXXQRXHbZZbBixYpotaCGVBgO+Otf/xp+/vOfE3iPjIz45oJfbisO2QTn/PFfQGtrh921s2AAbrtHmBxhGOPkobB2Nu4CEt+pUzOE0EgxH9I5ieM4UHlbMDqeg+E94+6JqFQWDgG4ZVnThf2vXrXvV9/gBSYKvEVQq8AbRW37AVu+fg2lzzklCOAcrGEQVql1VcdlNarelTbZOZTdcOZffjOWzB5FKnENAOen4Ao9px2/DLraUizkEBU5WyjCM5e4sFiEMJDHGfhDfep8c3do8sFBFuAcPW1pAzIJrcBnq8Dx/FKxCJd99MMwPeW/NFYikYDPX3klXP6XfzmrCiKfzDsncVDO+Ph44MK4/NxjTn4XvOPsDzmz7LED8x7gOCyDD4wU5+IWwcvCAQmVhIpJn419WvBl0DBumwx9pwYgyUloIAU3/jExXYCtr+8lPm+aXYhADQK4Wdm+48F/ei9MvszjSKt1m4TBO2pMuJ9yn3XZDAO4DG8RrLWAPQrEVdeMpVq7kyvf8enzsj1LL60d4BygBizrb4Ej1/bAQE+afJ4VSxYUKxijSgud6C8iViadlE5ni+PnFgHujjF3desYFsTZ4CCMQMPYct7xKedF/iZvRlTnKgV/8IQRumeoA5iZycF1V30OXn/15cBKMDg4CKeccgq87W1vIwNpOjq8Cwv7ZYBQeeSRRwDnXnn++efh8ccfhxdeeIH4ZqNsvYPL4NQ/vADWHnqkx11C3m6UOWXmtBMTp2ql6xRyFe3pWOYPLrh90LvBYWwfxn2kujAMC9Dn75K4SgioLRibmIGRfZMktluMD68R4GYpN37r+Av33Jjf8Rh2mKgUswxnTKMCsh98q0nL8xbvI0oRCk0TBeAqUAeBXfaV15JWCXHcufT48w7r2fjWvzdiieXO0zGIhjTWvDDYySyA9cvbYfOabuhqx4WJcK7xCpQqDsQJuxlRWbHmPKeQ52GEGJkihSc6APcqb/xEQZC3pKiLhbpZnA9NDXBW9z1Dy+lbx0o/PTkFX776cti2FRdNCX35gEPwV61aRRZSOOGEE2Dt2rWQTmMHt0EUIIb7YQQJdobigguvvPKKZ+RkaI3C0cEdXXDI5mPhnX/4JxBP0kAqGdbzBuCEWi6pob5faVyd6DbxANwepONQngMe3xsKJgtVNw7GmSnBzt3jbCQls67YJxD2XmUFbpr7C5M7bxx58MYfA5CVrqPC2w/UKviKaeWGIIqLJkoxipQmKsCDIK46JkI8SLVzX7mcPsgFY7QvPbJr+Vv++DOJls538erManXIQ0sfZezl41Syi7qy8NY3DkBbNk6WZioUTciXvMPnOSjsG2Z3KsKcQJ93gLJhZ6IPnB/njQMqcfSZYxRLa5L5y7UCp+ItAOB4PJ+fgZu//mV48te/ilTgVYnISufi93+tORkGnHjae+C4t54OrR1d9tDx+QZwDPuTfdbkHqXoPAe6Tvto01AAOgc4/z7ledkuFE5R5ipBU0/lCvD6zlEoFMpe29cIcLNceG782Xs+Ob39QVzGSQR3kFqejfJuKrxFjkQpskGQrQfE5TwClXyydSA1dPLHzsn2Lv9TIx6nU9KGijA1wPnDJxMxWLO4DdYtb4OlfVmiENC1UihRfxxt7WgefN4L70AepqJZcApvIVUAJw9oNwDMHYIwR1dLEiAZsyCdAOJ6UXeCHrwuFNcESBbAQw/cB7f//+/C5ER9h81HqRiLVqyBDYcfC2884WTo7KHhgS5oN1mBm3bUBw+K9fqr+f3y5+X08zSgLIH9RSE+mxjjzX3gqLYtHINhEuW9fywHe/dPw/RM0b/RrBbgpjlenNx90+jj372llLMnpJLhKivxapV1taBXKfooxamqNNUocEdYusMMw8AbVV0Hqm5njhRXVIvRvurNvUMnnvflWDJzBFjSNGceUwQDXEy+tDcDJx3RD+2ZBMTjBoE4/iMj8+0OTdntQXt6aHiiM7KT/BSiUNwNABUHMbJqudqFgiM+s8RvToHNh/LzcEduYD50Xv5bVFLip6xK3fI2UA2huVuVnpT+CApcBGV+ZgZu+uqX4OXnfwP5mVxVFaGaxIlEElrbOwHBfcqZ58Lg0hXCoBQHjkrICcq1kT5wsswJDmZm7gzRTvSLgzUydmehBHWxk1EQR2L5sPUSdkTy/GzAUzcJxnPjrJCT2Dm5Y4xNLhaitKIDvAzl4rb9v7n3otzW/+KqezZqOwjS1fq85QaimiIWOW21AFevSqK0AAAgAElEQVRBPIqLxA/yfrHhYp4qdwx3vZB8k639qUXHf+hN3SsO+2swYn3+Tx8d4AhHHNHZ056EQ4c6YNOqTjJxIRnVWcQRYvQqhkF/4Mh/eSSmam4VGeZs5LFL3fPBQTzE3GkM6FJw6C9HdZ5N0bhzDXDn4wtV3sjwLnjqiUfgrltvgULevWhw5JqhSIidkYcfdyIsXr4aunsHIJ3Jso46pxPPbngUytTlkqhjJyYrgcSXzaM/+LU4uCmDWXXnk0ORe+DRHgzgTEfYg2+kDkoPwFkjy+lGOiUtGsddKJVh+64JmJjKk4VXnK0eADen8nte+vzeJ370X1Aa9xuYE6aaZVUexX8tKmt8pCjnzKbYBZ5bC8BVEK9JPUvx4X6Qd8FaMWzfBnzX+pMGFx95zseT2a5TwTBavE9eHcDF81tTcThsdScMDWZhoAsjVwDyJQtwaDYfmOALcDJEnyts7iqhpjdiTqQJ7wTHhoIFA9i3IKp++wVgZAuLOU8nLEjE8B+dBpdC/8CZzEqOQpFdKKovh0KhAC889zQ89divYP/ePTC8YxuMj3pnBJTLSUd3LwwsXgbtHV3QM7AYNh5+DPQNLqHA9kSO+MSvNwjgtIGgrhAy870wZRD1ObNQPUpssnFw8y8aB+p0ZkARpwTEioFF3IdoN0JCI4CZ0KldcYBcBcYn8zAyloOxibzjJnExu3aAW2BOmTNTPx195s7/l9/9OAbfyxCWoR0G2bDjYfn7Hef7GwZvzoHZXMBvUI8KxiLkw477qW6V2vfk1fOGdy5fevS7bzTiySHbdc2KslCuQ3zmUiET/uzrSsEpR/ZDX0eKxHgXSwDTBed90Q5NalbiGWEdmtTlQdfe5BsFOKtijFLEv07S0Ivy/MTWlk/IZfvYBWDjvlSMdoq2pNzP4ahABzx+Plte0R04zm8XigMmIeqDq0z2EIVCHsZHR2FycgJKxQKZayMeTxA4t7V3QHtHDxhsetgovmzfAUh1Aji6JlC7Emjbvmyn/Njx1rbLwwE4nw9OhC5Huv1sLCv+5SB+JeBve6wybxhYMafnI7TL5Gu0YpmwY3gCdu+dEmK4BbTMFuCkxS69tv+pOy/KbX9ohxDyVy+VXY2y9oN+XQfpRAFzrQpczHteqG9Zmbf0LW/pP/rct7QvWn9JzA45rF2BizIFc0Ewd7QmYWggC5tXtcNAZ4q4VzAEsVCin7J0lCWDMJkAi//m5rOoAse0ZOVlYZi+L8CdjkuxBeaKmyp9NgCJj/IkXwAW4ER62CGKfErEqWL3hx6r6i6f7cIHOAeV67lVnW+efZI9bJVaHwWONR8Bjf8IkUi27ugYAk3Bp00AKr4fp82nJU0cfMMaMqHkkZ+onO194tcFVxncxcLzwlAV3IdD3SsmDI9MEaWNUSXiOpSS/JHEkueom1WSD9wsF54tjLz0jxO/+ff/LuXGCz6qWwa5H2Rlxdwon3kU/s46TT0AjjfRaIiLijzsWi71nuxd1brq9z96Xrqt991GjM6pYhefwHIkHRT+lE9DNdzfmYKjDumEwa4U9LYjzHEqWwswpBzdLe4oEicHOpcbl+l0BJGj4BnwiaLHBoB5O8VOVFYEbJXOsnZcKA50xcrP7yCObpg4kPVA6XJItIEgn1bCpPsUeBrgtbpQHCDT8od/U1jTxt4eychejD0OUVHuxJBHtwuEvjC7kRIbGbtBomXN9lmrAE6kBrsw4TVrpKwKmc51eqYEe/bnYO+YOEeJu1bUA+AVs/xqaXzXLWOPf+/20sw+vuSOCGA/+M4W3mK+qrzCjs8azFEzqBfAuRgUXRxBbpAwCIcdr8bFQtK2dC7PLHv7xRdmOvv/tN4AF+UFdnx2ZONw/IYuoszxGH5iTpcAKmyNRgpXZ0lX2w1CpLgb4O45WRwFL7pOSBoR3Nwlw6fOxcRyPLVQQpiwsystbzbwNHwR2EChYk8aVMXzvFS+UufTXFjn0IaSEKEhRDnQGumjZEPiwLmS5u/UN3pGdQ8++2R4BkWTqO7bNA2oYHNr0kEy3J7kf6nTkPul+bc3R6fAVdasSnOIsPdnf+NxA7CoEvFa9P06DYUoYpzGwOkA5TYlD8DuFxX2y9vHYGK6SCeWCiZ0yOFA5YR5m7l9L//1+JM/uruU2xekuEWYy7/DlHWUhkCVv1+nJU8blb11SVdPgMsQF2HOVXrV4A3otJQhH+VLwOg/7PTl3eveela6Y+C9ALFOfytKhUyhhJxz1WmzqRisGMjCst4UrF/WCh0tccDOeAR6oUxVmLjIMukERfVr01laYUdwwVD8e4+7wM46SGllZr09ArTo/Tv3boNGCnXjz0kqO2ssnIZFiEXnHxLMZcOjaUR/q+u3eF/zFOCkVpqs05CFy5F9tnp2FC/vUHQ3AM66JLSD0HkBbvVsUVVs254akwJWUNU8C+biIHmI6CDA5XfgTD5F79l52/Zbt90mvAOUfg4Uy2XYMzoDE1MFGJ3MQ6EoTR/QAIBbldK24sSeH+x75o67ymMvYkC/HQwTMsw9COR+oK63Sg9plerCa08m9Qa4H8SjKnMu+qICX+Va8dvnAn7b8iO7l7/p/E/FM+0nGLF4r9e8swe4nOei7hQcc0g7LO1NQ2drghzOlwFwag0SR8sWhaAKndZm8WHsTlA7Y35cWHDCjjn3iUJxPZYTQkZh4cCGJxOVIN0nKWVJjPGIHA4dHiDNn4k3WCR8ko9WJW2RnbszglEOcXPxL0Thy757kr0wx4ftxmAuDeLj5SrUaewowAXw2fYTFoyyXUtCBAgxlTP5gs1YgaI2mlmeFOA8X2YPwS7OuxDA7ArzYxC2J49irhLeZiiEM1lykAyyMSFfrJBl57YNT8LEVAkqrpZBKs31A7hlmqVtpfHhW3Y/fvOtkJvAkMCoQA5LV40K53lFOUd2oTQF3jYmGtA28IYhLM67WmDLkSyq8zn8xUbAt0HoWnl8b8+m09/R2r8S1+KkVOWgEg0jvCLv2/KHvWxbrOLJuEGG7C/rScOx6yjQsa6USewsQAmLhwxw3gnqTD8uzGLBwwalSbgUYYTO0zEQu5a/8io02nFG1b79uS12drHfvIvWhgxTgrRhYFcVB5BwkNlQYUBmaewGhJlCjFe2n4GDib8xVgXJf+SYAEHi0Fd/hThJbQcGJQirpg5zmSp22jFWVMjM1zR/6TpiQ0jTOE/mQJ1WRa7QxdLkrErvaC25QbGHrLNOCzzfpeYFgNOiTV0juI1P5WHb7mkYmyqQWG2cytVdA3zYVAeAW5XiKxPbnrp2esd/P1vev3U6ANx4S2GuiyCY2y5/4RpRQB0F6g3AZ/QsG6HAxaur3CgqmAa5Q6qFfJibRnk8O7C+Y+mx7/+DVNeiU+OJ7BE0LETY6ghw+fW0pmOwoi8DqwbTsLgnBct606QTFIGO7pZyhd6KE8XiQIAah/suAhY1FiHH0ebq7Rc/3xmX+Dn2uQ4xbWCRGzOciAdODqcbzI7ktGO3+We/AEI6cx1DrhSFQKHjdrsKfHa7BtgBt1p1TnbgLubnRHuIbg7Rn85jP22YkywdMtJfboVvuzdER5XFYG/vc1alcbtQ2DsQGykBxKxpYhx2Ghbe0Dn24ZN14yRSJoxNFmFypghjkwXYP4EDbHgr5YUGv4YSJzUC3LLM6Up+4v7C6Ct373vs3x8ByPEJp0TI+nUSiiDnv1npcKn2auCsAn/U86OTtkEpGw1wWqr9/9XaWVmtEhcbgaDf5NjiYz64qXvDiZ+NxZNrDCOW4QBxKxMfuvPi5PPC3E4LiZDsT5xca9VAGo49pBWW96chnYiBEaPD+YkrkkWHuN0rjsuE76dhiUxV2iAQlrFSAJxyyAGarRJtfywjj+iDZdpIHFxD8SgoVs96h85z2CzwANzdarqUqVB9lfdoN3dOFIX9amQ/M/aasUxEaDnuILcLxdVxKbxCEe6kweHXYS4iClXnE4oed1xSXoCz9+BxUzk+brEj2c4fd5oWmfYWQ1sR1luHpwi8aaifQlX77lIcUJZxdzrpL9OqmOPF3P679j192z+V9/6W+7dV8FUBtZ77ZDiLDUGQypcblQYhubps5wLg/I6iuFNEJvkN/MH85LxU+2S+8XPEtPJv+5xkS2eye8MpK9uXHf6Wlp4l5wPE7Q5Pb5GW9viUeVpao1UeXslwweSOlgT0dyRgSXcSNi7LwpLeFAkQwMqIQC+VmTZnLhM60RYJLrfHfxJ1KNRdERyq2/V0NoptDT+BfYn7Ac32a9uNh38UCm8kHXeAOy1tD5xnsNMxm9LmQvDhSz5wWywzFwd1CQm+buEe7Yba3X4wN5L3S8Clyl02FlU6d6/wTIUYbnYflBCs0eMNitg3YLuEHN+6wV8qaTAsGJ2cgT2jeeLDnpopQwHdIp7lyKKVQbEx82DFk4US4FalOP3LmZGXfpzb+siTeQruesGYg7de+WE+fnAXr1EdYRucei4Bzktn2IjMalwgPC+/c8KO+53nAnu2Z6ht0dHnnpztWXpaLN1yJBgxaZh+4wAuvn9+lbZUDBZ1J2HdkgwMdiWhqzUOPW0JUvcrJoUciT/nlV8cwWeDSuiMVHwIiAC3gca1m/2x64aQE2cuxJ6LIGV6y1UbRHUp9JiSNPyBRb+y/cXvyHWaTFT73pGY9Bl45x/rbBS8B9TX73bVCLfjhFiKjZHoiuLAtV+YPEzdubbjm3e7jGjgPRvEw6+j6kjEWTLLFZjOlWCmWIGJXAlGRmdgMlcia70Kt6CSC41W4KZVLr5YKk48Prn10X+devFnW6vwX4tqWASq/LsWaEdx0YTl22AcV5/9XAOc17QwSIvgrae7JOy6QaqdHMv2DLUuefOfvTfbs/gjYMSSdN2RuQW4t1ZaJPRwsBMVegbevL6VAd0ivvR8yaDRLtytzz7dqWIVojmE8uP2IdMDzkAeh2IkHb4hEqkhRYZIqlaEsi1URV+y0FK4oCzAkXdOUgQLalVqhJyOR+febToInZOc/aK/m79N14AZlr8oZu3ncbk4HBs4vRYK27EGSvWc3JUSMyo24THdvokivLpzEvaNFyDHlgF00Vqu/5LrJSyt4nQ17FlD7EpvWVallPvVvhd+ft3MK/eLK2yEQdEuCtLw+Kjn1Tudyv9dPVnn6IxmAJw/WjVg9gOrCsiYf1XukgAfPc/L0/BkB9a09Ww4ZVO2Z+Ux6fbePzDiCTLKk5LO/+1V60IRc7Kz9eTvvWAmSQcU9bbFobstAT1tcVhCOkiTkErGyWc1wh0FG7pg2CJE7HJiiJwT0WHHF7tFHn1g7k4JgDZtBLiJ6A8nAFIBPlHVMtDbSlnMy3M/eNAJx+MNi8tHLb0mN8DZvfE2Qli0127YhP4DDN+3Y7/JQ4nhmE5e5Jco67kFuE0sgOl8CfZNFGAyhyMeyzCVL5E1WwsluthvUMnyHGs8wEvl/MTPihM7H5rY+uvHCrue3gtkpINdA6LCldeaqOmjpMM8ZxO5IjYsc4Tj6i/TTIB7oKgAqUqJN8JdIndsBrlWPMeS2d5U31FnH9G5bPP748nMWiOWXGrLQ+mdzBXAVY0JlkgcVdnZEofe9gSs6E3CyoE0ZNMxQF97JhmDdCpORg+WmSsGeUNChXHGOaGB4vi1v/BdPmf69PYc0SJgHb+Iq5azGDwnHE9oCDn4XGpVVvuuttPpqKUqOewrQ2hY+P0J0wh4fNz2tbjPxXmrpEGiN+zu8WA2KJfLkC/SObLR3TE5U4K94wUYmyoTnzXudzaptATx26dvRX2KYq/vLvcBy6rsM8vFbYXx4btGn/33+8pj2ycVfu0wIIcdFwHNQVzNOVEAL6eROykDrV09ahtzRrMBziGO//u5Tfg9yqqan1sN5MPAHMVn7tfwACSTsWz3ipb2oWNXda04+t2ptp6z5NfWbICrPg/Q/YILSiQMg8yJ0p6NQ097HPraEzDUn4ahgRSkkzEyhBrdMNiBWiZzo+M/gyxMyzsZnYn95YE2kuJ2qUMWKSMOmBHUKo+tFgWsx11jR8UIipcrWwZ7hlun4bCrqAh4moqCn749AnDht+grpwWKssDpWqTpJ3Jl2DNWgJGxIkzmy5CbqUCxQgfN0FHq4leHqoLPF4AbllnKPTa185mbZ7Y/+lx+fEcOSjNcafvB0g+4fL8qNlvOa67grbpuY4hb51znA8D5I3G4cphH6mAMcZf4wdbP9RLkI1c1GLJrx3V+pv+Q9v6Nbz8s07PimGRL13GxRGa9JceXC0rT/W69AkDgjVQMAsSCqH4pjvyLkOeQo3lTSQMyqRhR6e1Z/BeHtkwMMokYgTtOG9CSjUFrKgHZTIwMVhLVO8cbVfPOqE8cU0IW1WUw45h3riwIWtkFQxoB3nlJz7Cj5Hz80rym8igUcjYnu92JyaJ3SJY0X3Q55Qsm6TREl0a+RFU0ujbw30yhTPzSMwW6H5fiI3NkK63teSk+76R5ADcrxVeLM+MPVyZH/mfitf9+orDnGT6Rugp2KoirAM6BzA0QpJQbAW/x+n73XGfENja7+QRwGeQyTKOo47BOSrFxCIN7LcdV59j7uteevLTr0JNOzbQPnmHE4p2GEe9yxb653vX8ATi/LR++KxuFRIwCvzVtQCZNQY8DlnA+mNZ0nIxEbWGgt2PV7QsxXctDpl1TqHKk2rQlkOTzyojx3K4GhLmBSFthOvOO4FcFLsyB4J3Klwmgp2YqkMtXoFCuEHdHvoDhmqJrQ1Upbbkf8halRjSgPfUEnYak9dxVdB+4aVUqY5ZZmajkRx/c/8pDt8+8ugWjR0TI+QG5GniHATvouHwv3L9dL9A3lrQNyn0+ApwDj/9fDxeJSilHaRD8IB4IasmXL6eFZLIjmV26oTs7sH5Zy+D6Y7OdgzjVrTQfy8IGuBImgqK1W2syeRdd5IKrYfqy6BJ1fD85lc/gKEynazOf+W5ILbfDJymBuA+fH3OGyLMBPL6Vi30PBIJTat6ktPNZgVumNV2a2P3j6dFXHy7te3FrbvilMShPlgI6IaNAXJXG+fBRx4FXA2GeNoqKj9IgNAitc5PtfAW4Xb9DRnLKYBb95GFqXHTZRHGdBLpLhE5LOa8w2AMkO5Jda9+0pGvoqGOTrT2b4qnMUDyRWQ8GpMRiYMPAXwp7S43naz2ARiH5VqPAowI8mJ3OFcP0rze6w8nZfd++slRxKwcOwC0MOirnf2OWZrZWcvufnRp+6rGpl/5rG3qHfIAtgzjsbz+gBgE9CoT5+VF85iqVrjo/tDjNDX5nf5X5DvBaQK7ypfsp6XpDPAzW3N5B1yV5JNoXZ/sPP+uY9mUb35tIZA8Fw0iAYSDQcXEdaYsGZYYj/1KjAa60qyfyT2lBZrx5oMBxoTPDtHBWv3KpMPXw9K7f3jb67L/9D5TzuC8MxOJxv99BitoP2Kr9UeEeBd6YV1S3yuzJOU9yWCgArxXkHKi1ukuCwF8trMPgLebnyjvRviTTtmR9b0vf6uWJjkVr0q19RyQy7ccbhkHnaYnYMakBzmwVySXi2HUhANwyK9Pl/MSW4tTeZyrTI6/O7Nu6vTjy8mg5PyIuiBAFzkHQDoO/H9iDoO4HZxnIQe6QqGnnCXbrdxsLDeBRoFmtO6RRrhE/le0HavnZ+N/q9NnuVM+aNy9rW7RhY7qj/2gjnh6MJZL9sXhqMVPqHrZrgC98gFuWlTPLhR2WWR41K8Xh4uiOh6d3Pftcbtuju2lgp93xKLbsKrDOFuYq94cK1FH3ye6PMGBH8W+L91g/as6jnBYiwEXzzXeftx+UVXAPBjZ9avk8Z18yGUskMrFES0+2bej31rQOrt6c7hh8WyKZ2cgNpgG+EAFuFSuFqV/nx7b/5+SOZ58rDT+9s1wuVKBcxmnMZDCHQTnseBQoByn0av3gs4F7VLfKPMJt/W9loQPcT82GdWDWouTDrhWWZ9D5UVR5EMBl+NtpE5n+dHbxuu623lWLUp39Q5DpWBRPZvvjydbViXR6FS4Xahcr7QOXatjcdGKaZnm/VZx5oVyceb1Snhmx8hPDhYnh7TP7X9tT2PviBJTzGBkitsOyspTBycEo/++XLmj/bI7V6isPgjM+Uxi860/KeZrjgQBwbtoorpCoacJgHMU9UqvPOwzmUUAuXtsP7rgAUTy94sjezsUbl7f0rNyUynYfBvF4D8SMtGHE0mAYbTEj3kY6UFWedhv4EZzK9mjGCGntizlpQ8MGAhzV7ivOcRSKZc5YpjltgTkNpokrAufL5emXihN7nprZ/9qrM7ue3VUe34bD0VXQ5fuCgB0E6aDza4G5mF8UtV6NIpfzll0kUY/PU9Q25rYOJIDLIFdBuNoQv7AoFT/YRnWRBEG+VlDL8JYBLr5zL+gTiVgi051MpLPJWLYnnUp1ZIz2wb5018CiRKZjIJ3uXB3PtK6JJVKrMVjGzZ2AQnqAA9yslEfNcv7lcn7ipcr05NbizN495fEdw1ZpOlfMTxYqxfFCuTBdhvyUHGctt43VwDqK0lZBXHWNWoAe5luvVYH7wTuow7MxhJznuR6IABdB7gfxMLjLx8P+rkZtR4G2X8PgB+OIipuvveb5X85XZUN5XyzRuaIl2720LdXa25Fo6+tOptu6YunW7lgi2QGQyBqJZNaIxfBfi2Gk8P82MGKtYMTaYrFYK4CR9K0fBCdzp8Aty5wB08xZVmUSLDNnmuVJq1LJgVnJV8xyDiqlvGWWJ8xSbrRSmBkrz4yOFXOjk6WpvVOF8e1TkB/ji/HyRxKFv6ozLcq+qGka6VLB55HB6dcozAboQWpdDA8U4T7P8dr42zuQAS5ar5bIlDBoqxqBMPAGKXM/sEdR4tWkEWGtArdKwYcBXoa7fA3VcYBMbybdubQt1tKeSSZb0kamNZWIpdNGIpU24ul0IpluTSRTrRWIxw0jmTRiRhxiRiJmGEkwYrFYLJ6yLMMwzVLRwCUfwSyCZeGw8JIBVqViVUpQLuTNUm6qUioVrHKxUC4XC1YpVygVc8VKMZc3x3flytM7c/LssoqqJ/t+gv5WwdvdIrmnXJWh7wduP1D7AVW8pp/CDoJxWL5hbhTxfBm8UV0kqjwaT8YFcoWDBeAiQML84CowhynsKKp6NvCOAmg/FS6fGwTtKKBWuWBUwJbLlqqshZW/sOOzqWYygMW8VMei7KsXuP3AW+3+MFdJtYCWrx/VReIH4WohPpv3fUCe28gKMp8N1giIy+CXYShDfjaKO+jcoOvKSliGcRQ4R0mjAno1+8Sy04gyGgRvEVJBUK+XAldBuVpQh6UPA3m16lwGctDfs4G337uYz2yZ03trROWY0weY5cVUqjgMtGFKOkyti6APg7x83C99UJ6qPILylUGrcqkEqevZKO9mlUc/oFerumXg1EuRB/m4eRWQ1bAf1MNgLgI3KpiDzvG7rzD1PcuqfXCc3qwKMx+t6wfzKEBXATSqWyUq0INgHwb6qMCOoq6jpJEbAf6+54sbpR4KPAjW1YJcBfowf7cMzSjADmoI/FR4FHUe5guv5vh8ZMO8vScNcO+riQLs2cA5yrm1Qr1aUIep6yiwDlPc1UC7WeVxNgq8FpD7uV9kwPpBWXXNMJUeBdB+Slq+jzAgByn3oAZh3oJyvt5YsyrMfLWHfF/VuktqhbMM0qDrzkZtq4AcBumw437qOgzsQapcfA/1LqNh6luGI7+XMHdKvXzi1ahxv7RzAfNqIC4DPco7WCiMaOp91rtyNPVhGnzxMJiLqjkKyMOgLYNalX42MFedK+6LclxOH+VvVZpGAjtKsQgCShi4a1HgfucEwVtWwdX+XYvvWwTvbH6LfvAo70OniWgBDfCIhhKSVQvnKOlF+PtBuV4ADwNzFMXtl2YhArxaeMvwDftbBeVaAB5VmYelCwN5Ncf90qrcJNXXNH1GqAU0wENNFJqgGmUuwzNMhdcL2lFdJ7OF90IEuArA/KVH9Y1HdZ+oVHMtMFepYfGeq3GhhCnrsOPapx2KiMYl0ACvr22jwlyluMNgHlU5y/fAn1DOPyw/v+MypIPUuGhdv7IWpQxGSRPlTUb1vUYFtx/oq1HdtQBczr8WYMuNSZjyFkHu5/+O8g50mjpaoF4Vo463dMBkFQRzFcBVwFTBeLaqvBpwR4W1qhzNZp+qENSjrEYBeDXwDlLefmCOsj+KLzzMVSIDOgjYQQ2An8KOYssDpjLP1wepR6WYr8823+7LD8a1KG+VX92vAfCDsEqRVwv3IMDLyj+KGg86p1Hvcz75wFXQDQJxGKSjHg+DtAz4Rr0LnW+VFtAAr9JgdUguuxxUMJ6tyg7yeYf5ucOOqyA7W7UdtRxGTad6TVEV43xQ4LWCPEyVV+Nq0dCuQ2VvdBazqRCNvreDKf9GuEpm4/P2U+Ky4m6EAp/rMjmXClwEc5Tfc+1Kke/pYKqDC/JZ57qyLEgjNeGmRaCrYBrluB+Eg8AeBGS5rPgp9SA3iF95i1oOo6ZrlgKPAmV+b2EdnWFqWs6nGnXtp/CbUNT1JWdjgdlUiNlcV58b3QJR3CF+UA46Nyqsg0AdBHWVWg+Cu2iRuSyXYa4V1fGwzsu5BnkU2GuXSPQ6t2BSzmVFWTBGWSA3GtVPHqbEqznuB+AwkAfBPOyY/DpqKbNhkBavUY1LJQzuQaAPU+B+KlkFYtwX5m5ZIMVa32Y1FqilMlSTv047dxaIqrajdFJGSaMCbxSQRwH2XJbLMLiHQZq/4aiwjqrO/UAdBva5K3H6Sk23wFxWlKY/7EF4A2EgDjsuwzYM0KryVKvfey7KZi3wlgGsAniYiyVMfVdz/CAs1vqR/T6FtWUOLgtU06FZi+Kez/D2A7FcAuqhwKtV3VHv7eAqrfppPRaYC5Wjzb5wLBCmoA8mBV6NL1wFXD8VHZZ24ZQWfadNt4AGeNNfwYK8gVpArlLw9fgSlO8lzC0SZPDZQlvDeRTOjZAAAAMcSURBVEEW54V70xrgC/fdLZQ7n69ulCig90sT5dyF8n70fS5gC2iAL+CXdxDceiPLp4bwQVCADvRHbGQFOdBtp59PW0BbQFugqRbQAG+q+fXFtQW0BbQFareABnjtttNnagtoC2gLNNUCGuBNNb++uLaAtoC2QO0W0ACv3Xb6TG0BbQFtgaZaQAO8qebXF9cW0BbQFqjdAhrgtdtOn6ktoC2gLdBUC2iAN9X8+uLaAtoC2gK1W0ADvHbb6TO1BbQFtAWaagEN8KaaX19cW0BbQFugdgtogNduO32mtoC2gLZAUy2gAd5U8+uLawtoC2gL1G4BDfDabafP1BbQFtAWaKoFNMCban59cW0BbQFtgdotoAFeu+30mdoC2gLaAk21gAZ4U82vL64toC2gLVC7BTTAa7edPlNbQFtAW6CpFtAAb6r59cW1BbQFtAVqt4AGeO2202dqC2gLaAs01QIa4E01v764toC2gLZA7RbQAK/ddvpMbQFtAW2BplpAA7yp5tcX1xbQFtAWqN0CGuC1206fqS2gLaAt0FQLaIA31fz64toC2gLaArVbQAO8dtvpM7UFtAW0BZpqAQ3wpppfX1xbQFtAW6B2C2iA1247faa2gLaAtkBTLaAB3lTz64trC2gLaAvUbgEN8Nptp8/UFtAW0BZoqgU0wJtqfn1xbQFtAW2B2i2gAV677fSZ2gLaAtoCTbWABnhTza8vri2gLaAtULsFNMBrt50+U1tAW0BboKkW0ABvqvn1xbUFtAW0BWq3gAZ47bbTZ2oLaAtoCzTVAhrgTTW/vri2gLaAtkDtFtAAr912+kxtAW0BbYGmWkADvKnm1xfXFtAW0Bao3QIa4LXbTp+pLaAtoC3QVAtogDfV/Pri2gLaAtoCtVtAA7x22+kztQW0BbQFmmoBDfCmml9fXFtAW0BboHYLaIDXbjt9praAtoC2QFMtoAHeVPPri2sLaAtoC9RuAQ3w2m2nz9QW0BbQFmiqBTTAm2p+fXFtAW0BbYHaLaABXrvt9JnaAtoC2gJNtYAGeFPNry+uLaAtoC1QuwX+F2ccr/eWf7hyAAAAAElFTkSuQmCC;" vertex="1" parent="21">
                    <mxGeometry x="120.21000000000001" y="270" width="120.31" height="170" as="geometry"/>
                </mxCell>
                <mxCell id="22" value="&lt;font color=&quot;#ffffff&quot;&gt;Our Code = Defines the Containers&lt;br&gt;&lt;/font&gt;" style="swimlane;whiteSpace=wrap;html=1;fontSize=16;fontColor=#000000;" vertex="1" parent="1">
                    <mxGeometry x="-1370" y="240" width="450" height="520" as="geometry"/>
                </mxCell>
                <mxCell id="19" value="Docker File" style="whiteSpace=wrap;html=1;fontSize=16;fillColor=#ffcccc;strokeColor=#36393d;fontColor=#000000;rounded=0;" vertex="1" parent="22">
                    <mxGeometry x="290" y="320" width="120" height="60" as="geometry"/>
                </mxCell>
                <mxCell id="15" value="Docker Compose (.YML File)" style="rounded=0;whiteSpace=wrap;html=1;fontSize=16;fillColor=#ffcccc;strokeColor=#36393d;fontColor=#000000;" vertex="1" parent="22">
                    <mxGeometry x="20" y="250" width="160" height="80" as="geometry"/>
                </mxCell>
                <mxCell id="20" style="edgeStyle=none;html=1;entryX=0;entryY=0.5;entryDx=0;entryDy=0;fontSize=16;fontColor=#000000;exitX=1;exitY=0.75;exitDx=0;exitDy=0;" edge="1" parent="22" source="15" target="19">
                    <mxGeometry relative="1" as="geometry">
                        <mxPoint x="180" y="330" as="sourcePoint"/>
                        <Array as="points">
                            <mxPoint x="230" y="350"/>
                        </Array>
                    </mxGeometry>
                </mxCell>
            </root>
        </mxGraphModel>
    </diagram>
</mxfile>